<?xml version="1.0" encoding="utf-8" standalone="no"?>
<!DOCTYPE svg PUBLIC "-//W3C//DTD SVG 1.1//EN"
  "http://www.w3.org/Graphics/SVG/1.1/DTD/svg11.dtd">
<svg xmlns:xlink="http://www.w3.org/1999/xlink" width="576pt" height="576pt" viewBox="0 0 576 576" xmlns="http://www.w3.org/2000/svg" version="1.1">
 <metadata>
  <rdf:RDF xmlns:dc="http://purl.org/dc/elements/1.1/" xmlns:cc="http://creativecommons.org/ns#" xmlns:rdf="http://www.w3.org/1999/02/22-rdf-syntax-ns#">
   <cc:Work>
    <dc:type rdf:resource="http://purl.org/dc/dcmitype/StillImage"/>
    <dc:date>2024-08-20T12:34:57.711299</dc:date>
    <dc:format>image/svg+xml</dc:format>
    <dc:creator>
     <cc:Agent>
      <dc:title>Matplotlib v3.8.4, https://matplotlib.org/</dc:title>
     </cc:Agent>
    </dc:creator>
   </cc:Work>
  </rdf:RDF>
 </metadata>
 <defs>
  <style type="text/css">*{stroke-linejoin: round; stroke-linecap: butt}</style>
 </defs>
 <g id="figure_1">
  <g id="patch_1">
   <path d="M 0 576 
L 576 576 
L 576 0 
L 0 0 
z
" style="fill: #ffffff"/>
  </g>
  <g id="axes_1">
   <g id="LineCollection_1">
    <path d="M 279.000388 132.155302 
L 244.805503 130.545756 
" clip-path="url(#p9c2f6a7202)" style="fill: none; stroke: #000000; stroke-opacity: 0.4"/>
    <path d="M 279.000388 132.155302 
L 323.164831 129.375287 
" clip-path="url(#p9c2f6a7202)" style="fill: none; stroke: #000000; stroke-opacity: 0.4"/>
    <path d="M 279.000388 132.155302 
L 264.164116 147.85951 
" clip-path="url(#p9c2f6a7202)" style="fill: none; stroke: #000000; stroke-opacity: 0.4"/>
    <path d="M 279.000388 132.155302 
L 423.476588 139.231381 
" clip-path="url(#p9c2f6a7202)" style="fill: none; stroke: #000000; stroke-opacity: 0.4"/>
    <path d="M 279.000388 132.155302 
L 221.395084 164.149852 
" clip-path="url(#p9c2f6a7202)" style="fill: none; stroke: #000000; stroke-opacity: 0.4"/>
    <path d="M 279.000388 132.155302 
L 172.783665 139.237901 
" clip-path="url(#p9c2f6a7202)" style="fill: none; stroke: #000000; stroke-opacity: 0.4"/>
    <path d="M 279.000388 132.155302 
L 240.125545 208.801602 
" clip-path="url(#p9c2f6a7202)" style="fill: none; stroke: #000000; stroke-opacity: 0.4"/>
    <path d="M 279.000388 132.155302 
L 430.082481 173.050798 
" clip-path="url(#p9c2f6a7202)" style="fill: none; stroke: #000000; stroke-opacity: 0.4"/>
    <path d="M 279.000388 132.155302 
L 309.027259 219.598409 
" clip-path="url(#p9c2f6a7202)" style="fill: none; stroke: #000000; stroke-opacity: 0.4"/>
    <path d="M 279.000388 132.155302 
L 376.454422 190.601277 
" clip-path="url(#p9c2f6a7202)" style="fill: none; stroke: #000000; stroke-opacity: 0.4"/>
    <path d="M 279.000388 132.155302 
L 513.209398 159.514242 
" clip-path="url(#p9c2f6a7202)" style="fill: none; stroke: #000000; stroke-opacity: 0.4"/>
    <path d="M 279.000388 132.155302 
L 323.011386 77.568204 
" clip-path="url(#p9c2f6a7202)" style="fill: none; stroke: #000000; stroke-opacity: 0.4"/>
    <path d="M 279.000388 132.155302 
L 159.208087 90.327744 
" clip-path="url(#p9c2f6a7202)" style="fill: none; stroke: #000000; stroke-opacity: 0.4"/>
    <path d="M 279.000388 132.155302 
L 251.415489 62.314422 
" clip-path="url(#p9c2f6a7202)" style="fill: none; stroke: #000000; stroke-opacity: 0.4"/>
    <path d="M 279.000388 132.155302 
L 403.313265 294.951174 
" clip-path="url(#p9c2f6a7202)" style="fill: none; stroke: #000000; stroke-opacity: 0.4"/>
    <path d="M 279.000388 132.155302 
L 310.329759 160.359576 
" clip-path="url(#p9c2f6a7202)" style="fill: none; stroke: #000000; stroke-opacity: 0.4"/>
    <path d="M 279.000388 132.155302 
L 359.864694 71.972634 
" clip-path="url(#p9c2f6a7202)" style="fill: none; stroke: #000000; stroke-opacity: 0.4"/>
    <path d="M 279.000388 132.155302 
L 181.66949 52.352826 
" clip-path="url(#p9c2f6a7202)" style="fill: none; stroke: #000000; stroke-opacity: 0.4"/>
    <path d="M 279.000388 132.155302 
L 158.295646 226.231919 
" clip-path="url(#p9c2f6a7202)" style="fill: none; stroke: #000000; stroke-opacity: 0.4"/>
    <path d="M 244.805503 130.545756 
L 323.164831 129.375287 
" clip-path="url(#p9c2f6a7202)" style="fill: none; stroke: #000000; stroke-opacity: 0.4"/>
    <path d="M 244.805503 130.545756 
L 264.164116 147.85951 
" clip-path="url(#p9c2f6a7202)" style="fill: none; stroke: #000000; stroke-opacity: 0.4"/>
    <path d="M 244.805503 130.545756 
L 423.476588 139.231381 
" clip-path="url(#p9c2f6a7202)" style="fill: none; stroke: #000000; stroke-opacity: 0.4"/>
    <path d="M 244.805503 130.545756 
L 221.395084 164.149852 
" clip-path="url(#p9c2f6a7202)" style="fill: none; stroke: #000000; stroke-opacity: 0.4"/>
    <path d="M 244.805503 130.545756 
L 172.783665 139.237901 
" clip-path="url(#p9c2f6a7202)" style="fill: none; stroke: #000000; stroke-opacity: 0.4"/>
    <path d="M 244.805503 130.545756 
L 240.125545 208.801602 
" clip-path="url(#p9c2f6a7202)" style="fill: none; stroke: #000000; stroke-opacity: 0.4"/>
    <path d="M 244.805503 130.545756 
L 430.082481 173.050798 
" clip-path="url(#p9c2f6a7202)" style="fill: none; stroke: #000000; stroke-opacity: 0.4"/>
    <path d="M 244.805503 130.545756 
L 310.329759 160.359576 
" clip-path="url(#p9c2f6a7202)" style="fill: none; stroke: #000000; stroke-opacity: 0.4"/>
    <path d="M 244.805503 130.545756 
L 323.011386 77.568204 
" clip-path="url(#p9c2f6a7202)" style="fill: none; stroke: #000000; stroke-opacity: 0.4"/>
    <path d="M 244.805503 130.545756 
L 359.864694 71.972634 
" clip-path="url(#p9c2f6a7202)" style="fill: none; stroke: #000000; stroke-opacity: 0.4"/>
    <path d="M 244.805503 130.545756 
L 159.208087 90.327744 
" clip-path="url(#p9c2f6a7202)" style="fill: none; stroke: #000000; stroke-opacity: 0.4"/>
    <path d="M 244.805503 130.545756 
L 251.415489 62.314422 
" clip-path="url(#p9c2f6a7202)" style="fill: none; stroke: #000000; stroke-opacity: 0.4"/>
    <path d="M 244.805503 130.545756 
L 520.029174 55.281259 
" clip-path="url(#p9c2f6a7202)" style="fill: none; stroke: #000000; stroke-opacity: 0.4"/>
    <path d="M 244.805503 130.545756 
L 158.295646 226.231919 
" clip-path="url(#p9c2f6a7202)" style="fill: none; stroke: #000000; stroke-opacity: 0.4"/>
    <path d="M 244.805503 130.545756 
L 309.027259 219.598409 
" clip-path="url(#p9c2f6a7202)" style="fill: none; stroke: #000000; stroke-opacity: 0.4"/>
    <path d="M 244.805503 130.545756 
L 376.454422 190.601277 
" clip-path="url(#p9c2f6a7202)" style="fill: none; stroke: #000000; stroke-opacity: 0.4"/>
    <path d="M 244.805503 130.545756 
L 181.66949 52.352826 
" clip-path="url(#p9c2f6a7202)" style="fill: none; stroke: #000000; stroke-opacity: 0.4"/>
    <path d="M 244.805503 130.545756 
L 403.313265 294.951174 
" clip-path="url(#p9c2f6a7202)" style="fill: none; stroke: #000000; stroke-opacity: 0.4"/>
    <path d="M 244.805503 130.545756 
L 89.830826 158.292506 
" clip-path="url(#p9c2f6a7202)" style="fill: none; stroke: #000000; stroke-opacity: 0.4"/>
    <path d="M 323.164831 129.375287 
L 264.164116 147.85951 
" clip-path="url(#p9c2f6a7202)" style="fill: none; stroke: #000000; stroke-opacity: 0.4"/>
    <path d="M 323.164831 129.375287 
L 423.476588 139.231381 
" clip-path="url(#p9c2f6a7202)" style="fill: none; stroke: #000000; stroke-opacity: 0.4"/>
    <path d="M 323.164831 129.375287 
L 221.395084 164.149852 
" clip-path="url(#p9c2f6a7202)" style="fill: none; stroke: #000000; stroke-opacity: 0.4"/>
    <path d="M 323.164831 129.375287 
L 430.082481 173.050798 
" clip-path="url(#p9c2f6a7202)" style="fill: none; stroke: #000000; stroke-opacity: 0.4"/>
    <path d="M 323.164831 129.375287 
L 309.027259 219.598409 
" clip-path="url(#p9c2f6a7202)" style="fill: none; stroke: #000000; stroke-opacity: 0.4"/>
    <path d="M 323.164831 129.375287 
L 376.454422 190.601277 
" clip-path="url(#p9c2f6a7202)" style="fill: none; stroke: #000000; stroke-opacity: 0.4"/>
    <path d="M 323.164831 129.375287 
L 310.329759 160.359576 
" clip-path="url(#p9c2f6a7202)" style="fill: none; stroke: #000000; stroke-opacity: 0.4"/>
    <path d="M 323.164831 129.375287 
L 513.209398 159.514242 
" clip-path="url(#p9c2f6a7202)" style="fill: none; stroke: #000000; stroke-opacity: 0.4"/>
    <path d="M 323.164831 129.375287 
L 323.011386 77.568204 
" clip-path="url(#p9c2f6a7202)" style="fill: none; stroke: #000000; stroke-opacity: 0.4"/>
    <path d="M 323.164831 129.375287 
L 359.864694 71.972634 
" clip-path="url(#p9c2f6a7202)" style="fill: none; stroke: #000000; stroke-opacity: 0.4"/>
    <path d="M 323.164831 129.375287 
L 159.208087 90.327744 
" clip-path="url(#p9c2f6a7202)" style="fill: none; stroke: #000000; stroke-opacity: 0.4"/>
    <path d="M 323.164831 129.375287 
L 181.66949 52.352826 
" clip-path="url(#p9c2f6a7202)" style="fill: none; stroke: #000000; stroke-opacity: 0.4"/>
    <path d="M 323.164831 129.375287 
L 251.415489 62.314422 
" clip-path="url(#p9c2f6a7202)" style="fill: none; stroke: #000000; stroke-opacity: 0.4"/>
    <path d="M 323.164831 129.375287 
L 403.313265 294.951174 
" clip-path="url(#p9c2f6a7202)" style="fill: none; stroke: #000000; stroke-opacity: 0.4"/>
    <path d="M 323.164831 129.375287 
L 520.029174 55.281259 
" clip-path="url(#p9c2f6a7202)" style="fill: none; stroke: #000000; stroke-opacity: 0.4"/>
    <path d="M 323.164831 129.375287 
L 158.295646 226.231919 
" clip-path="url(#p9c2f6a7202)" style="fill: none; stroke: #000000; stroke-opacity: 0.4"/>
    <path d="M 264.164116 147.85951 
L 423.476588 139.231381 
" clip-path="url(#p9c2f6a7202)" style="fill: none; stroke: #000000; stroke-opacity: 0.4"/>
    <path d="M 264.164116 147.85951 
L 172.783665 139.237901 
" clip-path="url(#p9c2f6a7202)" style="fill: none; stroke: #000000; stroke-opacity: 0.4"/>
    <path d="M 264.164116 147.85951 
L 430.082481 173.050798 
" clip-path="url(#p9c2f6a7202)" style="fill: none; stroke: #000000; stroke-opacity: 0.4"/>
    <path d="M 264.164116 147.85951 
L 376.454422 190.601277 
" clip-path="url(#p9c2f6a7202)" style="fill: none; stroke: #000000; stroke-opacity: 0.4"/>
    <path d="M 264.164116 147.85951 
L 513.209398 159.514242 
" clip-path="url(#p9c2f6a7202)" style="fill: none; stroke: #000000; stroke-opacity: 0.4"/>
    <path d="M 264.164116 147.85951 
L 323.011386 77.568204 
" clip-path="url(#p9c2f6a7202)" style="fill: none; stroke: #000000; stroke-opacity: 0.4"/>
    <path d="M 264.164116 147.85951 
L 359.864694 71.972634 
" clip-path="url(#p9c2f6a7202)" style="fill: none; stroke: #000000; stroke-opacity: 0.4"/>
    <path d="M 264.164116 147.85951 
L 159.208087 90.327744 
" clip-path="url(#p9c2f6a7202)" style="fill: none; stroke: #000000; stroke-opacity: 0.4"/>
    <path d="M 264.164116 147.85951 
L 181.66949 52.352826 
" clip-path="url(#p9c2f6a7202)" style="fill: none; stroke: #000000; stroke-opacity: 0.4"/>
    <path d="M 264.164116 147.85951 
L 251.415489 62.314422 
" clip-path="url(#p9c2f6a7202)" style="fill: none; stroke: #000000; stroke-opacity: 0.4"/>
    <path d="M 264.164116 147.85951 
L 403.313265 294.951174 
" clip-path="url(#p9c2f6a7202)" style="fill: none; stroke: #000000; stroke-opacity: 0.4"/>
    <path d="M 264.164116 147.85951 
L 221.395084 164.149852 
" clip-path="url(#p9c2f6a7202)" style="fill: none; stroke: #000000; stroke-opacity: 0.4"/>
    <path d="M 264.164116 147.85951 
L 240.125545 208.801602 
" clip-path="url(#p9c2f6a7202)" style="fill: none; stroke: #000000; stroke-opacity: 0.4"/>
    <path d="M 264.164116 147.85951 
L 309.027259 219.598409 
" clip-path="url(#p9c2f6a7202)" style="fill: none; stroke: #000000; stroke-opacity: 0.4"/>
    <path d="M 264.164116 147.85951 
L 310.329759 160.359576 
" clip-path="url(#p9c2f6a7202)" style="fill: none; stroke: #000000; stroke-opacity: 0.4"/>
    <path d="M 264.164116 147.85951 
L 89.830826 158.292506 
" clip-path="url(#p9c2f6a7202)" style="fill: none; stroke: #000000; stroke-opacity: 0.4"/>
    <path d="M 264.164116 147.85951 
L 158.295646 226.231919 
" clip-path="url(#p9c2f6a7202)" style="fill: none; stroke: #000000; stroke-opacity: 0.4"/>
    <path d="M 423.476588 139.231381 
L 172.783665 139.237901 
" clip-path="url(#p9c2f6a7202)" style="fill: none; stroke: #000000; stroke-opacity: 0.4"/>
    <path d="M 423.476588 139.231381 
L 240.125545 208.801602 
" clip-path="url(#p9c2f6a7202)" style="fill: none; stroke: #000000; stroke-opacity: 0.4"/>
    <path d="M 423.476588 139.231381 
L 430.082481 173.050798 
" clip-path="url(#p9c2f6a7202)" style="fill: none; stroke: #000000; stroke-opacity: 0.4"/>
    <path d="M 423.476588 139.231381 
L 309.027259 219.598409 
" clip-path="url(#p9c2f6a7202)" style="fill: none; stroke: #000000; stroke-opacity: 0.4"/>
    <path d="M 423.476588 139.231381 
L 376.454422 190.601277 
" clip-path="url(#p9c2f6a7202)" style="fill: none; stroke: #000000; stroke-opacity: 0.4"/>
    <path d="M 423.476588 139.231381 
L 513.209398 159.514242 
" clip-path="url(#p9c2f6a7202)" style="fill: none; stroke: #000000; stroke-opacity: 0.4"/>
    <path d="M 423.476588 139.231381 
L 323.011386 77.568204 
" clip-path="url(#p9c2f6a7202)" style="fill: none; stroke: #000000; stroke-opacity: 0.4"/>
    <path d="M 423.476588 139.231381 
L 403.313265 294.951174 
" clip-path="url(#p9c2f6a7202)" style="fill: none; stroke: #000000; stroke-opacity: 0.4"/>
    <path d="M 423.476588 139.231381 
L 520.029174 55.281259 
" clip-path="url(#p9c2f6a7202)" style="fill: none; stroke: #000000; stroke-opacity: 0.4"/>
    <path d="M 423.476588 139.231381 
L 89.830826 158.292506 
" clip-path="url(#p9c2f6a7202)" style="fill: none; stroke: #000000; stroke-opacity: 0.4"/>
    <path d="M 423.476588 139.231381 
L 310.329759 160.359576 
" clip-path="url(#p9c2f6a7202)" style="fill: none; stroke: #000000; stroke-opacity: 0.4"/>
    <path d="M 423.476588 139.231381 
L 359.864694 71.972634 
" clip-path="url(#p9c2f6a7202)" style="fill: none; stroke: #000000; stroke-opacity: 0.4"/>
    <path d="M 423.476588 139.231381 
L 159.208087 90.327744 
" clip-path="url(#p9c2f6a7202)" style="fill: none; stroke: #000000; stroke-opacity: 0.4"/>
    <path d="M 423.476588 139.231381 
L 251.415489 62.314422 
" clip-path="url(#p9c2f6a7202)" style="fill: none; stroke: #000000; stroke-opacity: 0.4"/>
    <path d="M 423.476588 139.231381 
L 158.295646 226.231919 
" clip-path="url(#p9c2f6a7202)" style="fill: none; stroke: #000000; stroke-opacity: 0.4"/>
    <path d="M 221.395084 164.149852 
L 309.027259 219.598409 
" clip-path="url(#p9c2f6a7202)" style="fill: none; stroke: #000000; stroke-opacity: 0.4"/>
    <path d="M 221.395084 164.149852 
L 376.454422 190.601277 
" clip-path="url(#p9c2f6a7202)" style="fill: none; stroke: #000000; stroke-opacity: 0.4"/>
    <path d="M 221.395084 164.149852 
L 310.329759 160.359576 
" clip-path="url(#p9c2f6a7202)" style="fill: none; stroke: #000000; stroke-opacity: 0.4"/>
    <path d="M 221.395084 164.149852 
L 181.66949 52.352826 
" clip-path="url(#p9c2f6a7202)" style="fill: none; stroke: #000000; stroke-opacity: 0.4"/>
    <path d="M 221.395084 164.149852 
L 172.783665 139.237901 
" clip-path="url(#p9c2f6a7202)" style="fill: none; stroke: #000000; stroke-opacity: 0.4"/>
    <path d="M 221.395084 164.149852 
L 240.125545 208.801602 
" clip-path="url(#p9c2f6a7202)" style="fill: none; stroke: #000000; stroke-opacity: 0.4"/>
    <path d="M 221.395084 164.149852 
L 323.011386 77.568204 
" clip-path="url(#p9c2f6a7202)" style="fill: none; stroke: #000000; stroke-opacity: 0.4"/>
    <path d="M 221.395084 164.149852 
L 89.830826 158.292506 
" clip-path="url(#p9c2f6a7202)" style="fill: none; stroke: #000000; stroke-opacity: 0.4"/>
    <path d="M 221.395084 164.149852 
L 158.295646 226.231919 
" clip-path="url(#p9c2f6a7202)" style="fill: none; stroke: #000000; stroke-opacity: 0.4"/>
    <path d="M 172.783665 139.237901 
L 376.454422 190.601277 
" clip-path="url(#p9c2f6a7202)" style="fill: none; stroke: #000000; stroke-opacity: 0.4"/>
    <path d="M 172.783665 139.237901 
L 310.329759 160.359576 
" clip-path="url(#p9c2f6a7202)" style="fill: none; stroke: #000000; stroke-opacity: 0.4"/>
    <path d="M 172.783665 139.237901 
L 323.011386 77.568204 
" clip-path="url(#p9c2f6a7202)" style="fill: none; stroke: #000000; stroke-opacity: 0.4"/>
    <path d="M 172.783665 139.237901 
L 359.864694 71.972634 
" clip-path="url(#p9c2f6a7202)" style="fill: none; stroke: #000000; stroke-opacity: 0.4"/>
    <path d="M 172.783665 139.237901 
L 159.208087 90.327744 
" clip-path="url(#p9c2f6a7202)" style="fill: none; stroke: #000000; stroke-opacity: 0.4"/>
    <path d="M 172.783665 139.237901 
L 181.66949 52.352826 
" clip-path="url(#p9c2f6a7202)" style="fill: none; stroke: #000000; stroke-opacity: 0.4"/>
    <path d="M 172.783665 139.237901 
L 89.830826 158.292506 
" clip-path="url(#p9c2f6a7202)" style="fill: none; stroke: #000000; stroke-opacity: 0.4"/>
    <path d="M 172.783665 139.237901 
L 158.295646 226.231919 
" clip-path="url(#p9c2f6a7202)" style="fill: none; stroke: #000000; stroke-opacity: 0.4"/>
    <path d="M 172.783665 139.237901 
L 251.415489 62.314422 
" clip-path="url(#p9c2f6a7202)" style="fill: none; stroke: #000000; stroke-opacity: 0.4"/>
    <path d="M 172.783665 139.237901 
L 403.313265 294.951174 
" clip-path="url(#p9c2f6a7202)" style="fill: none; stroke: #000000; stroke-opacity: 0.4"/>
    <path d="M 240.125545 208.801602 
L 430.082481 173.050798 
" clip-path="url(#p9c2f6a7202)" style="fill: none; stroke: #000000; stroke-opacity: 0.4"/>
    <path d="M 240.125545 208.801602 
L 309.027259 219.598409 
" clip-path="url(#p9c2f6a7202)" style="fill: none; stroke: #000000; stroke-opacity: 0.4"/>
    <path d="M 240.125545 208.801602 
L 376.454422 190.601277 
" clip-path="url(#p9c2f6a7202)" style="fill: none; stroke: #000000; stroke-opacity: 0.4"/>
    <path d="M 240.125545 208.801602 
L 310.329759 160.359576 
" clip-path="url(#p9c2f6a7202)" style="fill: none; stroke: #000000; stroke-opacity: 0.4"/>
    <path d="M 240.125545 208.801602 
L 513.209398 159.514242 
" clip-path="url(#p9c2f6a7202)" style="fill: none; stroke: #000000; stroke-opacity: 0.4"/>
    <path d="M 240.125545 208.801602 
L 323.011386 77.568204 
" clip-path="url(#p9c2f6a7202)" style="fill: none; stroke: #000000; stroke-opacity: 0.4"/>
    <path d="M 240.125545 208.801602 
L 181.66949 52.352826 
" clip-path="url(#p9c2f6a7202)" style="fill: none; stroke: #000000; stroke-opacity: 0.4"/>
    <path d="M 240.125545 208.801602 
L 251.415489 62.314422 
" clip-path="url(#p9c2f6a7202)" style="fill: none; stroke: #000000; stroke-opacity: 0.4"/>
    <path d="M 240.125545 208.801602 
L 403.313265 294.951174 
" clip-path="url(#p9c2f6a7202)" style="fill: none; stroke: #000000; stroke-opacity: 0.4"/>
    <path d="M 240.125545 208.801602 
L 520.029174 55.281259 
" clip-path="url(#p9c2f6a7202)" style="fill: none; stroke: #000000; stroke-opacity: 0.4"/>
    <path d="M 240.125545 208.801602 
L 89.830826 158.292506 
" clip-path="url(#p9c2f6a7202)" style="fill: none; stroke: #000000; stroke-opacity: 0.4"/>
    <path d="M 240.125545 208.801602 
L 158.295646 226.231919 
" clip-path="url(#p9c2f6a7202)" style="fill: none; stroke: #000000; stroke-opacity: 0.4"/>
    <path d="M 430.082481 173.050798 
L 376.454422 190.601277 
" clip-path="url(#p9c2f6a7202)" style="fill: none; stroke: #000000; stroke-opacity: 0.4"/>
    <path d="M 430.082481 173.050798 
L 513.209398 159.514242 
" clip-path="url(#p9c2f6a7202)" style="fill: none; stroke: #000000; stroke-opacity: 0.4"/>
    <path d="M 430.082481 173.050798 
L 323.011386 77.568204 
" clip-path="url(#p9c2f6a7202)" style="fill: none; stroke: #000000; stroke-opacity: 0.4"/>
    <path d="M 430.082481 173.050798 
L 403.313265 294.951174 
" clip-path="url(#p9c2f6a7202)" style="fill: none; stroke: #000000; stroke-opacity: 0.4"/>
    <path d="M 430.082481 173.050798 
L 520.029174 55.281259 
" clip-path="url(#p9c2f6a7202)" style="fill: none; stroke: #000000; stroke-opacity: 0.4"/>
    <path d="M 430.082481 173.050798 
L 309.027259 219.598409 
" clip-path="url(#p9c2f6a7202)" style="fill: none; stroke: #000000; stroke-opacity: 0.4"/>
    <path d="M 430.082481 173.050798 
L 310.329759 160.359576 
" clip-path="url(#p9c2f6a7202)" style="fill: none; stroke: #000000; stroke-opacity: 0.4"/>
    <path d="M 309.027259 219.598409 
L 310.329759 160.359576 
" clip-path="url(#p9c2f6a7202)" style="fill: none; stroke: #000000; stroke-opacity: 0.4"/>
    <path d="M 309.027259 219.598409 
L 513.209398 159.514242 
" clip-path="url(#p9c2f6a7202)" style="fill: none; stroke: #000000; stroke-opacity: 0.4"/>
    <path d="M 309.027259 219.598409 
L 359.864694 71.972634 
" clip-path="url(#p9c2f6a7202)" style="fill: none; stroke: #000000; stroke-opacity: 0.4"/>
    <path d="M 309.027259 219.598409 
L 251.415489 62.314422 
" clip-path="url(#p9c2f6a7202)" style="fill: none; stroke: #000000; stroke-opacity: 0.4"/>
    <path d="M 309.027259 219.598409 
L 403.313265 294.951174 
" clip-path="url(#p9c2f6a7202)" style="fill: none; stroke: #000000; stroke-opacity: 0.4"/>
    <path d="M 309.027259 219.598409 
L 323.011386 77.568204 
" clip-path="url(#p9c2f6a7202)" style="fill: none; stroke: #000000; stroke-opacity: 0.4"/>
    <path d="M 376.454422 190.601277 
L 310.329759 160.359576 
" clip-path="url(#p9c2f6a7202)" style="fill: none; stroke: #000000; stroke-opacity: 0.4"/>
    <path d="M 376.454422 190.601277 
L 513.209398 159.514242 
" clip-path="url(#p9c2f6a7202)" style="fill: none; stroke: #000000; stroke-opacity: 0.4"/>
    <path d="M 376.454422 190.601277 
L 323.011386 77.568204 
" clip-path="url(#p9c2f6a7202)" style="fill: none; stroke: #000000; stroke-opacity: 0.4"/>
    <path d="M 376.454422 190.601277 
L 159.208087 90.327744 
" clip-path="url(#p9c2f6a7202)" style="fill: none; stroke: #000000; stroke-opacity: 0.4"/>
    <path d="M 376.454422 190.601277 
L 251.415489 62.314422 
" clip-path="url(#p9c2f6a7202)" style="fill: none; stroke: #000000; stroke-opacity: 0.4"/>
    <path d="M 376.454422 190.601277 
L 403.313265 294.951174 
" clip-path="url(#p9c2f6a7202)" style="fill: none; stroke: #000000; stroke-opacity: 0.4"/>
    <path d="M 376.454422 190.601277 
L 520.029174 55.281259 
" clip-path="url(#p9c2f6a7202)" style="fill: none; stroke: #000000; stroke-opacity: 0.4"/>
    <path d="M 310.329759 160.359576 
L 513.209398 159.514242 
" clip-path="url(#p9c2f6a7202)" style="fill: none; stroke: #000000; stroke-opacity: 0.4"/>
    <path d="M 310.329759 160.359576 
L 251.415489 62.314422 
" clip-path="url(#p9c2f6a7202)" style="fill: none; stroke: #000000; stroke-opacity: 0.4"/>
    <path d="M 310.329759 160.359576 
L 403.313265 294.951174 
" clip-path="url(#p9c2f6a7202)" style="fill: none; stroke: #000000; stroke-opacity: 0.4"/>
    <path d="M 310.329759 160.359576 
L 323.011386 77.568204 
" clip-path="url(#p9c2f6a7202)" style="fill: none; stroke: #000000; stroke-opacity: 0.4"/>
    <path d="M 310.329759 160.359576 
L 359.864694 71.972634 
" clip-path="url(#p9c2f6a7202)" style="fill: none; stroke: #000000; stroke-opacity: 0.4"/>
    <path d="M 310.329759 160.359576 
L 181.66949 52.352826 
" clip-path="url(#p9c2f6a7202)" style="fill: none; stroke: #000000; stroke-opacity: 0.4"/>
    <path d="M 310.329759 160.359576 
L 158.295646 226.231919 
" clip-path="url(#p9c2f6a7202)" style="fill: none; stroke: #000000; stroke-opacity: 0.4"/>
    <path d="M 513.209398 159.514242 
L 323.011386 77.568204 
" clip-path="url(#p9c2f6a7202)" style="fill: none; stroke: #000000; stroke-opacity: 0.4"/>
    <path d="M 513.209398 159.514242 
L 403.313265 294.951174 
" clip-path="url(#p9c2f6a7202)" style="fill: none; stroke: #000000; stroke-opacity: 0.4"/>
    <path d="M 323.011386 77.568204 
L 159.208087 90.327744 
" clip-path="url(#p9c2f6a7202)" style="fill: none; stroke: #000000; stroke-opacity: 0.4"/>
    <path d="M 323.011386 77.568204 
L 181.66949 52.352826 
" clip-path="url(#p9c2f6a7202)" style="fill: none; stroke: #000000; stroke-opacity: 0.4"/>
    <path d="M 323.011386 77.568204 
L 403.313265 294.951174 
" clip-path="url(#p9c2f6a7202)" style="fill: none; stroke: #000000; stroke-opacity: 0.4"/>
    <path d="M 323.011386 77.568204 
L 520.029174 55.281259 
" clip-path="url(#p9c2f6a7202)" style="fill: none; stroke: #000000; stroke-opacity: 0.4"/>
    <path d="M 323.011386 77.568204 
L 158.295646 226.231919 
" clip-path="url(#p9c2f6a7202)" style="fill: none; stroke: #000000; stroke-opacity: 0.4"/>
    <path d="M 359.864694 71.972634 
L 251.415489 62.314422 
" clip-path="url(#p9c2f6a7202)" style="fill: none; stroke: #000000; stroke-opacity: 0.4"/>
    <path d="M 159.208087 90.327744 
L 158.295646 226.231919 
" clip-path="url(#p9c2f6a7202)" style="fill: none; stroke: #000000; stroke-opacity: 0.4"/>
    <path d="M 181.66949 52.352826 
L 251.415489 62.314422 
" clip-path="url(#p9c2f6a7202)" style="fill: none; stroke: #000000; stroke-opacity: 0.4"/>
    <path d="M 181.66949 52.352826 
L 89.830826 158.292506 
" clip-path="url(#p9c2f6a7202)" style="fill: none; stroke: #000000; stroke-opacity: 0.4"/>
    <path d="M 520.029174 55.281259 
L 158.295646 226.231919 
" clip-path="url(#p9c2f6a7202)" style="fill: none; stroke: #000000; stroke-opacity: 0.4"/>
   </g>
   <g id="PathCollection_1">
    <defs>
     <path id="m16b0dc89a5" d="M 0 2.236068 
C 0.593012 2.236068 1.161816 2.000462 1.581139 1.581139 
C 2.000462 1.161816 2.236068 0.593012 2.236068 0 
C 2.236068 -0.593012 2.000462 -1.161816 1.581139 -1.581139 
C 1.161816 -2.000462 0.593012 -2.236068 0 -2.236068 
C -0.593012 -2.236068 -1.161816 -2.000462 -1.581139 -1.581139 
C -2.000462 -1.161816 -2.236068 -0.593012 -2.236068 0 
C -2.236068 0.593012 -2.000462 1.161816 -1.581139 1.581139 
C -1.161816 2.000462 -0.593012 2.236068 0 2.236068 
z
" style="stroke: #1f78b4"/>
    </defs>
    <g clip-path="url(#p9c2f6a7202)">
     <use xlink:href="#m16b0dc89a5" x="279.000388" y="132.155302" style="fill: #1f78b4; stroke: #1f78b4"/>
     <use xlink:href="#m16b0dc89a5" x="244.805503" y="130.545756" style="fill: #1f78b4; stroke: #1f78b4"/>
     <use xlink:href="#m16b0dc89a5" x="323.164831" y="129.375287" style="fill: #1f78b4; stroke: #1f78b4"/>
     <use xlink:href="#m16b0dc89a5" x="264.164116" y="147.85951" style="fill: #1f78b4; stroke: #1f78b4"/>
     <use xlink:href="#m16b0dc89a5" x="423.476588" y="139.231381" style="fill: #1f78b4; stroke: #1f78b4"/>
     <use xlink:href="#m16b0dc89a5" x="221.395084" y="164.149852" style="fill: #1f78b4; stroke: #1f78b4"/>
     <use xlink:href="#m16b0dc89a5" x="172.783665" y="139.237901" style="fill: #1f78b4; stroke: #1f78b4"/>
     <use xlink:href="#m16b0dc89a5" x="240.125545" y="208.801602" style="fill: #1f78b4; stroke: #1f78b4"/>
     <use xlink:href="#m16b0dc89a5" x="430.082481" y="173.050798" style="fill: #1f78b4; stroke: #1f78b4"/>
     <use xlink:href="#m16b0dc89a5" x="309.027259" y="219.598409" style="fill: #1f78b4; stroke: #1f78b4"/>
     <use xlink:href="#m16b0dc89a5" x="376.454422" y="190.601277" style="fill: #1f78b4; stroke: #1f78b4"/>
     <use xlink:href="#m16b0dc89a5" x="310.329759" y="160.359576" style="fill: #1f78b4; stroke: #1f78b4"/>
     <use xlink:href="#m16b0dc89a5" x="513.209398" y="159.514242" style="fill: #1f78b4; stroke: #1f78b4"/>
     <use xlink:href="#m16b0dc89a5" x="323.011386" y="77.568204" style="fill: #1f78b4; stroke: #1f78b4"/>
     <use xlink:href="#m16b0dc89a5" x="359.864694" y="71.972634" style="fill: #1f78b4; stroke: #1f78b4"/>
     <use xlink:href="#m16b0dc89a5" x="159.208087" y="90.327744" style="fill: #1f78b4; stroke: #1f78b4"/>
     <use xlink:href="#m16b0dc89a5" x="181.66949" y="52.352826" style="fill: #1f78b4; stroke: #1f78b4"/>
     <use xlink:href="#m16b0dc89a5" x="251.415489" y="62.314422" style="fill: #1f78b4; stroke: #1f78b4"/>
     <use xlink:href="#m16b0dc89a5" x="403.313265" y="294.951174" style="fill: #1f78b4; stroke: #1f78b4"/>
     <use xlink:href="#m16b0dc89a5" x="520.029174" y="55.281259" style="fill: #1f78b4; stroke: #1f78b4"/>
     <use xlink:href="#m16b0dc89a5" x="89.830826" y="158.292506" style="fill: #1f78b4; stroke: #1f78b4"/>
     <use xlink:href="#m16b0dc89a5" x="158.295646" y="226.231919" style="fill: #1f78b4; stroke: #1f78b4"/>
    </g>
   </g>
   <g id="text_1">
    <!-- Connected components of Control_6-8 -->
    <g transform="translate(189.56125 20.88) scale(0.12 -0.12)">
     <defs>
      <path id="DejaVuSans-43" d="M 4122 4306 
L 4122 3641 
Q 3803 3938 3442 4084 
Q 3081 4231 2675 4231 
Q 1875 4231 1450 3742 
Q 1025 3253 1025 2328 
Q 1025 1406 1450 917 
Q 1875 428 2675 428 
Q 3081 428 3442 575 
Q 3803 722 4122 1019 
L 4122 359 
Q 3791 134 3420 21 
Q 3050 -91 2638 -91 
Q 1578 -91 968 557 
Q 359 1206 359 2328 
Q 359 3453 968 4101 
Q 1578 4750 2638 4750 
Q 3056 4750 3426 4639 
Q 3797 4528 4122 4306 
z
" transform="scale(0.015625)"/>
      <path id="DejaVuSans-6f" d="M 1959 3097 
Q 1497 3097 1228 2736 
Q 959 2375 959 1747 
Q 959 1119 1226 758 
Q 1494 397 1959 397 
Q 2419 397 2687 759 
Q 2956 1122 2956 1747 
Q 2956 2369 2687 2733 
Q 2419 3097 1959 3097 
z
M 1959 3584 
Q 2709 3584 3137 3096 
Q 3566 2609 3566 1747 
Q 3566 888 3137 398 
Q 2709 -91 1959 -91 
Q 1206 -91 779 398 
Q 353 888 353 1747 
Q 353 2609 779 3096 
Q 1206 3584 1959 3584 
z
" transform="scale(0.015625)"/>
      <path id="DejaVuSans-6e" d="M 3513 2113 
L 3513 0 
L 2938 0 
L 2938 2094 
Q 2938 2591 2744 2837 
Q 2550 3084 2163 3084 
Q 1697 3084 1428 2787 
Q 1159 2491 1159 1978 
L 1159 0 
L 581 0 
L 581 3500 
L 1159 3500 
L 1159 2956 
Q 1366 3272 1645 3428 
Q 1925 3584 2291 3584 
Q 2894 3584 3203 3211 
Q 3513 2838 3513 2113 
z
" transform="scale(0.015625)"/>
      <path id="DejaVuSans-65" d="M 3597 1894 
L 3597 1613 
L 953 1613 
Q 991 1019 1311 708 
Q 1631 397 2203 397 
Q 2534 397 2845 478 
Q 3156 559 3463 722 
L 3463 178 
Q 3153 47 2828 -22 
Q 2503 -91 2169 -91 
Q 1331 -91 842 396 
Q 353 884 353 1716 
Q 353 2575 817 3079 
Q 1281 3584 2069 3584 
Q 2775 3584 3186 3129 
Q 3597 2675 3597 1894 
z
M 3022 2063 
Q 3016 2534 2758 2815 
Q 2500 3097 2075 3097 
Q 1594 3097 1305 2825 
Q 1016 2553 972 2059 
L 3022 2063 
z
" transform="scale(0.015625)"/>
      <path id="DejaVuSans-63" d="M 3122 3366 
L 3122 2828 
Q 2878 2963 2633 3030 
Q 2388 3097 2138 3097 
Q 1578 3097 1268 2742 
Q 959 2388 959 1747 
Q 959 1106 1268 751 
Q 1578 397 2138 397 
Q 2388 397 2633 464 
Q 2878 531 3122 666 
L 3122 134 
Q 2881 22 2623 -34 
Q 2366 -91 2075 -91 
Q 1284 -91 818 406 
Q 353 903 353 1747 
Q 353 2603 823 3093 
Q 1294 3584 2113 3584 
Q 2378 3584 2631 3529 
Q 2884 3475 3122 3366 
z
" transform="scale(0.015625)"/>
      <path id="DejaVuSans-74" d="M 1172 4494 
L 1172 3500 
L 2356 3500 
L 2356 3053 
L 1172 3053 
L 1172 1153 
Q 1172 725 1289 603 
Q 1406 481 1766 481 
L 2356 481 
L 2356 0 
L 1766 0 
Q 1100 0 847 248 
Q 594 497 594 1153 
L 594 3053 
L 172 3053 
L 172 3500 
L 594 3500 
L 594 4494 
L 1172 4494 
z
" transform="scale(0.015625)"/>
      <path id="DejaVuSans-64" d="M 2906 2969 
L 2906 4863 
L 3481 4863 
L 3481 0 
L 2906 0 
L 2906 525 
Q 2725 213 2448 61 
Q 2172 -91 1784 -91 
Q 1150 -91 751 415 
Q 353 922 353 1747 
Q 353 2572 751 3078 
Q 1150 3584 1784 3584 
Q 2172 3584 2448 3432 
Q 2725 3281 2906 2969 
z
M 947 1747 
Q 947 1113 1208 752 
Q 1469 391 1925 391 
Q 2381 391 2643 752 
Q 2906 1113 2906 1747 
Q 2906 2381 2643 2742 
Q 2381 3103 1925 3103 
Q 1469 3103 1208 2742 
Q 947 2381 947 1747 
z
" transform="scale(0.015625)"/>
      <path id="DejaVuSans-20" transform="scale(0.015625)"/>
      <path id="DejaVuSans-6d" d="M 3328 2828 
Q 3544 3216 3844 3400 
Q 4144 3584 4550 3584 
Q 5097 3584 5394 3201 
Q 5691 2819 5691 2113 
L 5691 0 
L 5113 0 
L 5113 2094 
Q 5113 2597 4934 2840 
Q 4756 3084 4391 3084 
Q 3944 3084 3684 2787 
Q 3425 2491 3425 1978 
L 3425 0 
L 2847 0 
L 2847 2094 
Q 2847 2600 2669 2842 
Q 2491 3084 2119 3084 
Q 1678 3084 1418 2786 
Q 1159 2488 1159 1978 
L 1159 0 
L 581 0 
L 581 3500 
L 1159 3500 
L 1159 2956 
Q 1356 3278 1631 3431 
Q 1906 3584 2284 3584 
Q 2666 3584 2933 3390 
Q 3200 3197 3328 2828 
z
" transform="scale(0.015625)"/>
      <path id="DejaVuSans-70" d="M 1159 525 
L 1159 -1331 
L 581 -1331 
L 581 3500 
L 1159 3500 
L 1159 2969 
Q 1341 3281 1617 3432 
Q 1894 3584 2278 3584 
Q 2916 3584 3314 3078 
Q 3713 2572 3713 1747 
Q 3713 922 3314 415 
Q 2916 -91 2278 -91 
Q 1894 -91 1617 61 
Q 1341 213 1159 525 
z
M 3116 1747 
Q 3116 2381 2855 2742 
Q 2594 3103 2138 3103 
Q 1681 3103 1420 2742 
Q 1159 2381 1159 1747 
Q 1159 1113 1420 752 
Q 1681 391 2138 391 
Q 2594 391 2855 752 
Q 3116 1113 3116 1747 
z
" transform="scale(0.015625)"/>
      <path id="DejaVuSans-73" d="M 2834 3397 
L 2834 2853 
Q 2591 2978 2328 3040 
Q 2066 3103 1784 3103 
Q 1356 3103 1142 2972 
Q 928 2841 928 2578 
Q 928 2378 1081 2264 
Q 1234 2150 1697 2047 
L 1894 2003 
Q 2506 1872 2764 1633 
Q 3022 1394 3022 966 
Q 3022 478 2636 193 
Q 2250 -91 1575 -91 
Q 1294 -91 989 -36 
Q 684 19 347 128 
L 347 722 
Q 666 556 975 473 
Q 1284 391 1588 391 
Q 1994 391 2212 530 
Q 2431 669 2431 922 
Q 2431 1156 2273 1281 
Q 2116 1406 1581 1522 
L 1381 1569 
Q 847 1681 609 1914 
Q 372 2147 372 2553 
Q 372 3047 722 3315 
Q 1072 3584 1716 3584 
Q 2034 3584 2315 3537 
Q 2597 3491 2834 3397 
z
" transform="scale(0.015625)"/>
      <path id="DejaVuSans-66" d="M 2375 4863 
L 2375 4384 
L 1825 4384 
Q 1516 4384 1395 4259 
Q 1275 4134 1275 3809 
L 1275 3500 
L 2222 3500 
L 2222 3053 
L 1275 3053 
L 1275 0 
L 697 0 
L 697 3053 
L 147 3053 
L 147 3500 
L 697 3500 
L 697 3744 
Q 697 4328 969 4595 
Q 1241 4863 1831 4863 
L 2375 4863 
z
" transform="scale(0.015625)"/>
      <path id="DejaVuSans-72" d="M 2631 2963 
Q 2534 3019 2420 3045 
Q 2306 3072 2169 3072 
Q 1681 3072 1420 2755 
Q 1159 2438 1159 1844 
L 1159 0 
L 581 0 
L 581 3500 
L 1159 3500 
L 1159 2956 
Q 1341 3275 1631 3429 
Q 1922 3584 2338 3584 
Q 2397 3584 2469 3576 
Q 2541 3569 2628 3553 
L 2631 2963 
z
" transform="scale(0.015625)"/>
      <path id="DejaVuSans-6c" d="M 603 4863 
L 1178 4863 
L 1178 0 
L 603 0 
L 603 4863 
z
" transform="scale(0.015625)"/>
      <path id="DejaVuSans-5f" d="M 3263 -1063 
L 3263 -1509 
L -63 -1509 
L -63 -1063 
L 3263 -1063 
z
" transform="scale(0.015625)"/>
      <path id="DejaVuSans-36" d="M 2113 2584 
Q 1688 2584 1439 2293 
Q 1191 2003 1191 1497 
Q 1191 994 1439 701 
Q 1688 409 2113 409 
Q 2538 409 2786 701 
Q 3034 994 3034 1497 
Q 3034 2003 2786 2293 
Q 2538 2584 2113 2584 
z
M 3366 4563 
L 3366 3988 
Q 3128 4100 2886 4159 
Q 2644 4219 2406 4219 
Q 1781 4219 1451 3797 
Q 1122 3375 1075 2522 
Q 1259 2794 1537 2939 
Q 1816 3084 2150 3084 
Q 2853 3084 3261 2657 
Q 3669 2231 3669 1497 
Q 3669 778 3244 343 
Q 2819 -91 2113 -91 
Q 1303 -91 875 529 
Q 447 1150 447 2328 
Q 447 3434 972 4092 
Q 1497 4750 2381 4750 
Q 2619 4750 2861 4703 
Q 3103 4656 3366 4563 
z
" transform="scale(0.015625)"/>
      <path id="DejaVuSans-2d" d="M 313 2009 
L 1997 2009 
L 1997 1497 
L 313 1497 
L 313 2009 
z
" transform="scale(0.015625)"/>
      <path id="DejaVuSans-38" d="M 2034 2216 
Q 1584 2216 1326 1975 
Q 1069 1734 1069 1313 
Q 1069 891 1326 650 
Q 1584 409 2034 409 
Q 2484 409 2743 651 
Q 3003 894 3003 1313 
Q 3003 1734 2745 1975 
Q 2488 2216 2034 2216 
z
M 1403 2484 
Q 997 2584 770 2862 
Q 544 3141 544 3541 
Q 544 4100 942 4425 
Q 1341 4750 2034 4750 
Q 2731 4750 3128 4425 
Q 3525 4100 3525 3541 
Q 3525 3141 3298 2862 
Q 3072 2584 2669 2484 
Q 3125 2378 3379 2068 
Q 3634 1759 3634 1313 
Q 3634 634 3220 271 
Q 2806 -91 2034 -91 
Q 1263 -91 848 271 
Q 434 634 434 1313 
Q 434 1759 690 2068 
Q 947 2378 1403 2484 
z
M 1172 3481 
Q 1172 3119 1398 2916 
Q 1625 2713 2034 2713 
Q 2441 2713 2670 2916 
Q 2900 3119 2900 3481 
Q 2900 3844 2670 4047 
Q 2441 4250 2034 4250 
Q 1625 4250 1398 4047 
Q 1172 3844 1172 3481 
z
" transform="scale(0.015625)"/>
     </defs>
     <use xlink:href="#DejaVuSans-43"/>
     <use xlink:href="#DejaVuSans-6f" x="69.824219"/>
     <use xlink:href="#DejaVuSans-6e" x="131.005859"/>
     <use xlink:href="#DejaVuSans-6e" x="194.384766"/>
     <use xlink:href="#DejaVuSans-65" x="257.763672"/>
     <use xlink:href="#DejaVuSans-63" x="319.287109"/>
     <use xlink:href="#DejaVuSans-74" x="374.267578"/>
     <use xlink:href="#DejaVuSans-65" x="413.476562"/>
     <use xlink:href="#DejaVuSans-64" x="475"/>
     <use xlink:href="#DejaVuSans-20" x="538.476562"/>
     <use xlink:href="#DejaVuSans-63" x="570.263672"/>
     <use xlink:href="#DejaVuSans-6f" x="625.244141"/>
     <use xlink:href="#DejaVuSans-6d" x="686.425781"/>
     <use xlink:href="#DejaVuSans-70" x="783.837891"/>
     <use xlink:href="#DejaVuSans-6f" x="847.314453"/>
     <use xlink:href="#DejaVuSans-6e" x="908.496094"/>
     <use xlink:href="#DejaVuSans-65" x="971.875"/>
     <use xlink:href="#DejaVuSans-6e" x="1033.398438"/>
     <use xlink:href="#DejaVuSans-74" x="1096.777344"/>
     <use xlink:href="#DejaVuSans-73" x="1135.986328"/>
     <use xlink:href="#DejaVuSans-20" x="1188.085938"/>
     <use xlink:href="#DejaVuSans-6f" x="1219.873047"/>
     <use xlink:href="#DejaVuSans-66" x="1281.054688"/>
     <use xlink:href="#DejaVuSans-20" x="1316.259766"/>
     <use xlink:href="#DejaVuSans-43" x="1348.046875"/>
     <use xlink:href="#DejaVuSans-6f" x="1417.871094"/>
     <use xlink:href="#DejaVuSans-6e" x="1479.052734"/>
     <use xlink:href="#DejaVuSans-74" x="1542.431641"/>
     <use xlink:href="#DejaVuSans-72" x="1581.640625"/>
     <use xlink:href="#DejaVuSans-6f" x="1620.503906"/>
     <use xlink:href="#DejaVuSans-6c" x="1681.685547"/>
     <use xlink:href="#DejaVuSans-5f" x="1709.46875"/>
     <use xlink:href="#DejaVuSans-36" x="1759.46875"/>
     <use xlink:href="#DejaVuSans-2d" x="1823.091797"/>
     <use xlink:href="#DejaVuSans-38" x="1859.175781"/>
    </g>
   </g>
  </g>
  <g id="axes_2">
   <g id="patch_2">
    <path d="M 44.66 534.04 
L 281.07 534.04 
L 281.07 347.304 
L 44.66 347.304 
z
" style="fill: #ffffff"/>
   </g>
   <g id="matplotlib.axis_1">
    <g id="xtick_1">
     <g id="line2d_1">
      <defs>
       <path id="m3559eb3d6c" d="M 0 0 
L 0 3.5 
" style="stroke: #000000; stroke-width: 0.8"/>
      </defs>
      <g>
       <use xlink:href="#m3559eb3d6c" x="55.405909" y="534.04" style="stroke: #000000; stroke-width: 0.8"/>
      </g>
     </g>
     <g id="text_2">
      <!-- 0 -->
      <g transform="translate(52.224659 548.638437) scale(0.1 -0.1)">
       <defs>
        <path id="DejaVuSans-30" d="M 2034 4250 
Q 1547 4250 1301 3770 
Q 1056 3291 1056 2328 
Q 1056 1369 1301 889 
Q 1547 409 2034 409 
Q 2525 409 2770 889 
Q 3016 1369 3016 2328 
Q 3016 3291 2770 3770 
Q 2525 4250 2034 4250 
z
M 2034 4750 
Q 2819 4750 3233 4129 
Q 3647 3509 3647 2328 
Q 3647 1150 3233 529 
Q 2819 -91 2034 -91 
Q 1250 -91 836 529 
Q 422 1150 422 2328 
Q 422 3509 836 4129 
Q 1250 4750 2034 4750 
z
" transform="scale(0.015625)"/>
       </defs>
       <use xlink:href="#DejaVuSans-30"/>
      </g>
     </g>
    </g>
    <g id="xtick_2">
     <g id="line2d_2">
      <g>
       <use xlink:href="#m3559eb3d6c" x="106.576905" y="534.04" style="stroke: #000000; stroke-width: 0.8"/>
      </g>
     </g>
     <g id="text_3">
      <!-- 5 -->
      <g transform="translate(103.395655 548.638437) scale(0.1 -0.1)">
       <defs>
        <path id="DejaVuSans-35" d="M 691 4666 
L 3169 4666 
L 3169 4134 
L 1269 4134 
L 1269 2991 
Q 1406 3038 1543 3061 
Q 1681 3084 1819 3084 
Q 2600 3084 3056 2656 
Q 3513 2228 3513 1497 
Q 3513 744 3044 326 
Q 2575 -91 1722 -91 
Q 1428 -91 1123 -41 
Q 819 9 494 109 
L 494 744 
Q 775 591 1075 516 
Q 1375 441 1709 441 
Q 2250 441 2565 725 
Q 2881 1009 2881 1497 
Q 2881 1984 2565 2268 
Q 2250 2553 1709 2553 
Q 1456 2553 1204 2497 
Q 953 2441 691 2322 
L 691 4666 
z
" transform="scale(0.015625)"/>
       </defs>
       <use xlink:href="#DejaVuSans-35"/>
      </g>
     </g>
    </g>
    <g id="xtick_3">
     <g id="line2d_3">
      <g>
       <use xlink:href="#m3559eb3d6c" x="157.7479" y="534.04" style="stroke: #000000; stroke-width: 0.8"/>
      </g>
     </g>
     <g id="text_4">
      <!-- 10 -->
      <g transform="translate(151.3854 548.638437) scale(0.1 -0.1)">
       <defs>
        <path id="DejaVuSans-31" d="M 794 531 
L 1825 531 
L 1825 4091 
L 703 3866 
L 703 4441 
L 1819 4666 
L 2450 4666 
L 2450 531 
L 3481 531 
L 3481 0 
L 794 0 
L 794 531 
z
" transform="scale(0.015625)"/>
       </defs>
       <use xlink:href="#DejaVuSans-31"/>
       <use xlink:href="#DejaVuSans-30" x="63.623047"/>
      </g>
     </g>
    </g>
    <g id="xtick_4">
     <g id="line2d_4">
      <g>
       <use xlink:href="#m3559eb3d6c" x="208.918896" y="534.04" style="stroke: #000000; stroke-width: 0.8"/>
      </g>
     </g>
     <g id="text_5">
      <!-- 15 -->
      <g transform="translate(202.556396 548.638437) scale(0.1 -0.1)">
       <use xlink:href="#DejaVuSans-31"/>
       <use xlink:href="#DejaVuSans-35" x="63.623047"/>
      </g>
     </g>
    </g>
    <g id="xtick_5">
     <g id="line2d_5">
      <g>
       <use xlink:href="#m3559eb3d6c" x="260.089892" y="534.04" style="stroke: #000000; stroke-width: 0.8"/>
      </g>
     </g>
     <g id="text_6">
      <!-- 20 -->
      <g transform="translate(253.727392 548.638437) scale(0.1 -0.1)">
       <defs>
        <path id="DejaVuSans-32" d="M 1228 531 
L 3431 531 
L 3431 0 
L 469 0 
L 469 531 
Q 828 903 1448 1529 
Q 2069 2156 2228 2338 
Q 2531 2678 2651 2914 
Q 2772 3150 2772 3378 
Q 2772 3750 2511 3984 
Q 2250 4219 1831 4219 
Q 1534 4219 1204 4116 
Q 875 4013 500 3803 
L 500 4441 
Q 881 4594 1212 4672 
Q 1544 4750 1819 4750 
Q 2544 4750 2975 4387 
Q 3406 4025 3406 3419 
Q 3406 3131 3298 2873 
Q 3191 2616 2906 2266 
Q 2828 2175 2409 1742 
Q 1991 1309 1228 531 
z
" transform="scale(0.015625)"/>
       </defs>
       <use xlink:href="#DejaVuSans-32"/>
       <use xlink:href="#DejaVuSans-30" x="63.623047"/>
      </g>
     </g>
    </g>
    <g id="text_7">
     <!-- Rank -->
     <g transform="translate(150.375156 562.316562) scale(0.1 -0.1)">
      <defs>
       <path id="DejaVuSans-52" d="M 2841 2188 
Q 3044 2119 3236 1894 
Q 3428 1669 3622 1275 
L 4263 0 
L 3584 0 
L 2988 1197 
Q 2756 1666 2539 1819 
Q 2322 1972 1947 1972 
L 1259 1972 
L 1259 0 
L 628 0 
L 628 4666 
L 2053 4666 
Q 2853 4666 3247 4331 
Q 3641 3997 3641 3322 
Q 3641 2881 3436 2590 
Q 3231 2300 2841 2188 
z
M 1259 4147 
L 1259 2491 
L 2053 2491 
Q 2509 2491 2742 2702 
Q 2975 2913 2975 3322 
Q 2975 3731 2742 3939 
Q 2509 4147 2053 4147 
L 1259 4147 
z
" transform="scale(0.015625)"/>
       <path id="DejaVuSans-61" d="M 2194 1759 
Q 1497 1759 1228 1600 
Q 959 1441 959 1056 
Q 959 750 1161 570 
Q 1363 391 1709 391 
Q 2188 391 2477 730 
Q 2766 1069 2766 1631 
L 2766 1759 
L 2194 1759 
z
M 3341 1997 
L 3341 0 
L 2766 0 
L 2766 531 
Q 2569 213 2275 61 
Q 1981 -91 1556 -91 
Q 1019 -91 701 211 
Q 384 513 384 1019 
Q 384 1609 779 1909 
Q 1175 2209 1959 2209 
L 2766 2209 
L 2766 2266 
Q 2766 2663 2505 2880 
Q 2244 3097 1772 3097 
Q 1472 3097 1187 3025 
Q 903 2953 641 2809 
L 641 3341 
Q 956 3463 1253 3523 
Q 1550 3584 1831 3584 
Q 2591 3584 2966 3190 
Q 3341 2797 3341 1997 
z
" transform="scale(0.015625)"/>
       <path id="DejaVuSans-6b" d="M 581 4863 
L 1159 4863 
L 1159 1991 
L 2875 3500 
L 3609 3500 
L 1753 1863 
L 3688 0 
L 2938 0 
L 1159 1709 
L 1159 0 
L 581 0 
L 581 4863 
z
" transform="scale(0.015625)"/>
      </defs>
      <use xlink:href="#DejaVuSans-52"/>
      <use xlink:href="#DejaVuSans-61" x="67.232422"/>
      <use xlink:href="#DejaVuSans-6e" x="128.511719"/>
      <use xlink:href="#DejaVuSans-6b" x="191.890625"/>
     </g>
    </g>
   </g>
   <g id="matplotlib.axis_2">
    <g id="ytick_1">
     <g id="line2d_6">
      <defs>
       <path id="mbbea3d6f18" d="M 0 0 
L -3.5 0 
" style="stroke: #000000; stroke-width: 0.8"/>
      </defs>
      <g>
       <use xlink:href="#mbbea3d6f18" x="44.66" y="512.493538" style="stroke: #000000; stroke-width: 0.8"/>
      </g>
     </g>
     <g id="text_8">
      <!-- 8 -->
      <g transform="translate(31.2975 516.292757) scale(0.1 -0.1)">
       <use xlink:href="#DejaVuSans-38"/>
      </g>
     </g>
    </g>
    <g id="ytick_2">
     <g id="line2d_7">
      <g>
       <use xlink:href="#mbbea3d6f18" x="44.66" y="486.376615" style="stroke: #000000; stroke-width: 0.8"/>
      </g>
     </g>
     <g id="text_9">
      <!-- 10 -->
      <g transform="translate(24.935 490.175834) scale(0.1 -0.1)">
       <use xlink:href="#DejaVuSans-31"/>
       <use xlink:href="#DejaVuSans-30" x="63.623047"/>
      </g>
     </g>
    </g>
    <g id="ytick_3">
     <g id="line2d_8">
      <g>
       <use xlink:href="#mbbea3d6f18" x="44.66" y="460.259692" style="stroke: #000000; stroke-width: 0.8"/>
      </g>
     </g>
     <g id="text_10">
      <!-- 12 -->
      <g transform="translate(24.935 464.058911) scale(0.1 -0.1)">
       <use xlink:href="#DejaVuSans-31"/>
       <use xlink:href="#DejaVuSans-32" x="63.623047"/>
      </g>
     </g>
    </g>
    <g id="ytick_4">
     <g id="line2d_9">
      <g>
       <use xlink:href="#mbbea3d6f18" x="44.66" y="434.142769" style="stroke: #000000; stroke-width: 0.8"/>
      </g>
     </g>
     <g id="text_11">
      <!-- 14 -->
      <g transform="translate(24.935 437.941988) scale(0.1 -0.1)">
       <defs>
        <path id="DejaVuSans-34" d="M 2419 4116 
L 825 1625 
L 2419 1625 
L 2419 4116 
z
M 2253 4666 
L 3047 4666 
L 3047 1625 
L 3713 1625 
L 3713 1100 
L 3047 1100 
L 3047 0 
L 2419 0 
L 2419 1100 
L 313 1100 
L 313 1709 
L 2253 4666 
z
" transform="scale(0.015625)"/>
       </defs>
       <use xlink:href="#DejaVuSans-31"/>
       <use xlink:href="#DejaVuSans-34" x="63.623047"/>
      </g>
     </g>
    </g>
    <g id="ytick_5">
     <g id="line2d_10">
      <g>
       <use xlink:href="#mbbea3d6f18" x="44.66" y="408.025846" style="stroke: #000000; stroke-width: 0.8"/>
      </g>
     </g>
     <g id="text_12">
      <!-- 16 -->
      <g transform="translate(24.935 411.825065) scale(0.1 -0.1)">
       <use xlink:href="#DejaVuSans-31"/>
       <use xlink:href="#DejaVuSans-36" x="63.623047"/>
      </g>
     </g>
    </g>
    <g id="ytick_6">
     <g id="line2d_11">
      <g>
       <use xlink:href="#mbbea3d6f18" x="44.66" y="381.908923" style="stroke: #000000; stroke-width: 0.8"/>
      </g>
     </g>
     <g id="text_13">
      <!-- 18 -->
      <g transform="translate(24.935 385.708142) scale(0.1 -0.1)">
       <use xlink:href="#DejaVuSans-31"/>
       <use xlink:href="#DejaVuSans-38" x="63.623047"/>
      </g>
     </g>
    </g>
    <g id="ytick_7">
     <g id="line2d_12">
      <g>
       <use xlink:href="#mbbea3d6f18" x="44.66" y="355.792" style="stroke: #000000; stroke-width: 0.8"/>
      </g>
     </g>
     <g id="text_14">
      <!-- 20 -->
      <g transform="translate(24.935 359.591219) scale(0.1 -0.1)">
       <use xlink:href="#DejaVuSans-32"/>
       <use xlink:href="#DejaVuSans-30" x="63.623047"/>
      </g>
     </g>
    </g>
    <g id="text_15">
     <!-- Degree -->
     <g transform="translate(18.855313 458.868875) rotate(-90) scale(0.1 -0.1)">
      <defs>
       <path id="DejaVuSans-44" d="M 1259 4147 
L 1259 519 
L 2022 519 
Q 2988 519 3436 956 
Q 3884 1394 3884 2338 
Q 3884 3275 3436 3711 
Q 2988 4147 2022 4147 
L 1259 4147 
z
M 628 4666 
L 1925 4666 
Q 3281 4666 3915 4102 
Q 4550 3538 4550 2338 
Q 4550 1131 3912 565 
Q 3275 0 1925 0 
L 628 0 
L 628 4666 
z
" transform="scale(0.015625)"/>
       <path id="DejaVuSans-67" d="M 2906 1791 
Q 2906 2416 2648 2759 
Q 2391 3103 1925 3103 
Q 1463 3103 1205 2759 
Q 947 2416 947 1791 
Q 947 1169 1205 825 
Q 1463 481 1925 481 
Q 2391 481 2648 825 
Q 2906 1169 2906 1791 
z
M 3481 434 
Q 3481 -459 3084 -895 
Q 2688 -1331 1869 -1331 
Q 1566 -1331 1297 -1286 
Q 1028 -1241 775 -1147 
L 775 -588 
Q 1028 -725 1275 -790 
Q 1522 -856 1778 -856 
Q 2344 -856 2625 -561 
Q 2906 -266 2906 331 
L 2906 616 
Q 2728 306 2450 153 
Q 2172 0 1784 0 
Q 1141 0 747 490 
Q 353 981 353 1791 
Q 353 2603 747 3093 
Q 1141 3584 1784 3584 
Q 2172 3584 2450 3431 
Q 2728 3278 2906 2969 
L 2906 3500 
L 3481 3500 
L 3481 434 
z
" transform="scale(0.015625)"/>
      </defs>
      <use xlink:href="#DejaVuSans-44"/>
      <use xlink:href="#DejaVuSans-65" x="77.001953"/>
      <use xlink:href="#DejaVuSans-67" x="138.525391"/>
      <use xlink:href="#DejaVuSans-72" x="202.001953"/>
      <use xlink:href="#DejaVuSans-65" x="240.865234"/>
      <use xlink:href="#DejaVuSans-65" x="302.388672"/>
     </g>
    </g>
   </g>
   <g id="line2d_13">
    <path d="M 55.405909 355.792 
L 65.640108 355.792 
L 75.874307 368.850462 
L 86.108506 368.850462 
L 96.342706 381.908923 
L 106.576905 381.908923 
L 116.811104 381.908923 
L 127.045303 394.967385 
L 137.279502 408.025846 
L 147.513701 421.084308 
L 157.7479 434.142769 
L 167.9821 447.201231 
L 178.216299 447.201231 
L 188.450498 447.201231 
L 198.684697 460.259692 
L 208.918896 460.259692 
L 219.153095 473.318154 
L 229.387294 473.318154 
L 239.621494 499.435077 
L 249.855693 499.435077 
L 260.089892 512.493538 
L 270.324091 525.552 
" clip-path="url(#p1077326594)" style="fill: none; stroke: #0000ff; stroke-width: 1.5; stroke-linecap: square"/>
    <defs>
     <path id="m8c5abfd29e" d="M 0 3 
C 0.795609 3 1.55874 2.683901 2.12132 2.12132 
C 2.683901 1.55874 3 0.795609 3 0 
C 3 -0.795609 2.683901 -1.55874 2.12132 -2.12132 
C 1.55874 -2.683901 0.795609 -3 0 -3 
C -0.795609 -3 -1.55874 -2.683901 -2.12132 -2.12132 
C -2.683901 -1.55874 -3 -0.795609 -3 0 
C -3 0.795609 -2.683901 1.55874 -2.12132 2.12132 
C -1.55874 2.683901 -0.795609 3 0 3 
z
" style="stroke: #0000ff"/>
    </defs>
    <g clip-path="url(#p1077326594)">
     <use xlink:href="#m8c5abfd29e" x="55.405909" y="355.792" style="fill: #0000ff; stroke: #0000ff"/>
     <use xlink:href="#m8c5abfd29e" x="65.640108" y="355.792" style="fill: #0000ff; stroke: #0000ff"/>
     <use xlink:href="#m8c5abfd29e" x="75.874307" y="368.850462" style="fill: #0000ff; stroke: #0000ff"/>
     <use xlink:href="#m8c5abfd29e" x="86.108506" y="368.850462" style="fill: #0000ff; stroke: #0000ff"/>
     <use xlink:href="#m8c5abfd29e" x="96.342706" y="381.908923" style="fill: #0000ff; stroke: #0000ff"/>
     <use xlink:href="#m8c5abfd29e" x="106.576905" y="381.908923" style="fill: #0000ff; stroke: #0000ff"/>
     <use xlink:href="#m8c5abfd29e" x="116.811104" y="381.908923" style="fill: #0000ff; stroke: #0000ff"/>
     <use xlink:href="#m8c5abfd29e" x="127.045303" y="394.967385" style="fill: #0000ff; stroke: #0000ff"/>
     <use xlink:href="#m8c5abfd29e" x="137.279502" y="408.025846" style="fill: #0000ff; stroke: #0000ff"/>
     <use xlink:href="#m8c5abfd29e" x="147.513701" y="421.084308" style="fill: #0000ff; stroke: #0000ff"/>
     <use xlink:href="#m8c5abfd29e" x="157.7479" y="434.142769" style="fill: #0000ff; stroke: #0000ff"/>
     <use xlink:href="#m8c5abfd29e" x="167.9821" y="447.201231" style="fill: #0000ff; stroke: #0000ff"/>
     <use xlink:href="#m8c5abfd29e" x="178.216299" y="447.201231" style="fill: #0000ff; stroke: #0000ff"/>
     <use xlink:href="#m8c5abfd29e" x="188.450498" y="447.201231" style="fill: #0000ff; stroke: #0000ff"/>
     <use xlink:href="#m8c5abfd29e" x="198.684697" y="460.259692" style="fill: #0000ff; stroke: #0000ff"/>
     <use xlink:href="#m8c5abfd29e" x="208.918896" y="460.259692" style="fill: #0000ff; stroke: #0000ff"/>
     <use xlink:href="#m8c5abfd29e" x="219.153095" y="473.318154" style="fill: #0000ff; stroke: #0000ff"/>
     <use xlink:href="#m8c5abfd29e" x="229.387294" y="473.318154" style="fill: #0000ff; stroke: #0000ff"/>
     <use xlink:href="#m8c5abfd29e" x="239.621494" y="499.435077" style="fill: #0000ff; stroke: #0000ff"/>
     <use xlink:href="#m8c5abfd29e" x="249.855693" y="499.435077" style="fill: #0000ff; stroke: #0000ff"/>
     <use xlink:href="#m8c5abfd29e" x="260.089892" y="512.493538" style="fill: #0000ff; stroke: #0000ff"/>
     <use xlink:href="#m8c5abfd29e" x="270.324091" y="525.552" style="fill: #0000ff; stroke: #0000ff"/>
    </g>
   </g>
   <g id="patch_3">
    <path d="M 44.66 534.04 
L 44.66 347.304 
" style="fill: none; stroke: #000000; stroke-width: 0.8; stroke-linejoin: miter; stroke-linecap: square"/>
   </g>
   <g id="patch_4">
    <path d="M 281.07 534.04 
L 281.07 347.304 
" style="fill: none; stroke: #000000; stroke-width: 0.8; stroke-linejoin: miter; stroke-linecap: square"/>
   </g>
   <g id="patch_5">
    <path d="M 44.66 534.04 
L 281.07 534.04 
" style="fill: none; stroke: #000000; stroke-width: 0.8; stroke-linejoin: miter; stroke-linecap: square"/>
   </g>
   <g id="patch_6">
    <path d="M 44.66 347.304 
L 281.07 347.304 
" style="fill: none; stroke: #000000; stroke-width: 0.8; stroke-linejoin: miter; stroke-linecap: square"/>
   </g>
   <g id="text_16">
    <!-- Degree Rank Plot -->
    <g transform="translate(110.919063 341.304) scale(0.12 -0.12)">
     <defs>
      <path id="DejaVuSans-50" d="M 1259 4147 
L 1259 2394 
L 2053 2394 
Q 2494 2394 2734 2622 
Q 2975 2850 2975 3272 
Q 2975 3691 2734 3919 
Q 2494 4147 2053 4147 
L 1259 4147 
z
M 628 4666 
L 2053 4666 
Q 2838 4666 3239 4311 
Q 3641 3956 3641 3272 
Q 3641 2581 3239 2228 
Q 2838 1875 2053 1875 
L 1259 1875 
L 1259 0 
L 628 0 
L 628 4666 
z
" transform="scale(0.015625)"/>
     </defs>
     <use xlink:href="#DejaVuSans-44"/>
     <use xlink:href="#DejaVuSans-65" x="77.001953"/>
     <use xlink:href="#DejaVuSans-67" x="138.525391"/>
     <use xlink:href="#DejaVuSans-72" x="202.001953"/>
     <use xlink:href="#DejaVuSans-65" x="240.865234"/>
     <use xlink:href="#DejaVuSans-65" x="302.388672"/>
     <use xlink:href="#DejaVuSans-20" x="363.912109"/>
     <use xlink:href="#DejaVuSans-52" x="395.699219"/>
     <use xlink:href="#DejaVuSans-61" x="462.931641"/>
     <use xlink:href="#DejaVuSans-6e" x="524.210938"/>
     <use xlink:href="#DejaVuSans-6b" x="587.589844"/>
     <use xlink:href="#DejaVuSans-20" x="645.5"/>
     <use xlink:href="#DejaVuSans-50" x="677.287109"/>
     <use xlink:href="#DejaVuSans-6c" x="737.589844"/>
     <use xlink:href="#DejaVuSans-6f" x="765.373047"/>
     <use xlink:href="#DejaVuSans-74" x="826.554688"/>
    </g>
   </g>
  </g>
  <g id="axes_3">
   <g id="patch_7">
    <path d="M 328.79 534.04 
L 565.2 534.04 
L 565.2 347.304 
L 328.79 347.304 
z
" style="fill: #ffffff"/>
   </g>
   <g id="patch_8">
    <path d="M 339.535909 534.04 
L 351.994934 534.04 
L 351.994934 474.75873 
L 339.535909 474.75873 
z
" clip-path="url(#p89aee7b760)" style="fill: #1f77b4"/>
   </g>
   <g id="patch_9">
    <path d="M 355.10969 534.04 
L 367.568715 534.04 
L 367.568715 474.75873 
L 355.10969 474.75873 
z
" clip-path="url(#p89aee7b760)" style="fill: #1f77b4"/>
   </g>
   <g id="patch_10">
    <path d="M 370.683472 534.04 
L 383.142497 534.04 
L 383.142497 415.47746 
L 370.683472 415.47746 
z
" clip-path="url(#p89aee7b760)" style="fill: #1f77b4"/>
   </g>
   <g id="patch_11">
    <path d="M 401.831034 534.04 
L 414.290059 534.04 
L 414.290059 415.47746 
L 401.831034 415.47746 
z
" clip-path="url(#p89aee7b760)" style="fill: #1f77b4"/>
   </g>
   <g id="patch_12">
    <path d="M 417.404816 534.04 
L 429.863841 534.04 
L 429.863841 415.47746 
L 417.404816 415.47746 
z
" clip-path="url(#p89aee7b760)" style="fill: #1f77b4"/>
   </g>
   <g id="patch_13">
    <path d="M 432.978597 534.04 
L 445.437622 534.04 
L 445.437622 356.19619 
L 432.978597 356.19619 
z
" clip-path="url(#p89aee7b760)" style="fill: #1f77b4"/>
   </g>
   <g id="patch_14">
    <path d="M 448.552378 534.04 
L 461.011403 534.04 
L 461.011403 474.75873 
L 448.552378 474.75873 
z
" clip-path="url(#p89aee7b760)" style="fill: #1f77b4"/>
   </g>
   <g id="patch_15">
    <path d="M 464.126159 534.04 
L 476.585184 534.04 
L 476.585184 474.75873 
L 464.126159 474.75873 
z
" clip-path="url(#p89aee7b760)" style="fill: #1f77b4"/>
   </g>
   <g id="patch_16">
    <path d="M 479.699941 534.04 
L 492.158966 534.04 
L 492.158966 474.75873 
L 479.699941 474.75873 
z
" clip-path="url(#p89aee7b760)" style="fill: #1f77b4"/>
   </g>
   <g id="patch_17">
    <path d="M 495.273722 534.04 
L 507.732747 534.04 
L 507.732747 474.75873 
L 495.273722 474.75873 
z
" clip-path="url(#p89aee7b760)" style="fill: #1f77b4"/>
   </g>
   <g id="patch_18">
    <path d="M 510.847503 534.04 
L 523.306528 534.04 
L 523.306528 356.19619 
L 510.847503 356.19619 
z
" clip-path="url(#p89aee7b760)" style="fill: #1f77b4"/>
   </g>
   <g id="patch_19">
    <path d="M 526.421285 534.04 
L 538.88031 534.04 
L 538.88031 415.47746 
L 526.421285 415.47746 
z
" clip-path="url(#p89aee7b760)" style="fill: #1f77b4"/>
   </g>
   <g id="patch_20">
    <path d="M 541.995066 534.04 
L 554.454091 534.04 
L 554.454091 415.47746 
L 541.995066 415.47746 
z
" clip-path="url(#p89aee7b760)" style="fill: #1f77b4"/>
   </g>
   <g id="matplotlib.axis_3">
    <g id="xtick_6">
     <g id="line2d_14">
      <g>
       <use xlink:href="#m3559eb3d6c" x="353.552312" y="534.04" style="stroke: #000000; stroke-width: 0.8"/>
      </g>
     </g>
     <g id="text_17">
      <!-- 7.5 -->
      <g transform="translate(345.60075 548.638437) scale(0.1 -0.1)">
       <defs>
        <path id="DejaVuSans-37" d="M 525 4666 
L 3525 4666 
L 3525 4397 
L 1831 0 
L 1172 0 
L 2766 4134 
L 525 4134 
L 525 4666 
z
" transform="scale(0.015625)"/>
        <path id="DejaVuSans-2e" d="M 684 794 
L 1344 794 
L 1344 0 
L 684 0 
L 684 794 
z
" transform="scale(0.015625)"/>
       </defs>
       <use xlink:href="#DejaVuSans-37"/>
       <use xlink:href="#DejaVuSans-2e" x="63.623047"/>
       <use xlink:href="#DejaVuSans-35" x="95.410156"/>
      </g>
     </g>
    </g>
    <g id="xtick_7">
     <g id="line2d_15">
      <g>
       <use xlink:href="#m3559eb3d6c" x="392.486765" y="534.04" style="stroke: #000000; stroke-width: 0.8"/>
      </g>
     </g>
     <g id="text_18">
      <!-- 10.0 -->
      <g transform="translate(381.353953 548.638437) scale(0.1 -0.1)">
       <use xlink:href="#DejaVuSans-31"/>
       <use xlink:href="#DejaVuSans-30" x="63.623047"/>
       <use xlink:href="#DejaVuSans-2e" x="127.246094"/>
       <use xlink:href="#DejaVuSans-30" x="159.033203"/>
      </g>
     </g>
    </g>
    <g id="xtick_8">
     <g id="line2d_16">
      <g>
       <use xlink:href="#m3559eb3d6c" x="431.421219" y="534.04" style="stroke: #000000; stroke-width: 0.8"/>
      </g>
     </g>
     <g id="text_19">
      <!-- 12.5 -->
      <g transform="translate(420.288406 548.638437) scale(0.1 -0.1)">
       <use xlink:href="#DejaVuSans-31"/>
       <use xlink:href="#DejaVuSans-32" x="63.623047"/>
       <use xlink:href="#DejaVuSans-2e" x="127.246094"/>
       <use xlink:href="#DejaVuSans-35" x="159.033203"/>
      </g>
     </g>
    </g>
    <g id="xtick_9">
     <g id="line2d_17">
      <g>
       <use xlink:href="#m3559eb3d6c" x="470.355672" y="534.04" style="stroke: #000000; stroke-width: 0.8"/>
      </g>
     </g>
     <g id="text_20">
      <!-- 15.0 -->
      <g transform="translate(459.222859 548.638437) scale(0.1 -0.1)">
       <use xlink:href="#DejaVuSans-31"/>
       <use xlink:href="#DejaVuSans-35" x="63.623047"/>
       <use xlink:href="#DejaVuSans-2e" x="127.246094"/>
       <use xlink:href="#DejaVuSans-30" x="159.033203"/>
      </g>
     </g>
    </g>
    <g id="xtick_10">
     <g id="line2d_18">
      <g>
       <use xlink:href="#m3559eb3d6c" x="509.290125" y="534.04" style="stroke: #000000; stroke-width: 0.8"/>
      </g>
     </g>
     <g id="text_21">
      <!-- 17.5 -->
      <g transform="translate(498.157313 548.638437) scale(0.1 -0.1)">
       <use xlink:href="#DejaVuSans-31"/>
       <use xlink:href="#DejaVuSans-37" x="63.623047"/>
       <use xlink:href="#DejaVuSans-2e" x="127.246094"/>
       <use xlink:href="#DejaVuSans-35" x="159.033203"/>
      </g>
     </g>
    </g>
    <g id="xtick_11">
     <g id="line2d_19">
      <g>
       <use xlink:href="#m3559eb3d6c" x="548.224578" y="534.04" style="stroke: #000000; stroke-width: 0.8"/>
      </g>
     </g>
     <g id="text_22">
      <!-- 20.0 -->
      <g transform="translate(537.091766 548.638437) scale(0.1 -0.1)">
       <use xlink:href="#DejaVuSans-32"/>
       <use xlink:href="#DejaVuSans-30" x="63.623047"/>
       <use xlink:href="#DejaVuSans-2e" x="127.246094"/>
       <use xlink:href="#DejaVuSans-30" x="159.033203"/>
      </g>
     </g>
    </g>
    <g id="text_23">
     <!-- Degree -->
     <g transform="translate(428.798125 562.316562) scale(0.1 -0.1)">
      <use xlink:href="#DejaVuSans-44"/>
      <use xlink:href="#DejaVuSans-65" x="77.001953"/>
      <use xlink:href="#DejaVuSans-67" x="138.525391"/>
      <use xlink:href="#DejaVuSans-72" x="202.001953"/>
      <use xlink:href="#DejaVuSans-65" x="240.865234"/>
      <use xlink:href="#DejaVuSans-65" x="302.388672"/>
     </g>
    </g>
   </g>
   <g id="matplotlib.axis_4">
    <g id="ytick_8">
     <g id="line2d_20">
      <g>
       <use xlink:href="#mbbea3d6f18" x="328.79" y="534.04" style="stroke: #000000; stroke-width: 0.8"/>
      </g>
     </g>
     <g id="text_24">
      <!-- 0.0 -->
      <g transform="translate(305.886875 537.839219) scale(0.1 -0.1)">
       <use xlink:href="#DejaVuSans-30"/>
       <use xlink:href="#DejaVuSans-2e" x="63.623047"/>
       <use xlink:href="#DejaVuSans-30" x="95.410156"/>
      </g>
     </g>
    </g>
    <g id="ytick_9">
     <g id="line2d_21">
      <g>
       <use xlink:href="#mbbea3d6f18" x="328.79" y="504.399365" style="stroke: #000000; stroke-width: 0.8"/>
      </g>
     </g>
     <g id="text_25">
      <!-- 0.5 -->
      <g transform="translate(305.886875 508.198584) scale(0.1 -0.1)">
       <use xlink:href="#DejaVuSans-30"/>
       <use xlink:href="#DejaVuSans-2e" x="63.623047"/>
       <use xlink:href="#DejaVuSans-35" x="95.410156"/>
      </g>
     </g>
    </g>
    <g id="ytick_10">
     <g id="line2d_22">
      <g>
       <use xlink:href="#mbbea3d6f18" x="328.79" y="474.75873" style="stroke: #000000; stroke-width: 0.8"/>
      </g>
     </g>
     <g id="text_26">
      <!-- 1.0 -->
      <g transform="translate(305.886875 478.557949) scale(0.1 -0.1)">
       <use xlink:href="#DejaVuSans-31"/>
       <use xlink:href="#DejaVuSans-2e" x="63.623047"/>
       <use xlink:href="#DejaVuSans-30" x="95.410156"/>
      </g>
     </g>
    </g>
    <g id="ytick_11">
     <g id="line2d_23">
      <g>
       <use xlink:href="#mbbea3d6f18" x="328.79" y="445.118095" style="stroke: #000000; stroke-width: 0.8"/>
      </g>
     </g>
     <g id="text_27">
      <!-- 1.5 -->
      <g transform="translate(305.886875 448.917314) scale(0.1 -0.1)">
       <use xlink:href="#DejaVuSans-31"/>
       <use xlink:href="#DejaVuSans-2e" x="63.623047"/>
       <use xlink:href="#DejaVuSans-35" x="95.410156"/>
      </g>
     </g>
    </g>
    <g id="ytick_12">
     <g id="line2d_24">
      <g>
       <use xlink:href="#mbbea3d6f18" x="328.79" y="415.47746" style="stroke: #000000; stroke-width: 0.8"/>
      </g>
     </g>
     <g id="text_28">
      <!-- 2.0 -->
      <g transform="translate(305.886875 419.276679) scale(0.1 -0.1)">
       <use xlink:href="#DejaVuSans-32"/>
       <use xlink:href="#DejaVuSans-2e" x="63.623047"/>
       <use xlink:href="#DejaVuSans-30" x="95.410156"/>
      </g>
     </g>
    </g>
    <g id="ytick_13">
     <g id="line2d_25">
      <g>
       <use xlink:href="#mbbea3d6f18" x="328.79" y="385.836825" style="stroke: #000000; stroke-width: 0.8"/>
      </g>
     </g>
     <g id="text_29">
      <!-- 2.5 -->
      <g transform="translate(305.886875 389.636044) scale(0.1 -0.1)">
       <use xlink:href="#DejaVuSans-32"/>
       <use xlink:href="#DejaVuSans-2e" x="63.623047"/>
       <use xlink:href="#DejaVuSans-35" x="95.410156"/>
      </g>
     </g>
    </g>
    <g id="ytick_14">
     <g id="line2d_26">
      <g>
       <use xlink:href="#mbbea3d6f18" x="328.79" y="356.19619" style="stroke: #000000; stroke-width: 0.8"/>
      </g>
     </g>
     <g id="text_30">
      <!-- 3.0 -->
      <g transform="translate(305.886875 359.995409) scale(0.1 -0.1)">
       <defs>
        <path id="DejaVuSans-33" d="M 2597 2516 
Q 3050 2419 3304 2112 
Q 3559 1806 3559 1356 
Q 3559 666 3084 287 
Q 2609 -91 1734 -91 
Q 1441 -91 1130 -33 
Q 819 25 488 141 
L 488 750 
Q 750 597 1062 519 
Q 1375 441 1716 441 
Q 2309 441 2620 675 
Q 2931 909 2931 1356 
Q 2931 1769 2642 2001 
Q 2353 2234 1838 2234 
L 1294 2234 
L 1294 2753 
L 1863 2753 
Q 2328 2753 2575 2939 
Q 2822 3125 2822 3475 
Q 2822 3834 2567 4026 
Q 2313 4219 1838 4219 
Q 1578 4219 1281 4162 
Q 984 4106 628 3988 
L 628 4550 
Q 988 4650 1302 4700 
Q 1616 4750 1894 4750 
Q 2613 4750 3031 4423 
Q 3450 4097 3450 3541 
Q 3450 3153 3228 2886 
Q 3006 2619 2597 2516 
z
" transform="scale(0.015625)"/>
       </defs>
       <use xlink:href="#DejaVuSans-33"/>
       <use xlink:href="#DejaVuSans-2e" x="63.623047"/>
       <use xlink:href="#DejaVuSans-30" x="95.410156"/>
      </g>
     </g>
    </g>
    <g id="text_31">
     <!-- # of Nodes -->
     <g transform="translate(299.807188 468.514969) rotate(-90) scale(0.1 -0.1)">
      <defs>
       <path id="DejaVuSans-23" d="M 3272 2816 
L 2363 2816 
L 2100 1772 
L 3016 1772 
L 3272 2816 
z
M 2803 4594 
L 2478 3297 
L 3391 3297 
L 3719 4594 
L 4219 4594 
L 3897 3297 
L 4872 3297 
L 4872 2816 
L 3775 2816 
L 3519 1772 
L 4513 1772 
L 4513 1294 
L 3397 1294 
L 3072 0 
L 2572 0 
L 2894 1294 
L 1978 1294 
L 1656 0 
L 1153 0 
L 1478 1294 
L 494 1294 
L 494 1772 
L 1594 1772 
L 1856 2816 
L 850 2816 
L 850 3297 
L 1978 3297 
L 2297 4594 
L 2803 4594 
z
" transform="scale(0.015625)"/>
       <path id="DejaVuSans-4e" d="M 628 4666 
L 1478 4666 
L 3547 763 
L 3547 4666 
L 4159 4666 
L 4159 0 
L 3309 0 
L 1241 3903 
L 1241 0 
L 628 0 
L 628 4666 
z
" transform="scale(0.015625)"/>
      </defs>
      <use xlink:href="#DejaVuSans-23"/>
      <use xlink:href="#DejaVuSans-20" x="83.789062"/>
      <use xlink:href="#DejaVuSans-6f" x="115.576172"/>
      <use xlink:href="#DejaVuSans-66" x="176.757812"/>
      <use xlink:href="#DejaVuSans-20" x="211.962891"/>
      <use xlink:href="#DejaVuSans-4e" x="243.75"/>
      <use xlink:href="#DejaVuSans-6f" x="318.554688"/>
      <use xlink:href="#DejaVuSans-64" x="379.736328"/>
      <use xlink:href="#DejaVuSans-65" x="443.212891"/>
      <use xlink:href="#DejaVuSans-73" x="504.736328"/>
     </g>
    </g>
   </g>
   <g id="patch_21">
    <path d="M 328.79 534.04 
L 328.79 347.304 
" style="fill: none; stroke: #000000; stroke-width: 0.8; stroke-linejoin: miter; stroke-linecap: square"/>
   </g>
   <g id="patch_22">
    <path d="M 565.2 534.04 
L 565.2 347.304 
" style="fill: none; stroke: #000000; stroke-width: 0.8; stroke-linejoin: miter; stroke-linecap: square"/>
   </g>
   <g id="patch_23">
    <path d="M 328.79 534.04 
L 565.2 534.04 
" style="fill: none; stroke: #000000; stroke-width: 0.8; stroke-linejoin: miter; stroke-linecap: square"/>
   </g>
   <g id="patch_24">
    <path d="M 328.79 347.304 
L 565.2 347.304 
" style="fill: none; stroke: #000000; stroke-width: 0.8; stroke-linejoin: miter; stroke-linecap: square"/>
   </g>
   <g id="text_32">
    <!-- Degree histogram -->
    <g transform="translate(392.836563 341.304) scale(0.12 -0.12)">
     <defs>
      <path id="DejaVuSans-68" d="M 3513 2113 
L 3513 0 
L 2938 0 
L 2938 2094 
Q 2938 2591 2744 2837 
Q 2550 3084 2163 3084 
Q 1697 3084 1428 2787 
Q 1159 2491 1159 1978 
L 1159 0 
L 581 0 
L 581 4863 
L 1159 4863 
L 1159 2956 
Q 1366 3272 1645 3428 
Q 1925 3584 2291 3584 
Q 2894 3584 3203 3211 
Q 3513 2838 3513 2113 
z
" transform="scale(0.015625)"/>
      <path id="DejaVuSans-69" d="M 603 3500 
L 1178 3500 
L 1178 0 
L 603 0 
L 603 3500 
z
M 603 4863 
L 1178 4863 
L 1178 4134 
L 603 4134 
L 603 4863 
z
" transform="scale(0.015625)"/>
     </defs>
     <use xlink:href="#DejaVuSans-44"/>
     <use xlink:href="#DejaVuSans-65" x="77.001953"/>
     <use xlink:href="#DejaVuSans-67" x="138.525391"/>
     <use xlink:href="#DejaVuSans-72" x="202.001953"/>
     <use xlink:href="#DejaVuSans-65" x="240.865234"/>
     <use xlink:href="#DejaVuSans-65" x="302.388672"/>
     <use xlink:href="#DejaVuSans-20" x="363.912109"/>
     <use xlink:href="#DejaVuSans-68" x="395.699219"/>
     <use xlink:href="#DejaVuSans-69" x="459.078125"/>
     <use xlink:href="#DejaVuSans-73" x="486.861328"/>
     <use xlink:href="#DejaVuSans-74" x="538.960938"/>
     <use xlink:href="#DejaVuSans-6f" x="578.169922"/>
     <use xlink:href="#DejaVuSans-67" x="639.351562"/>
     <use xlink:href="#DejaVuSans-72" x="702.828125"/>
     <use xlink:href="#DejaVuSans-61" x="743.941406"/>
     <use xlink:href="#DejaVuSans-6d" x="805.220703"/>
    </g>
   </g>
  </g>
 </g>
 <defs>
  <clipPath id="p9c2f6a7202">
   <rect x="44.66" y="26.88" width="520.54" height="293.544"/>
  </clipPath>
  <clipPath id="p1077326594">
   <rect x="44.66" y="347.304" width="236.41" height="186.736"/>
  </clipPath>
  <clipPath id="p89aee7b760">
   <rect x="328.79" y="347.304" width="236.41" height="186.736"/>
  </clipPath>
 </defs>
</svg>
