<?xml version="1.0" encoding="utf-8" standalone="no"?>
<!DOCTYPE svg PUBLIC "-//W3C//DTD SVG 1.1//EN"
  "http://www.w3.org/Graphics/SVG/1.1/DTD/svg11.dtd">
<svg xmlns:xlink="http://www.w3.org/1999/xlink" width="720pt" height="720pt" viewBox="0 0 720 720" xmlns="http://www.w3.org/2000/svg" version="1.1">
 <metadata>
  <rdf:RDF xmlns:dc="http://purl.org/dc/elements/1.1/" xmlns:cc="http://creativecommons.org/ns#" xmlns:rdf="http://www.w3.org/1999/02/22-rdf-syntax-ns#">
   <cc:Work>
    <dc:type rdf:resource="http://purl.org/dc/dcmitype/StillImage"/>
    <dc:date>2024-08-20T13:31:46.604241</dc:date>
    <dc:format>image/svg+xml</dc:format>
    <dc:creator>
     <cc:Agent>
      <dc:title>Matplotlib v3.8.4, https://matplotlib.org/</dc:title>
     </cc:Agent>
    </dc:creator>
   </cc:Work>
  </rdf:RDF>
 </metadata>
 <defs>
  <style type="text/css">*{stroke-linejoin: round; stroke-linecap: butt}</style>
 </defs>
 <g id="figure_1">
  <g id="patch_1">
   <path d="M 0 720 
L 720 720 
L 720 0 
L 0 0 
z
" style="fill: #ffffff"/>
  </g>
  <g id="axes_1">
   <g id="patch_2">
    <path d="M 10.8 709.2 
L 709.2 709.2 
L 709.2 10.8 
L 10.8 10.8 
z
" style="fill: #ffffff"/>
   </g>
   <g id="LineCollection_1">
    <path d="M 106.614181 113.087648 
L 97.089534 126.290914 
" clip-path="url(#p142b16eb1d)" style="fill: none; stroke: #000000; stroke-opacity: 0.6; stroke-width: 9.827552"/>
    <path d="M 106.614181 113.087648 
L 108.854419 71.404959 
" clip-path="url(#p142b16eb1d)" style="fill: none; stroke: #000000; stroke-opacity: 0.6; stroke-width: 3.502841"/>
    <path d="M 106.614181 113.087648 
L 98.821377 96.576393 
" clip-path="url(#p142b16eb1d)" style="fill: none; stroke: #000000; stroke-opacity: 0.6; stroke-width: 3.228493"/>
    <path d="M 106.614181 113.087648 
L 623.815988 549.77701 
" clip-path="url(#p142b16eb1d)" style="fill: none; stroke: #000000; stroke-opacity: 0.6; stroke-width: 0.31844"/>
    <path d="M 106.614181 113.087648 
L 105.677162 155.717832 
" clip-path="url(#p142b16eb1d)" style="fill: none; stroke: #000000; stroke-opacity: 0.6; stroke-width: 1.954733"/>
    <path d="M 106.614181 113.087648 
L 314.878062 520.687979 
" clip-path="url(#p142b16eb1d)" style="fill: none; stroke: #000000; stroke-opacity: 0.6; stroke-width: 0.298844"/>
    <path d="M 106.614181 113.087648 
L 295.162848 537.705446 
" clip-path="url(#p142b16eb1d)" style="fill: none; stroke: #000000; stroke-opacity: 0.6; stroke-width: 0.465413"/>
    <path d="M 106.614181 113.087648 
L 621.141523 577.055886 
" clip-path="url(#p142b16eb1d)" style="fill: none; stroke: #000000; stroke-opacity: 0.6; stroke-width: 0.146972"/>
    <path d="M 106.614181 113.087648 
L 269.528625 489.260207 
" clip-path="url(#p142b16eb1d)" style="fill: none; stroke: #000000; stroke-opacity: 0.6; stroke-width: 0.31844"/>
    <path d="M 106.614181 113.087648 
L 636.246158 581.226633 
" clip-path="url(#p142b16eb1d)" style="fill: none; stroke: #000000; stroke-opacity: 0.6; stroke-width: 0.244954"/>
    <path d="M 106.614181 113.087648 
L 630.960499 514.430872 
" clip-path="url(#p142b16eb1d)" style="fill: none; stroke: #000000; stroke-opacity: 0.6; stroke-width: 0.044092"/>
    <path d="M 106.614181 113.087648 
L 272.040486 554.917165 
" clip-path="url(#p142b16eb1d)" style="fill: none; stroke: #000000; stroke-opacity: 0.6; stroke-width: 0.37233"/>
    <path d="M 106.614181 113.087648 
L 71.404959 128.835703 
" clip-path="url(#p142b16eb1d)" style="fill: none; stroke: #000000; stroke-opacity: 0.6; stroke-width: 0.21066"/>
    <path d="M 106.614181 113.087648 
L 302.636567 433.483013 
" clip-path="url(#p142b16eb1d)" style="fill: none; stroke: #000000; stroke-opacity: 0.6; stroke-width: 0.406624"/>
    <path d="M 106.614181 113.087648 
L 648.595041 648.595041 
" clip-path="url(#p142b16eb1d)" style="fill: none; stroke: #000000; stroke-opacity: 0.6; stroke-width: 0.058789"/>
    <path d="M 106.614181 113.087648 
L 290.996488 482.154704 
" clip-path="url(#p142b16eb1d)" style="fill: none; stroke: #000000; stroke-opacity: 0.6; stroke-width: 0.734862"/>
    <path d="M 106.614181 113.087648 
L 131.892345 84.804399 
" clip-path="url(#p142b16eb1d)" style="fill: none; stroke: #000000; stroke-opacity: 0.6; stroke-width: 0.627082"/>
    <path d="M 106.614181 113.087648 
L 323.819861 471.949101 
" clip-path="url(#p142b16eb1d)" style="fill: none; stroke: #000000; stroke-opacity: 0.6; stroke-width: 0.274348"/>
    <path d="M 106.614181 113.087648 
L 325.039187 558.069427 
" clip-path="url(#p142b16eb1d)" style="fill: none; stroke: #000000; stroke-opacity: 0.6; stroke-width: 0.122477"/>
    <path d="M 97.089534 126.290914 
L 108.854419 71.404959 
" clip-path="url(#p142b16eb1d)" style="fill: none; stroke: #000000; stroke-opacity: 0.6; stroke-width: 0.31844"/>
    <path d="M 97.089534 126.290914 
L 98.821377 96.576393 
" clip-path="url(#p142b16eb1d)" style="fill: none; stroke: #000000; stroke-opacity: 0.6; stroke-width: 2.880658"/>
    <path d="M 97.089534 126.290914 
L 623.815988 549.77701 
" clip-path="url(#p142b16eb1d)" style="fill: none; stroke: #000000; stroke-opacity: 0.6; stroke-width: 0.284147"/>
    <path d="M 97.089534 126.290914 
L 105.677162 155.717832 
" clip-path="url(#p142b16eb1d)" style="fill: none; stroke: #000000; stroke-opacity: 0.6; stroke-width: 1.920439"/>
    <path d="M 97.089534 126.290914 
L 314.878062 520.687979 
" clip-path="url(#p142b16eb1d)" style="fill: none; stroke: #000000; stroke-opacity: 0.6; stroke-width: 0.391926"/>
    <path d="M 97.089534 126.290914 
L 295.162848 537.705446 
" clip-path="url(#p142b16eb1d)" style="fill: none; stroke: #000000; stroke-opacity: 0.6; stroke-width: 0.014697"/>
    <path d="M 97.089534 126.290914 
L 621.141523 577.055886 
" clip-path="url(#p142b16eb1d)" style="fill: none; stroke: #000000; stroke-opacity: 0.6; stroke-width: 0.05389"/>
    <path d="M 97.089534 126.290914 
L 290.996488 482.154704 
" clip-path="url(#p142b16eb1d)" style="fill: none; stroke: #000000; stroke-opacity: 0.6; stroke-width: 0.200862"/>
    <path d="M 97.089534 126.290914 
L 272.040486 554.917165 
" clip-path="url(#p142b16eb1d)" style="fill: none; stroke: #000000; stroke-opacity: 0.6; stroke-width: 0.259651"/>
    <path d="M 97.089534 126.290914 
L 131.892345 84.804399 
" clip-path="url(#p142b16eb1d)" style="fill: none; stroke: #000000; stroke-opacity: 0.6; stroke-width: 0.093083"/>
    <path d="M 97.089534 126.290914 
L 71.404959 128.835703 
" clip-path="url(#p142b16eb1d)" style="fill: none; stroke: #000000; stroke-opacity: 0.6; stroke-width: 0.827944"/>
    <path d="M 97.089534 126.290914 
L 302.636567 433.483013 
" clip-path="url(#p142b16eb1d)" style="fill: none; stroke: #000000; stroke-opacity: 0.6; stroke-width: 0.16167"/>
    <path d="M 97.089534 126.290914 
L 601.808121 521.32962 
" clip-path="url(#p142b16eb1d)" style="fill: none; stroke: #000000; stroke-opacity: 0.6; stroke-width: 0.004899"/>
    <path d="M 97.089534 126.290914 
L 325.039187 558.069427 
" clip-path="url(#p142b16eb1d)" style="fill: none; stroke: #000000; stroke-opacity: 0.6; stroke-width: 0.156771"/>
    <path d="M 97.089534 126.290914 
L 269.528625 489.260207 
" clip-path="url(#p142b16eb1d)" style="fill: none; stroke: #000000; stroke-opacity: 0.6; stroke-width: 0.058789"/>
    <path d="M 97.089534 126.290914 
L 636.246158 581.226633 
" clip-path="url(#p142b16eb1d)" style="fill: none; stroke: #000000; stroke-opacity: 0.6; stroke-width: 0.132275"/>
    <path d="M 97.089534 126.290914 
L 323.819861 471.949101 
" clip-path="url(#p142b16eb1d)" style="fill: none; stroke: #000000; stroke-opacity: 0.6; stroke-width: 0.073486"/>
    <path d="M 97.089534 126.290914 
L 648.595041 648.595041 
" clip-path="url(#p142b16eb1d)" style="fill: none; stroke: #000000; stroke-opacity: 0.6; stroke-width: 0.058789"/>
    <path d="M 97.089534 126.290914 
L 315.180268 590.33997 
" clip-path="url(#p142b16eb1d)" style="fill: none; stroke: #000000; stroke-opacity: 0.6; stroke-width: 0.328238"/>
    <path d="M 108.854419 71.404959 
L 98.821377 96.576393 
" clip-path="url(#p142b16eb1d)" style="fill: none; stroke: #000000; stroke-opacity: 0.6; stroke-width: 1.200274"/>
    <path d="M 108.854419 71.404959 
L 623.815988 549.77701 
" clip-path="url(#p142b16eb1d)" style="fill: none; stroke: #000000; stroke-opacity: 0.6; stroke-width: 0.396825"/>
    <path d="M 108.854419 71.404959 
L 105.677162 155.717832 
" clip-path="url(#p142b16eb1d)" style="fill: none; stroke: #000000; stroke-opacity: 0.6; stroke-width: 0.029394"/>
    <path d="M 108.854419 71.404959 
L 621.141523 577.055886 
" clip-path="url(#p142b16eb1d)" style="fill: none; stroke: #000000; stroke-opacity: 0.6; stroke-width: 0.132275"/>
    <path d="M 108.854419 71.404959 
L 269.528625 489.260207 
" clip-path="url(#p142b16eb1d)" style="fill: none; stroke: #000000; stroke-opacity: 0.6; stroke-width: 0.279248"/>
    <path d="M 108.854419 71.404959 
L 636.246158 581.226633 
" clip-path="url(#p142b16eb1d)" style="fill: none; stroke: #000000; stroke-opacity: 0.6; stroke-width: 0.063688"/>
    <path d="M 108.854419 71.404959 
L 290.996488 482.154704 
" clip-path="url(#p142b16eb1d)" style="fill: none; stroke: #000000; stroke-opacity: 0.6; stroke-width: 0.764256"/>
    <path d="M 108.854419 71.404959 
L 630.960499 514.430872 
" clip-path="url(#p142b16eb1d)" style="fill: none; stroke: #000000; stroke-opacity: 0.6; stroke-width: 0.014697"/>
    <path d="M 108.854419 71.404959 
L 272.040486 554.917165 
" clip-path="url(#p142b16eb1d)" style="fill: none; stroke: #000000; stroke-opacity: 0.6; stroke-width: 0.146972"/>
    <path d="M 108.854419 71.404959 
L 131.892345 84.804399 
" clip-path="url(#p142b16eb1d)" style="fill: none; stroke: #000000; stroke-opacity: 0.6; stroke-width: 0.146972"/>
    <path d="M 108.854419 71.404959 
L 71.404959 128.835703 
" clip-path="url(#p142b16eb1d)" style="fill: none; stroke: #000000; stroke-opacity: 0.6; stroke-width: 0.068587"/>
    <path d="M 108.854419 71.404959 
L 323.819861 471.949101 
" clip-path="url(#p142b16eb1d)" style="fill: none; stroke: #000000; stroke-opacity: 0.6; stroke-width: 0.112679"/>
    <path d="M 108.854419 71.404959 
L 302.636567 433.483013 
" clip-path="url(#p142b16eb1d)" style="fill: none; stroke: #000000; stroke-opacity: 0.6; stroke-width: 0.10778"/>
    <path d="M 108.854419 71.404959 
L 648.595041 648.595041 
" clip-path="url(#p142b16eb1d)" style="fill: none; stroke: #000000; stroke-opacity: 0.6; stroke-width: 0.024495"/>
    <path d="M 108.854419 71.404959 
L 601.808121 521.32962 
" clip-path="url(#p142b16eb1d)" style="fill: none; stroke: #000000; stroke-opacity: 0.6; stroke-width: 0.004899"/>
    <path d="M 108.854419 71.404959 
L 325.039187 558.069427 
" clip-path="url(#p142b16eb1d)" style="fill: none; stroke: #000000; stroke-opacity: 0.6; stroke-width: 0.029394"/>
    <path d="M 98.821377 96.576393 
L 623.815988 549.77701 
" clip-path="url(#p142b16eb1d)" style="fill: none; stroke: #000000; stroke-opacity: 0.6; stroke-width: 0.029394"/>
    <path d="M 98.821377 96.576393 
L 314.878062 520.687979 
" clip-path="url(#p142b16eb1d)" style="fill: none; stroke: #000000; stroke-opacity: 0.6; stroke-width: 0.494807"/>
    <path d="M 98.821377 96.576393 
L 621.141523 577.055886 
" clip-path="url(#p142b16eb1d)" style="fill: none; stroke: #000000; stroke-opacity: 0.6; stroke-width: 0.225358"/>
    <path d="M 98.821377 96.576393 
L 636.246158 581.226633 
" clip-path="url(#p142b16eb1d)" style="fill: none; stroke: #000000; stroke-opacity: 0.6; stroke-width: 0.240055"/>
    <path d="M 98.821377 96.576393 
L 630.960499 514.430872 
" clip-path="url(#p142b16eb1d)" style="fill: none; stroke: #000000; stroke-opacity: 0.6; stroke-width: 0.009798"/>
    <path d="M 98.821377 96.576393 
L 272.040486 554.917165 
" clip-path="url(#p142b16eb1d)" style="fill: none; stroke: #000000; stroke-opacity: 0.6; stroke-width: 0.269449"/>
    <path d="M 98.821377 96.576393 
L 131.892345 84.804399 
" clip-path="url(#p142b16eb1d)" style="fill: none; stroke: #000000; stroke-opacity: 0.6; stroke-width: 0.37233"/>
    <path d="M 98.821377 96.576393 
L 71.404959 128.835703 
" clip-path="url(#p142b16eb1d)" style="fill: none; stroke: #000000; stroke-opacity: 0.6; stroke-width: 0.132275"/>
    <path d="M 98.821377 96.576393 
L 323.819861 471.949101 
" clip-path="url(#p142b16eb1d)" style="fill: none; stroke: #000000; stroke-opacity: 0.6; stroke-width: 0.151871"/>
    <path d="M 98.821377 96.576393 
L 302.636567 433.483013 
" clip-path="url(#p142b16eb1d)" style="fill: none; stroke: #000000; stroke-opacity: 0.6; stroke-width: 0.166569"/>
    <path d="M 98.821377 96.576393 
L 648.595041 648.595041 
" clip-path="url(#p142b16eb1d)" style="fill: none; stroke: #000000; stroke-opacity: 0.6; stroke-width: 0.014697"/>
    <path d="M 98.821377 96.576393 
L 105.677162 155.717832 
" clip-path="url(#p142b16eb1d)" style="fill: none; stroke: #000000; stroke-opacity: 0.6; stroke-width: 1.112091"/>
    <path d="M 98.821377 96.576393 
L 295.162848 537.705446 
" clip-path="url(#p142b16eb1d)" style="fill: none; stroke: #000000; stroke-opacity: 0.6; stroke-width: 0.230257"/>
    <path d="M 98.821377 96.576393 
L 269.528625 489.260207 
" clip-path="url(#p142b16eb1d)" style="fill: none; stroke: #000000; stroke-opacity: 0.6; stroke-width: 0.142073"/>
    <path d="M 98.821377 96.576393 
L 290.996488 482.154704 
" clip-path="url(#p142b16eb1d)" style="fill: none; stroke: #000000; stroke-opacity: 0.6; stroke-width: 0.019596"/>
    <path d="M 98.821377 96.576393 
L 315.180268 590.33997 
" clip-path="url(#p142b16eb1d)" style="fill: none; stroke: #000000; stroke-opacity: 0.6; stroke-width: 0.127376"/>
    <path d="M 98.821377 96.576393 
L 325.039187 558.069427 
" clip-path="url(#p142b16eb1d)" style="fill: none; stroke: #000000; stroke-opacity: 0.6; stroke-width: 0.146972"/>
    <path d="M 623.815988 549.77701 
L 314.878062 520.687979 
" clip-path="url(#p142b16eb1d)" style="fill: none; stroke: #000000; stroke-opacity: 0.6; stroke-width: 0.019596"/>
    <path d="M 623.815988 549.77701 
L 295.162848 537.705446 
" clip-path="url(#p142b16eb1d)" style="fill: none; stroke: #000000; stroke-opacity: 0.6; stroke-width: 0.024495"/>
    <path d="M 623.815988 549.77701 
L 621.141523 577.055886 
" clip-path="url(#p142b16eb1d)" style="fill: none; stroke: #000000; stroke-opacity: 0.6; stroke-width: 2.415246"/>
    <path d="M 623.815988 549.77701 
L 269.528625 489.260207 
" clip-path="url(#p142b16eb1d)" style="fill: none; stroke: #000000; stroke-opacity: 0.6; stroke-width: 0.097982"/>
    <path d="M 623.815988 549.77701 
L 636.246158 581.226633 
" clip-path="url(#p142b16eb1d)" style="fill: none; stroke: #000000; stroke-opacity: 0.6; stroke-width: 0.842642"/>
    <path d="M 623.815988 549.77701 
L 630.960499 514.430872 
" clip-path="url(#p142b16eb1d)" style="fill: none; stroke: #000000; stroke-opacity: 0.6; stroke-width: 1.087596"/>
    <path d="M 623.815988 549.77701 
L 272.040486 554.917165 
" clip-path="url(#p142b16eb1d)" style="fill: none; stroke: #000000; stroke-opacity: 0.6; stroke-width: 0.088183"/>
    <path d="M 623.815988 549.77701 
L 648.595041 648.595041 
" clip-path="url(#p142b16eb1d)" style="fill: none; stroke: #000000; stroke-opacity: 0.6; stroke-width: 0.004899"/>
    <path d="M 623.815988 549.77701 
L 601.808121 521.32962 
" clip-path="url(#p142b16eb1d)" style="fill: none; stroke: #000000; stroke-opacity: 0.6; stroke-width: 0.357633"/>
    <path d="M 623.815988 549.77701 
L 315.180268 590.33997 
" clip-path="url(#p142b16eb1d)" style="fill: none; stroke: #000000; stroke-opacity: 0.6; stroke-width: 0.004899"/>
    <path d="M 623.815988 549.77701 
L 290.996488 482.154704 
" clip-path="url(#p142b16eb1d)" style="fill: none; stroke: #000000; stroke-opacity: 0.6; stroke-width: 0.019596"/>
    <path d="M 623.815988 549.77701 
L 131.892345 84.804399 
" clip-path="url(#p142b16eb1d)" style="fill: none; stroke: #000000; stroke-opacity: 0.6; stroke-width: 0.004899"/>
    <path d="M 623.815988 549.77701 
L 71.404959 128.835703 
" clip-path="url(#p142b16eb1d)" style="fill: none; stroke: #000000; stroke-opacity: 0.6; stroke-width: 0.004899"/>
    <path d="M 623.815988 549.77701 
L 302.636567 433.483013 
" clip-path="url(#p142b16eb1d)" style="fill: none; stroke: #000000; stroke-opacity: 0.6; stroke-width: 0.004899"/>
    <path d="M 623.815988 549.77701 
L 325.039187 558.069427 
" clip-path="url(#p142b16eb1d)" style="fill: none; stroke: #000000; stroke-opacity: 0.6; stroke-width: 0.004899"/>
    <path d="M 105.677162 155.717832 
L 269.528625 489.260207 
" clip-path="url(#p142b16eb1d)" style="fill: none; stroke: #000000; stroke-opacity: 0.6; stroke-width: 0.230257"/>
    <path d="M 105.677162 155.717832 
L 636.246158 581.226633 
" clip-path="url(#p142b16eb1d)" style="fill: none; stroke: #000000; stroke-opacity: 0.6; stroke-width: 0.024495"/>
    <path d="M 105.677162 155.717832 
L 290.996488 482.154704 
" clip-path="url(#p142b16eb1d)" style="fill: none; stroke: #000000; stroke-opacity: 0.6; stroke-width: 0.259651"/>
    <path d="M 105.677162 155.717832 
L 323.819861 471.949101 
" clip-path="url(#p142b16eb1d)" style="fill: none; stroke: #000000; stroke-opacity: 0.6; stroke-width: 0.004899"/>
    <path d="M 105.677162 155.717832 
L 314.878062 520.687979 
" clip-path="url(#p142b16eb1d)" style="fill: none; stroke: #000000; stroke-opacity: 0.6; stroke-width: 0.945522"/>
    <path d="M 105.677162 155.717832 
L 295.162848 537.705446 
" clip-path="url(#p142b16eb1d)" style="fill: none; stroke: #000000; stroke-opacity: 0.6; stroke-width: 0.460513"/>
    <path d="M 105.677162 155.717832 
L 272.040486 554.917165 
" clip-path="url(#p142b16eb1d)" style="fill: none; stroke: #000000; stroke-opacity: 0.6; stroke-width: 0.024495"/>
    <path d="M 105.677162 155.717832 
L 315.180268 590.33997 
" clip-path="url(#p142b16eb1d)" style="fill: none; stroke: #000000; stroke-opacity: 0.6; stroke-width: 0.048991"/>
    <path d="M 105.677162 155.717832 
L 325.039187 558.069427 
" clip-path="url(#p142b16eb1d)" style="fill: none; stroke: #000000; stroke-opacity: 0.6; stroke-width: 0.044092"/>
    <path d="M 314.878062 520.687979 
L 636.246158 581.226633 
" clip-path="url(#p142b16eb1d)" style="fill: none; stroke: #000000; stroke-opacity: 0.6; stroke-width: 0.073486"/>
    <path d="M 314.878062 520.687979 
L 290.996488 482.154704 
" clip-path="url(#p142b16eb1d)" style="fill: none; stroke: #000000; stroke-opacity: 0.6; stroke-width: 0.093083"/>
    <path d="M 314.878062 520.687979 
L 272.040486 554.917165 
" clip-path="url(#p142b16eb1d)" style="fill: none; stroke: #000000; stroke-opacity: 0.6; stroke-width: 0.05389"/>
    <path d="M 314.878062 520.687979 
L 131.892345 84.804399 
" clip-path="url(#p142b16eb1d)" style="fill: none; stroke: #000000; stroke-opacity: 0.6; stroke-width: 0.014697"/>
    <path d="M 314.878062 520.687979 
L 71.404959 128.835703 
" clip-path="url(#p142b16eb1d)" style="fill: none; stroke: #000000; stroke-opacity: 0.6; stroke-width: 0.05389"/>
    <path d="M 314.878062 520.687979 
L 323.819861 471.949101 
" clip-path="url(#p142b16eb1d)" style="fill: none; stroke: #000000; stroke-opacity: 0.6; stroke-width: 0.171468"/>
    <path d="M 314.878062 520.687979 
L 315.180268 590.33997 
" clip-path="url(#p142b16eb1d)" style="fill: none; stroke: #000000; stroke-opacity: 0.6; stroke-width: 0.411523"/>
    <path d="M 314.878062 520.687979 
L 325.039187 558.069427 
" clip-path="url(#p142b16eb1d)" style="fill: none; stroke: #000000; stroke-opacity: 0.6; stroke-width: 0.137174"/>
    <path d="M 314.878062 520.687979 
L 302.636567 433.483013 
" clip-path="url(#p142b16eb1d)" style="fill: none; stroke: #000000; stroke-opacity: 0.6; stroke-width: 0.191064"/>
    <path d="M 314.878062 520.687979 
L 648.595041 648.595041 
" clip-path="url(#p142b16eb1d)" style="fill: none; stroke: #000000; stroke-opacity: 0.6; stroke-width: 0.004899"/>
    <path d="M 295.162848 537.705446 
L 621.141523 577.055886 
" clip-path="url(#p142b16eb1d)" style="fill: none; stroke: #000000; stroke-opacity: 0.6; stroke-width: 0.034294"/>
    <path d="M 295.162848 537.705446 
L 269.528625 489.260207 
" clip-path="url(#p142b16eb1d)" style="fill: none; stroke: #000000; stroke-opacity: 0.6; stroke-width: 0.308642"/>
    <path d="M 295.162848 537.705446 
L 636.246158 581.226633 
" clip-path="url(#p142b16eb1d)" style="fill: none; stroke: #000000; stroke-opacity: 0.6; stroke-width: 0.024495"/>
    <path d="M 295.162848 537.705446 
L 290.996488 482.154704 
" clip-path="url(#p142b16eb1d)" style="fill: none; stroke: #000000; stroke-opacity: 0.6; stroke-width: 0.176367"/>
    <path d="M 295.162848 537.705446 
L 630.960499 514.430872 
" clip-path="url(#p142b16eb1d)" style="fill: none; stroke: #000000; stroke-opacity: 0.6; stroke-width: 0.05389"/>
    <path d="M 295.162848 537.705446 
L 272.040486 554.917165 
" clip-path="url(#p142b16eb1d)" style="fill: none; stroke: #000000; stroke-opacity: 0.6; stroke-width: 0.068587"/>
    <path d="M 295.162848 537.705446 
L 323.819861 471.949101 
" clip-path="url(#p142b16eb1d)" style="fill: none; stroke: #000000; stroke-opacity: 0.6; stroke-width: 0.058789"/>
    <path d="M 295.162848 537.705446 
L 302.636567 433.483013 
" clip-path="url(#p142b16eb1d)" style="fill: none; stroke: #000000; stroke-opacity: 0.6; stroke-width: 0.034294"/>
    <path d="M 295.162848 537.705446 
L 648.595041 648.595041 
" clip-path="url(#p142b16eb1d)" style="fill: none; stroke: #000000; stroke-opacity: 0.6; stroke-width: 0.009798"/>
    <path d="M 295.162848 537.705446 
L 601.808121 521.32962 
" clip-path="url(#p142b16eb1d)" style="fill: none; stroke: #000000; stroke-opacity: 0.6; stroke-width: 0.009798"/>
    <path d="M 295.162848 537.705446 
L 315.180268 590.33997 
" clip-path="url(#p142b16eb1d)" style="fill: none; stroke: #000000; stroke-opacity: 0.6; stroke-width: 0.156771"/>
    <path d="M 295.162848 537.705446 
L 325.039187 558.069427 
" clip-path="url(#p142b16eb1d)" style="fill: none; stroke: #000000; stroke-opacity: 0.6; stroke-width: 0.289046"/>
    <path d="M 621.141523 577.055886 
L 636.246158 581.226633 
" clip-path="url(#p142b16eb1d)" style="fill: none; stroke: #000000; stroke-opacity: 0.6; stroke-width: 0.225358"/>
    <path d="M 621.141523 577.055886 
L 630.960499 514.430872 
" clip-path="url(#p142b16eb1d)" style="fill: none; stroke: #000000; stroke-opacity: 0.6; stroke-width: 0.009798"/>
    <path d="M 621.141523 577.055886 
L 272.040486 554.917165 
" clip-path="url(#p142b16eb1d)" style="fill: none; stroke: #000000; stroke-opacity: 0.6; stroke-width: 0.048991"/>
    <path d="M 621.141523 577.055886 
L 648.595041 648.595041 
" clip-path="url(#p142b16eb1d)" style="fill: none; stroke: #000000; stroke-opacity: 0.6; stroke-width: 0.048991"/>
    <path d="M 621.141523 577.055886 
L 601.808121 521.32962 
" clip-path="url(#p142b16eb1d)" style="fill: none; stroke: #000000; stroke-opacity: 0.6; stroke-width: 0.009798"/>
    <path d="M 621.141523 577.055886 
L 269.528625 489.260207 
" clip-path="url(#p142b16eb1d)" style="fill: none; stroke: #000000; stroke-opacity: 0.6; stroke-width: 0.019596"/>
    <path d="M 621.141523 577.055886 
L 290.996488 482.154704 
" clip-path="url(#p142b16eb1d)" style="fill: none; stroke: #000000; stroke-opacity: 0.6; stroke-width: 0.029394"/>
    <path d="M 269.528625 489.260207 
L 290.996488 482.154704 
" clip-path="url(#p142b16eb1d)" style="fill: none; stroke: #000000; stroke-opacity: 0.6; stroke-width: 0.244954"/>
    <path d="M 269.528625 489.260207 
L 630.960499 514.430872 
" clip-path="url(#p142b16eb1d)" style="fill: none; stroke: #000000; stroke-opacity: 0.6; stroke-width: 0.004899"/>
    <path d="M 269.528625 489.260207 
L 131.892345 84.804399 
" clip-path="url(#p142b16eb1d)" style="fill: none; stroke: #000000; stroke-opacity: 0.6; stroke-width: 0.004899"/>
    <path d="M 269.528625 489.260207 
L 302.636567 433.483013 
" clip-path="url(#p142b16eb1d)" style="fill: none; stroke: #000000; stroke-opacity: 0.6; stroke-width: 0.044092"/>
    <path d="M 269.528625 489.260207 
L 648.595041 648.595041 
" clip-path="url(#p142b16eb1d)" style="fill: none; stroke: #000000; stroke-opacity: 0.6; stroke-width: 0.034294"/>
    <path d="M 269.528625 489.260207 
L 272.040486 554.917165 
" clip-path="url(#p142b16eb1d)" style="fill: none; stroke: #000000; stroke-opacity: 0.6; stroke-width: 0.044092"/>
    <path d="M 636.246158 581.226633 
L 290.996488 482.154704 
" clip-path="url(#p142b16eb1d)" style="fill: none; stroke: #000000; stroke-opacity: 0.6; stroke-width: 0.112679"/>
    <path d="M 636.246158 581.226633 
L 630.960499 514.430872 
" clip-path="url(#p142b16eb1d)" style="fill: none; stroke: #000000; stroke-opacity: 0.6; stroke-width: 0.029394"/>
    <path d="M 636.246158 581.226633 
L 272.040486 554.917165 
" clip-path="url(#p142b16eb1d)" style="fill: none; stroke: #000000; stroke-opacity: 0.6; stroke-width: 0.004899"/>
    <path d="M 636.246158 581.226633 
L 71.404959 128.835703 
" clip-path="url(#p142b16eb1d)" style="fill: none; stroke: #000000; stroke-opacity: 0.6; stroke-width: 0.039193"/>
    <path d="M 636.246158 581.226633 
L 302.636567 433.483013 
" clip-path="url(#p142b16eb1d)" style="fill: none; stroke: #000000; stroke-opacity: 0.6; stroke-width: 0.009798"/>
    <path d="M 636.246158 581.226633 
L 648.595041 648.595041 
" clip-path="url(#p142b16eb1d)" style="fill: none; stroke: #000000; stroke-opacity: 0.6; stroke-width: 0.127376"/>
    <path d="M 636.246158 581.226633 
L 601.808121 521.32962 
" clip-path="url(#p142b16eb1d)" style="fill: none; stroke: #000000; stroke-opacity: 0.6; stroke-width: 0.009798"/>
    <path d="M 290.996488 482.154704 
L 630.960499 514.430872 
" clip-path="url(#p142b16eb1d)" style="fill: none; stroke: #000000; stroke-opacity: 0.6; stroke-width: 0.024495"/>
    <path d="M 290.996488 482.154704 
L 302.636567 433.483013 
" clip-path="url(#p142b16eb1d)" style="fill: none; stroke: #000000; stroke-opacity: 0.6; stroke-width: 0.274348"/>
    <path d="M 290.996488 482.154704 
L 648.595041 648.595041 
" clip-path="url(#p142b16eb1d)" style="fill: none; stroke: #000000; stroke-opacity: 0.6; stroke-width: 0.019596"/>
    <path d="M 290.996488 482.154704 
L 272.040486 554.917165 
" clip-path="url(#p142b16eb1d)" style="fill: none; stroke: #000000; stroke-opacity: 0.6; stroke-width: 0.132275"/>
    <path d="M 290.996488 482.154704 
L 131.892345 84.804399 
" clip-path="url(#p142b16eb1d)" style="fill: none; stroke: #000000; stroke-opacity: 0.6; stroke-width: 0.225358"/>
    <path d="M 290.996488 482.154704 
L 323.819861 471.949101 
" clip-path="url(#p142b16eb1d)" style="fill: none; stroke: #000000; stroke-opacity: 0.6; stroke-width: 0.088183"/>
    <path d="M 290.996488 482.154704 
L 325.039187 558.069427 
" clip-path="url(#p142b16eb1d)" style="fill: none; stroke: #000000; stroke-opacity: 0.6; stroke-width: 0.068587"/>
    <path d="M 630.960499 514.430872 
L 272.040486 554.917165 
" clip-path="url(#p142b16eb1d)" style="fill: none; stroke: #000000; stroke-opacity: 0.6; stroke-width: 0.014697"/>
    <path d="M 630.960499 514.430872 
L 648.595041 648.595041 
" clip-path="url(#p142b16eb1d)" style="fill: none; stroke: #000000; stroke-opacity: 0.6; stroke-width: 0.004899"/>
    <path d="M 272.040486 554.917165 
L 71.404959 128.835703 
" clip-path="url(#p142b16eb1d)" style="fill: none; stroke: #000000; stroke-opacity: 0.6; stroke-width: 0.068587"/>
    <path d="M 272.040486 554.917165 
L 323.819861 471.949101 
" clip-path="url(#p142b16eb1d)" style="fill: none; stroke: #000000; stroke-opacity: 0.6; stroke-width: 0.034294"/>
    <path d="M 272.040486 554.917165 
L 648.595041 648.595041 
" clip-path="url(#p142b16eb1d)" style="fill: none; stroke: #000000; stroke-opacity: 0.6; stroke-width: 0.009798"/>
    <path d="M 272.040486 554.917165 
L 601.808121 521.32962 
" clip-path="url(#p142b16eb1d)" style="fill: none; stroke: #000000; stroke-opacity: 0.6; stroke-width: 0.132275"/>
    <path d="M 272.040486 554.917165 
L 325.039187 558.069427 
" clip-path="url(#p142b16eb1d)" style="fill: none; stroke: #000000; stroke-opacity: 0.6; stroke-width: 0.009798"/>
    <path d="M 131.892345 84.804399 
L 302.636567 433.483013 
" clip-path="url(#p142b16eb1d)" style="fill: none; stroke: #000000; stroke-opacity: 0.6; stroke-width: 0.073486"/>
    <path d="M 71.404959 128.835703 
L 325.039187 558.069427 
" clip-path="url(#p142b16eb1d)" style="fill: none; stroke: #000000; stroke-opacity: 0.6; stroke-width: 0.024495"/>
    <path d="M 323.819861 471.949101 
L 302.636567 433.483013 
" clip-path="url(#p142b16eb1d)" style="fill: none; stroke: #000000; stroke-opacity: 0.6; stroke-width: 0.068587"/>
    <path d="M 323.819861 471.949101 
L 315.180268 590.33997 
" clip-path="url(#p142b16eb1d)" style="fill: none; stroke: #000000; stroke-opacity: 0.6; stroke-width: 0.048991"/>
    <path d="M 601.808121 521.32962 
L 325.039187 558.069427 
" clip-path="url(#p142b16eb1d)" style="fill: none; stroke: #000000; stroke-opacity: 0.6; stroke-width: 0.009798"/>
   </g>
   <g id="matplotlib.axis_1">
    <g id="xtick_1"/>
    <g id="xtick_2"/>
    <g id="xtick_3"/>
    <g id="xtick_4"/>
    <g id="xtick_5"/>
    <g id="xtick_6"/>
    <g id="xtick_7"/>
    <g id="xtick_8"/>
    <g id="xtick_9"/>
   </g>
   <g id="matplotlib.axis_2">
    <g id="ytick_1"/>
    <g id="ytick_2"/>
    <g id="ytick_3"/>
    <g id="ytick_4"/>
    <g id="ytick_5"/>
    <g id="ytick_6"/>
    <g id="ytick_7"/>
    <g id="ytick_8"/>
    <g id="ytick_9"/>
   </g>
   <g id="PathCollection_1">
    <defs>
     <path id="ma9685fc836" d="M 0 10 
C 2.652031 10 5.195799 8.946337 7.071068 7.071068 
C 8.946337 5.195799 10 2.652031 10 0 
C 10 -2.652031 8.946337 -5.195799 7.071068 -7.071068 
C 5.195799 -8.946337 2.652031 -10 0 -10 
C -2.652031 -10 -5.195799 -8.946337 -7.071068 -7.071068 
C -8.946337 -5.195799 -10 -2.652031 -10 0 
C -10 2.652031 -8.946337 5.195799 -7.071068 7.071068 
C -5.195799 8.946337 -2.652031 10 0 10 
z
" style="stroke: #1f77b4"/>
    </defs>
    <g clip-path="url(#p142b16eb1d)">
     <use xlink:href="#ma9685fc836" x="314.878062" y="520.687979" style="fill: #1f77b4; stroke: #1f77b4"/>
     <use xlink:href="#ma9685fc836" x="295.162848" y="537.705446" style="fill: #1f77b4; stroke: #1f77b4"/>
     <use xlink:href="#ma9685fc836" x="269.528625" y="489.260207" style="fill: #1f77b4; stroke: #1f77b4"/>
     <use xlink:href="#ma9685fc836" x="290.996488" y="482.154704" style="fill: #1f77b4; stroke: #1f77b4"/>
     <use xlink:href="#ma9685fc836" x="272.040486" y="554.917165" style="fill: #1f77b4; stroke: #1f77b4"/>
     <use xlink:href="#ma9685fc836" x="323.819861" y="471.949101" style="fill: #1f77b4; stroke: #1f77b4"/>
     <use xlink:href="#ma9685fc836" x="302.636567" y="433.483013" style="fill: #1f77b4; stroke: #1f77b4"/>
     <use xlink:href="#ma9685fc836" x="315.180268" y="590.33997" style="fill: #1f77b4; stroke: #1f77b4"/>
     <use xlink:href="#ma9685fc836" x="325.039187" y="558.069427" style="fill: #1f77b4; stroke: #1f77b4"/>
    </g>
   </g>
   <g id="PathCollection_2">
    <defs>
     <path id="m0b949f30bb" d="M 0 10 
C 2.652031 10 5.195799 8.946337 7.071068 7.071068 
C 8.946337 5.195799 10 2.652031 10 0 
C 10 -2.652031 8.946337 -5.195799 7.071068 -7.071068 
C 5.195799 -8.946337 2.652031 -10 0 -10 
C -2.652031 -10 -5.195799 -8.946337 -7.071068 -7.071068 
C -8.946337 -5.195799 -10 -2.652031 -10 0 
C -10 2.652031 -8.946337 5.195799 -7.071068 7.071068 
C -5.195799 8.946337 -2.652031 10 0 10 
z
" style="stroke: #ff7f0e"/>
    </defs>
    <g clip-path="url(#p142b16eb1d)">
     <use xlink:href="#m0b949f30bb" x="106.614181" y="113.087648" style="fill: #ff7f0e; stroke: #ff7f0e"/>
     <use xlink:href="#m0b949f30bb" x="97.089534" y="126.290914" style="fill: #ff7f0e; stroke: #ff7f0e"/>
     <use xlink:href="#m0b949f30bb" x="108.854419" y="71.404959" style="fill: #ff7f0e; stroke: #ff7f0e"/>
     <use xlink:href="#m0b949f30bb" x="98.821377" y="96.576393" style="fill: #ff7f0e; stroke: #ff7f0e"/>
     <use xlink:href="#m0b949f30bb" x="105.677162" y="155.717832" style="fill: #ff7f0e; stroke: #ff7f0e"/>
     <use xlink:href="#m0b949f30bb" x="131.892345" y="84.804399" style="fill: #ff7f0e; stroke: #ff7f0e"/>
     <use xlink:href="#m0b949f30bb" x="71.404959" y="128.835703" style="fill: #ff7f0e; stroke: #ff7f0e"/>
    </g>
   </g>
   <g id="PathCollection_3">
    <defs>
     <path id="mb80266c72c" d="M 0 10 
C 2.652031 10 5.195799 8.946337 7.071068 7.071068 
C 8.946337 5.195799 10 2.652031 10 0 
C 10 -2.652031 8.946337 -5.195799 7.071068 -7.071068 
C 5.195799 -8.946337 2.652031 -10 0 -10 
C -2.652031 -10 -5.195799 -8.946337 -7.071068 -7.071068 
C -8.946337 -5.195799 -10 -2.652031 -10 0 
C -10 2.652031 -8.946337 5.195799 -7.071068 7.071068 
C -5.195799 8.946337 -2.652031 10 0 10 
z
" style="stroke: #2ca02c"/>
    </defs>
    <g clip-path="url(#p142b16eb1d)">
     <use xlink:href="#mb80266c72c" x="648.595041" y="648.595041" style="fill: #2ca02c; stroke: #2ca02c"/>
     <use xlink:href="#mb80266c72c" x="601.808121" y="521.32962" style="fill: #2ca02c; stroke: #2ca02c"/>
     <use xlink:href="#mb80266c72c" x="623.815988" y="549.77701" style="fill: #2ca02c; stroke: #2ca02c"/>
     <use xlink:href="#mb80266c72c" x="621.141523" y="577.055886" style="fill: #2ca02c; stroke: #2ca02c"/>
     <use xlink:href="#mb80266c72c" x="636.246158" y="581.226633" style="fill: #2ca02c; stroke: #2ca02c"/>
     <use xlink:href="#mb80266c72c" x="630.960499" y="514.430872" style="fill: #2ca02c; stroke: #2ca02c"/>
    </g>
   </g>
   <g id="patch_3">
    <path d="M 10.8 709.2 
L 10.8 10.8 
" style="fill: none; stroke: #000000; stroke-width: 0.8; stroke-linejoin: miter; stroke-linecap: square"/>
   </g>
   <g id="patch_4">
    <path d="M 709.2 709.2 
L 709.2 10.8 
" style="fill: none; stroke: #000000; stroke-width: 0.8; stroke-linejoin: miter; stroke-linecap: square"/>
   </g>
   <g id="patch_5">
    <path d="M 10.8 709.2 
L 709.2 709.2 
" style="fill: none; stroke: #000000; stroke-width: 0.8; stroke-linejoin: miter; stroke-linecap: square"/>
   </g>
   <g id="patch_6">
    <path d="M 10.8 10.8 
L 709.2 10.8 
" style="fill: none; stroke: #000000; stroke-width: 0.8; stroke-linejoin: miter; stroke-linecap: square"/>
   </g>
   <g id="text_1">
    <g clip-path="url(#p142b16eb1d)">
     <!-- 0 -->
     <g transform="translate(104.069181 115.295148) scale(0.08 -0.08)">
      <defs>
       <path id="DejaVuSans-30" d="M 2034 4250 
Q 1547 4250 1301 3770 
Q 1056 3291 1056 2328 
Q 1056 1369 1301 889 
Q 1547 409 2034 409 
Q 2525 409 2770 889 
Q 3016 1369 3016 2328 
Q 3016 3291 2770 3770 
Q 2525 4250 2034 4250 
z
M 2034 4750 
Q 2819 4750 3233 4129 
Q 3647 3509 3647 2328 
Q 3647 1150 3233 529 
Q 2819 -91 2034 -91 
Q 1250 -91 836 529 
Q 422 1150 422 2328 
Q 422 3509 836 4129 
Q 1250 4750 2034 4750 
z
" transform="scale(0.015625)"/>
      </defs>
      <use xlink:href="#DejaVuSans-30"/>
     </g>
    </g>
   </g>
   <g id="text_2">
    <g clip-path="url(#p142b16eb1d)">
     <!-- 1 -->
     <g transform="translate(94.544534 128.498414) scale(0.08 -0.08)">
      <defs>
       <path id="DejaVuSans-31" d="M 794 531 
L 1825 531 
L 1825 4091 
L 703 3866 
L 703 4441 
L 1819 4666 
L 2450 4666 
L 2450 531 
L 3481 531 
L 3481 0 
L 794 0 
L 794 531 
z
" transform="scale(0.015625)"/>
      </defs>
      <use xlink:href="#DejaVuSans-31"/>
     </g>
    </g>
   </g>
   <g id="text_3">
    <g clip-path="url(#p142b16eb1d)">
     <!-- 2 -->
     <g transform="translate(106.309419 73.612459) scale(0.08 -0.08)">
      <defs>
       <path id="DejaVuSans-32" d="M 1228 531 
L 3431 531 
L 3431 0 
L 469 0 
L 469 531 
Q 828 903 1448 1529 
Q 2069 2156 2228 2338 
Q 2531 2678 2651 2914 
Q 2772 3150 2772 3378 
Q 2772 3750 2511 3984 
Q 2250 4219 1831 4219 
Q 1534 4219 1204 4116 
Q 875 4013 500 3803 
L 500 4441 
Q 881 4594 1212 4672 
Q 1544 4750 1819 4750 
Q 2544 4750 2975 4387 
Q 3406 4025 3406 3419 
Q 3406 3131 3298 2873 
Q 3191 2616 2906 2266 
Q 2828 2175 2409 1742 
Q 1991 1309 1228 531 
z
" transform="scale(0.015625)"/>
      </defs>
      <use xlink:href="#DejaVuSans-32"/>
     </g>
    </g>
   </g>
   <g id="text_4">
    <g clip-path="url(#p142b16eb1d)">
     <!-- 3 -->
     <g transform="translate(96.276377 98.783893) scale(0.08 -0.08)">
      <defs>
       <path id="DejaVuSans-33" d="M 2597 2516 
Q 3050 2419 3304 2112 
Q 3559 1806 3559 1356 
Q 3559 666 3084 287 
Q 2609 -91 1734 -91 
Q 1441 -91 1130 -33 
Q 819 25 488 141 
L 488 750 
Q 750 597 1062 519 
Q 1375 441 1716 441 
Q 2309 441 2620 675 
Q 2931 909 2931 1356 
Q 2931 1769 2642 2001 
Q 2353 2234 1838 2234 
L 1294 2234 
L 1294 2753 
L 1863 2753 
Q 2328 2753 2575 2939 
Q 2822 3125 2822 3475 
Q 2822 3834 2567 4026 
Q 2313 4219 1838 4219 
Q 1578 4219 1281 4162 
Q 984 4106 628 3988 
L 628 4550 
Q 988 4650 1302 4700 
Q 1616 4750 1894 4750 
Q 2613 4750 3031 4423 
Q 3450 4097 3450 3541 
Q 3450 3153 3228 2886 
Q 3006 2619 2597 2516 
z
" transform="scale(0.015625)"/>
      </defs>
      <use xlink:href="#DejaVuSans-33"/>
     </g>
    </g>
   </g>
   <g id="text_5">
    <g clip-path="url(#p142b16eb1d)">
     <!-- 4 -->
     <g transform="translate(621.270988 551.98451) scale(0.08 -0.08)">
      <defs>
       <path id="DejaVuSans-34" d="M 2419 4116 
L 825 1625 
L 2419 1625 
L 2419 4116 
z
M 2253 4666 
L 3047 4666 
L 3047 1625 
L 3713 1625 
L 3713 1100 
L 3047 1100 
L 3047 0 
L 2419 0 
L 2419 1100 
L 313 1100 
L 313 1709 
L 2253 4666 
z
" transform="scale(0.015625)"/>
      </defs>
      <use xlink:href="#DejaVuSans-34"/>
     </g>
    </g>
   </g>
   <g id="text_6">
    <g clip-path="url(#p142b16eb1d)">
     <!-- 5 -->
     <g transform="translate(103.132162 157.925332) scale(0.08 -0.08)">
      <defs>
       <path id="DejaVuSans-35" d="M 691 4666 
L 3169 4666 
L 3169 4134 
L 1269 4134 
L 1269 2991 
Q 1406 3038 1543 3061 
Q 1681 3084 1819 3084 
Q 2600 3084 3056 2656 
Q 3513 2228 3513 1497 
Q 3513 744 3044 326 
Q 2575 -91 1722 -91 
Q 1428 -91 1123 -41 
Q 819 9 494 109 
L 494 744 
Q 775 591 1075 516 
Q 1375 441 1709 441 
Q 2250 441 2565 725 
Q 2881 1009 2881 1497 
Q 2881 1984 2565 2268 
Q 2250 2553 1709 2553 
Q 1456 2553 1204 2497 
Q 953 2441 691 2322 
L 691 4666 
z
" transform="scale(0.015625)"/>
      </defs>
      <use xlink:href="#DejaVuSans-35"/>
     </g>
    </g>
   </g>
   <g id="text_7">
    <g clip-path="url(#p142b16eb1d)">
     <!-- 6 -->
     <g transform="translate(312.333062 522.895479) scale(0.08 -0.08)">
      <defs>
       <path id="DejaVuSans-36" d="M 2113 2584 
Q 1688 2584 1439 2293 
Q 1191 2003 1191 1497 
Q 1191 994 1439 701 
Q 1688 409 2113 409 
Q 2538 409 2786 701 
Q 3034 994 3034 1497 
Q 3034 2003 2786 2293 
Q 2538 2584 2113 2584 
z
M 3366 4563 
L 3366 3988 
Q 3128 4100 2886 4159 
Q 2644 4219 2406 4219 
Q 1781 4219 1451 3797 
Q 1122 3375 1075 2522 
Q 1259 2794 1537 2939 
Q 1816 3084 2150 3084 
Q 2853 3084 3261 2657 
Q 3669 2231 3669 1497 
Q 3669 778 3244 343 
Q 2819 -91 2113 -91 
Q 1303 -91 875 529 
Q 447 1150 447 2328 
Q 447 3434 972 4092 
Q 1497 4750 2381 4750 
Q 2619 4750 2861 4703 
Q 3103 4656 3366 4563 
z
" transform="scale(0.015625)"/>
      </defs>
      <use xlink:href="#DejaVuSans-36"/>
     </g>
    </g>
   </g>
   <g id="text_8">
    <g clip-path="url(#p142b16eb1d)">
     <!-- 7 -->
     <g transform="translate(292.617848 539.912946) scale(0.08 -0.08)">
      <defs>
       <path id="DejaVuSans-37" d="M 525 4666 
L 3525 4666 
L 3525 4397 
L 1831 0 
L 1172 0 
L 2766 4134 
L 525 4134 
L 525 4666 
z
" transform="scale(0.015625)"/>
      </defs>
      <use xlink:href="#DejaVuSans-37"/>
     </g>
    </g>
   </g>
   <g id="text_9">
    <g clip-path="url(#p142b16eb1d)">
     <!-- 8 -->
     <g transform="translate(618.596523 579.263386) scale(0.08 -0.08)">
      <defs>
       <path id="DejaVuSans-38" d="M 2034 2216 
Q 1584 2216 1326 1975 
Q 1069 1734 1069 1313 
Q 1069 891 1326 650 
Q 1584 409 2034 409 
Q 2484 409 2743 651 
Q 3003 894 3003 1313 
Q 3003 1734 2745 1975 
Q 2488 2216 2034 2216 
z
M 1403 2484 
Q 997 2584 770 2862 
Q 544 3141 544 3541 
Q 544 4100 942 4425 
Q 1341 4750 2034 4750 
Q 2731 4750 3128 4425 
Q 3525 4100 3525 3541 
Q 3525 3141 3298 2862 
Q 3072 2584 2669 2484 
Q 3125 2378 3379 2068 
Q 3634 1759 3634 1313 
Q 3634 634 3220 271 
Q 2806 -91 2034 -91 
Q 1263 -91 848 271 
Q 434 634 434 1313 
Q 434 1759 690 2068 
Q 947 2378 1403 2484 
z
M 1172 3481 
Q 1172 3119 1398 2916 
Q 1625 2713 2034 2713 
Q 2441 2713 2670 2916 
Q 2900 3119 2900 3481 
Q 2900 3844 2670 4047 
Q 2441 4250 2034 4250 
Q 1625 4250 1398 4047 
Q 1172 3844 1172 3481 
z
" transform="scale(0.015625)"/>
      </defs>
      <use xlink:href="#DejaVuSans-38"/>
     </g>
    </g>
   </g>
   <g id="text_10">
    <g clip-path="url(#p142b16eb1d)">
     <!-- 9 -->
     <g transform="translate(266.983625 491.467707) scale(0.08 -0.08)">
      <defs>
       <path id="DejaVuSans-39" d="M 703 97 
L 703 672 
Q 941 559 1184 500 
Q 1428 441 1663 441 
Q 2288 441 2617 861 
Q 2947 1281 2994 2138 
Q 2813 1869 2534 1725 
Q 2256 1581 1919 1581 
Q 1219 1581 811 2004 
Q 403 2428 403 3163 
Q 403 3881 828 4315 
Q 1253 4750 1959 4750 
Q 2769 4750 3195 4129 
Q 3622 3509 3622 2328 
Q 3622 1225 3098 567 
Q 2575 -91 1691 -91 
Q 1453 -91 1209 -44 
Q 966 3 703 97 
z
M 1959 2075 
Q 2384 2075 2632 2365 
Q 2881 2656 2881 3163 
Q 2881 3666 2632 3958 
Q 2384 4250 1959 4250 
Q 1534 4250 1286 3958 
Q 1038 3666 1038 3163 
Q 1038 2656 1286 2365 
Q 1534 2075 1959 2075 
z
" transform="scale(0.015625)"/>
      </defs>
      <use xlink:href="#DejaVuSans-39"/>
     </g>
    </g>
   </g>
   <g id="text_11">
    <g clip-path="url(#p142b16eb1d)">
     <!-- 10 -->
     <g transform="translate(631.156158 583.434133) scale(0.08 -0.08)">
      <use xlink:href="#DejaVuSans-31"/>
      <use xlink:href="#DejaVuSans-30" x="63.623047"/>
     </g>
    </g>
   </g>
   <g id="text_12">
    <g clip-path="url(#p142b16eb1d)">
     <!-- 11 -->
     <g transform="translate(285.906488 484.362204) scale(0.08 -0.08)">
      <use xlink:href="#DejaVuSans-31"/>
      <use xlink:href="#DejaVuSans-31" x="63.623047"/>
     </g>
    </g>
   </g>
   <g id="text_13">
    <g clip-path="url(#p142b16eb1d)">
     <!-- 12 -->
     <g transform="translate(625.870499 516.638372) scale(0.08 -0.08)">
      <use xlink:href="#DejaVuSans-31"/>
      <use xlink:href="#DejaVuSans-32" x="63.623047"/>
     </g>
    </g>
   </g>
   <g id="text_14">
    <g clip-path="url(#p142b16eb1d)">
     <!-- 13 -->
     <g transform="translate(266.950486 557.124665) scale(0.08 -0.08)">
      <use xlink:href="#DejaVuSans-31"/>
      <use xlink:href="#DejaVuSans-33" x="63.623047"/>
     </g>
    </g>
   </g>
   <g id="text_15">
    <g clip-path="url(#p142b16eb1d)">
     <!-- 14 -->
     <g transform="translate(126.802345 87.011899) scale(0.08 -0.08)">
      <use xlink:href="#DejaVuSans-31"/>
      <use xlink:href="#DejaVuSans-34" x="63.623047"/>
     </g>
    </g>
   </g>
   <g id="text_16">
    <g clip-path="url(#p142b16eb1d)">
     <!-- 15 -->
     <g transform="translate(66.314959 131.043203) scale(0.08 -0.08)">
      <use xlink:href="#DejaVuSans-31"/>
      <use xlink:href="#DejaVuSans-35" x="63.623047"/>
     </g>
    </g>
   </g>
   <g id="text_17">
    <g clip-path="url(#p142b16eb1d)">
     <!-- 16 -->
     <g transform="translate(318.729861 474.156601) scale(0.08 -0.08)">
      <use xlink:href="#DejaVuSans-31"/>
      <use xlink:href="#DejaVuSans-36" x="63.623047"/>
     </g>
    </g>
   </g>
   <g id="text_18">
    <g clip-path="url(#p142b16eb1d)">
     <!-- 17 -->
     <g transform="translate(297.546567 435.690513) scale(0.08 -0.08)">
      <use xlink:href="#DejaVuSans-31"/>
      <use xlink:href="#DejaVuSans-37" x="63.623047"/>
     </g>
    </g>
   </g>
   <g id="text_19">
    <g clip-path="url(#p142b16eb1d)">
     <!-- 18 -->
     <g transform="translate(643.505041 650.802541) scale(0.08 -0.08)">
      <use xlink:href="#DejaVuSans-31"/>
      <use xlink:href="#DejaVuSans-38" x="63.623047"/>
     </g>
    </g>
   </g>
   <g id="text_20">
    <g clip-path="url(#p142b16eb1d)">
     <!-- 19 -->
     <g transform="translate(596.718121 523.53712) scale(0.08 -0.08)">
      <use xlink:href="#DejaVuSans-31"/>
      <use xlink:href="#DejaVuSans-39" x="63.623047"/>
     </g>
    </g>
   </g>
   <g id="text_21">
    <g clip-path="url(#p142b16eb1d)">
     <!-- 20 -->
     <g transform="translate(310.090268 592.54747) scale(0.08 -0.08)">
      <use xlink:href="#DejaVuSans-32"/>
      <use xlink:href="#DejaVuSans-30" x="63.623047"/>
     </g>
    </g>
   </g>
   <g id="text_22">
    <g clip-path="url(#p142b16eb1d)">
     <!-- 21 -->
     <g transform="translate(319.949187 560.276927) scale(0.08 -0.08)">
      <use xlink:href="#DejaVuSans-32"/>
      <use xlink:href="#DejaVuSans-31" x="63.623047"/>
     </g>
    </g>
   </g>
  </g>
 </g>
 <defs>
  <clipPath id="p142b16eb1d">
   <rect x="10.8" y="10.8" width="698.4" height="698.4"/>
  </clipPath>
 </defs>
</svg>
