<?xml version="1.0" encoding="utf-8" standalone="no"?>
<!DOCTYPE svg PUBLIC "-//W3C//DTD SVG 1.1//EN"
  "http://www.w3.org/Graphics/SVG/1.1/DTD/svg11.dtd">
<svg xmlns:xlink="http://www.w3.org/1999/xlink" width="720pt" height="720pt" viewBox="0 0 720 720" xmlns="http://www.w3.org/2000/svg" version="1.1">
 <metadata>
  <rdf:RDF xmlns:dc="http://purl.org/dc/elements/1.1/" xmlns:cc="http://creativecommons.org/ns#" xmlns:rdf="http://www.w3.org/1999/02/22-rdf-syntax-ns#">
   <cc:Work>
    <dc:type rdf:resource="http://purl.org/dc/dcmitype/StillImage"/>
    <dc:date>2024-08-20T13:31:34.369131</dc:date>
    <dc:format>image/svg+xml</dc:format>
    <dc:creator>
     <cc:Agent>
      <dc:title>Matplotlib v3.8.4, https://matplotlib.org/</dc:title>
     </cc:Agent>
    </dc:creator>
   </cc:Work>
  </rdf:RDF>
 </metadata>
 <defs>
  <style type="text/css">*{stroke-linejoin: round; stroke-linecap: butt}</style>
 </defs>
 <g id="figure_1">
  <g id="patch_1">
   <path d="M 0 720 
L 720 720 
L 720 0 
L 0 0 
z
" style="fill: #ffffff"/>
  </g>
  <g id="axes_1">
   <g id="patch_2">
    <path d="M 10.8 709.2 
L 709.2 709.2 
L 709.2 10.8 
L 10.8 10.8 
z
" style="fill: #ffffff"/>
   </g>
   <g id="LineCollection_1">
    <path d="M 621.109738 170.002018 
L 607.096558 164.465361 
" clip-path="url(#p17dfec1324)" style="fill: none; stroke: #000000; stroke-opacity: 0.6; stroke-width: 9.547605"/>
    <path d="M 621.109738 170.002018 
L 637.849904 118.208158 
" clip-path="url(#p17dfec1324)" style="fill: none; stroke: #000000; stroke-opacity: 0.6; stroke-width: 3.64448"/>
    <path d="M 621.109738 170.002018 
L 619.624802 106.52604 
" clip-path="url(#p17dfec1324)" style="fill: none; stroke: #000000; stroke-opacity: 0.6; stroke-width: 4.377374"/>
    <path d="M 621.109738 170.002018 
L 86.279696 152.807599 
" clip-path="url(#p17dfec1324)" style="fill: none; stroke: #000000; stroke-opacity: 0.6; stroke-width: 0.186555"/>
    <path d="M 621.109738 170.002018 
L 286.17532 537.386734 
" clip-path="url(#p17dfec1324)" style="fill: none; stroke: #000000; stroke-opacity: 0.6; stroke-width: 2.57179"/>
    <path d="M 621.109738 170.002018 
L 278.5043 596.228785 
" clip-path="url(#p17dfec1324)" style="fill: none; stroke: #000000; stroke-opacity: 0.6; stroke-width: 0.306483"/>
    <path d="M 621.109738 170.002018 
L 299.235716 505.090035 
" clip-path="url(#p17dfec1324)" style="fill: none; stroke: #000000; stroke-opacity: 0.6; stroke-width: 0.559664"/>
    <path d="M 621.109738 170.002018 
L 95.19867 197.602067 
" clip-path="url(#p17dfec1324)" style="fill: none; stroke: #000000; stroke-opacity: 0.6; stroke-width: 0.033313"/>
    <path d="M 621.109738 170.002018 
L 289.485384 392.060307 
" clip-path="url(#p17dfec1324)" style="fill: none; stroke: #000000; stroke-opacity: 0.6; stroke-width: 0.273169"/>
    <path d="M 621.109738 170.002018 
L 109.677158 153.087818 
" clip-path="url(#p17dfec1324)" style="fill: none; stroke: #000000; stroke-opacity: 0.6; stroke-width: 0.239856"/>
    <path d="M 621.109738 170.002018 
L 270.802529 466.847221 
" clip-path="url(#p17dfec1324)" style="fill: none; stroke: #000000; stroke-opacity: 0.6; stroke-width: 0.639616"/>
    <path d="M 621.109738 170.002018 
L 71.404959 71.404959 
" clip-path="url(#p17dfec1324)" style="fill: none; stroke: #000000; stroke-opacity: 0.6; stroke-width: 0.013325"/>
    <path d="M 621.109738 170.002018 
L 577.201943 167.49713 
" clip-path="url(#p17dfec1324)" style="fill: none; stroke: #000000; stroke-opacity: 0.6; stroke-width: 0.266507"/>
    <path d="M 621.109738 170.002018 
L 239.851233 569.915295 
" clip-path="url(#p17dfec1324)" style="fill: none; stroke: #000000; stroke-opacity: 0.6; stroke-width: 0.193217"/>
    <path d="M 621.109738 170.002018 
L 139.559241 94.543197 
" clip-path="url(#p17dfec1324)" style="fill: none; stroke: #000000; stroke-opacity: 0.6; stroke-width: 0.066627"/>
    <path d="M 621.109738 170.002018 
L 111.953007 297.708911 
" clip-path="url(#p17dfec1324)" style="fill: none; stroke: #000000; stroke-opacity: 0.6; stroke-width: 0.373109"/>
    <path d="M 621.109738 170.002018 
L 648.595041 236.67736 
" clip-path="url(#p17dfec1324)" style="fill: none; stroke: #000000; stroke-opacity: 0.6; stroke-width: 0.659604"/>
    <path d="M 621.109738 170.002018 
L 256.44128 554.151676 
" clip-path="url(#p17dfec1324)" style="fill: none; stroke: #000000; stroke-opacity: 0.6; stroke-width: 0.333133"/>
    <path d="M 621.109738 170.002018 
L 296.085523 648.595041 
" clip-path="url(#p17dfec1324)" style="fill: none; stroke: #000000; stroke-opacity: 0.6; stroke-width: 0.006663"/>
    <path d="M 621.109738 170.002018 
L 314.479299 559.245991 
" clip-path="url(#p17dfec1324)" style="fill: none; stroke: #000000; stroke-opacity: 0.6; stroke-width: 0.093277"/>
    <path d="M 607.096558 164.465361 
L 637.849904 118.208158 
" clip-path="url(#p17dfec1324)" style="fill: none; stroke: #000000; stroke-opacity: 0.6; stroke-width: 0.379772"/>
    <path d="M 607.096558 164.465361 
L 619.624802 106.52604 
" clip-path="url(#p17dfec1324)" style="fill: none; stroke: #000000; stroke-opacity: 0.6; stroke-width: 3.451263"/>
    <path d="M 607.096558 164.465361 
L 86.279696 152.807599 
" clip-path="url(#p17dfec1324)" style="fill: none; stroke: #000000; stroke-opacity: 0.6; stroke-width: 0.213205"/>
    <path d="M 607.096558 164.465361 
L 286.17532 537.386734 
" clip-path="url(#p17dfec1324)" style="fill: none; stroke: #000000; stroke-opacity: 0.6; stroke-width: 1.752282"/>
    <path d="M 607.096558 164.465361 
L 278.5043 596.228785 
" clip-path="url(#p17dfec1324)" style="fill: none; stroke: #000000; stroke-opacity: 0.6; stroke-width: 0.339796"/>
    <path d="M 607.096558 164.465361 
L 95.19867 197.602067 
" clip-path="url(#p17dfec1324)" style="fill: none; stroke: #000000; stroke-opacity: 0.6; stroke-width: 0.026651"/>
    <path d="M 607.096558 164.465361 
L 270.802529 466.847221 
" clip-path="url(#p17dfec1324)" style="fill: none; stroke: #000000; stroke-opacity: 0.6; stroke-width: 0.173229"/>
    <path d="M 607.096558 164.465361 
L 648.595041 236.67736 
" clip-path="url(#p17dfec1324)" style="fill: none; stroke: #000000; stroke-opacity: 0.6; stroke-width: 0.159904"/>
    <path d="M 607.096558 164.465361 
L 577.201943 167.49713 
" clip-path="url(#p17dfec1324)" style="fill: none; stroke: #000000; stroke-opacity: 0.6; stroke-width: 1.086015"/>
    <path d="M 607.096558 164.465361 
L 73.197907 322.40614 
" clip-path="url(#p17dfec1324)" style="fill: none; stroke: #000000; stroke-opacity: 0.6; stroke-width: 0.006663"/>
    <path d="M 607.096558 164.465361 
L 299.235716 505.090035 
" clip-path="url(#p17dfec1324)" style="fill: none; stroke: #000000; stroke-opacity: 0.6; stroke-width: 0.013325"/>
    <path d="M 607.096558 164.465361 
L 289.485384 392.060307 
" clip-path="url(#p17dfec1324)" style="fill: none; stroke: #000000; stroke-opacity: 0.6; stroke-width: 0.039976"/>
    <path d="M 607.096558 164.465361 
L 109.677158 153.087818 
" clip-path="url(#p17dfec1324)" style="fill: none; stroke: #000000; stroke-opacity: 0.6; stroke-width: 0.153241"/>
    <path d="M 607.096558 164.465361 
L 111.953007 297.708911 
" clip-path="url(#p17dfec1324)" style="fill: none; stroke: #000000; stroke-opacity: 0.6; stroke-width: 0.206543"/>
    <path d="M 607.096558 164.465361 
L 256.44128 554.151676 
" clip-path="url(#p17dfec1324)" style="fill: none; stroke: #000000; stroke-opacity: 0.6; stroke-width: 0.159904"/>
    <path d="M 607.096558 164.465361 
L 239.851233 569.915295 
" clip-path="url(#p17dfec1324)" style="fill: none; stroke: #000000; stroke-opacity: 0.6; stroke-width: 0.106603"/>
    <path d="M 607.096558 164.465361 
L 139.559241 94.543197 
" clip-path="url(#p17dfec1324)" style="fill: none; stroke: #000000; stroke-opacity: 0.6; stroke-width: 0.066627"/>
    <path d="M 607.096558 164.465361 
L 296.085523 648.595041 
" clip-path="url(#p17dfec1324)" style="fill: none; stroke: #000000; stroke-opacity: 0.6; stroke-width: 0.366447"/>
    <path d="M 607.096558 164.465361 
L 314.479299 559.245991 
" clip-path="url(#p17dfec1324)" style="fill: none; stroke: #000000; stroke-opacity: 0.6; stroke-width: 0.153241"/>
    <path d="M 637.849904 118.208158 
L 619.624802 106.52604 
" clip-path="url(#p17dfec1324)" style="fill: none; stroke: #000000; stroke-opacity: 0.6; stroke-width: 1.579053"/>
    <path d="M 637.849904 118.208158 
L 86.279696 152.807599 
" clip-path="url(#p17dfec1324)" style="fill: none; stroke: #000000; stroke-opacity: 0.6; stroke-width: 0.333133"/>
    <path d="M 637.849904 118.208158 
L 286.17532 537.386734 
" clip-path="url(#p17dfec1324)" style="fill: none; stroke: #000000; stroke-opacity: 0.6; stroke-width: 0.033313"/>
    <path d="M 637.849904 118.208158 
L 95.19867 197.602067 
" clip-path="url(#p17dfec1324)" style="fill: none; stroke: #000000; stroke-opacity: 0.6; stroke-width: 0.073289"/>
    <path d="M 637.849904 118.208158 
L 289.485384 392.060307 
" clip-path="url(#p17dfec1324)" style="fill: none; stroke: #000000; stroke-opacity: 0.6; stroke-width: 0.286495"/>
    <path d="M 637.849904 118.208158 
L 109.677158 153.087818 
" clip-path="url(#p17dfec1324)" style="fill: none; stroke: #000000; stroke-opacity: 0.6; stroke-width: 0.039976"/>
    <path d="M 637.849904 118.208158 
L 270.802529 466.847221 
" clip-path="url(#p17dfec1324)" style="fill: none; stroke: #000000; stroke-opacity: 0.6; stroke-width: 0.592978"/>
    <path d="M 637.849904 118.208158 
L 71.404959 71.404959 
" clip-path="url(#p17dfec1324)" style="fill: none; stroke: #000000; stroke-opacity: 0.6; stroke-width: 0.013325"/>
    <path d="M 637.849904 118.208158 
L 111.953007 297.708911 
" clip-path="url(#p17dfec1324)" style="fill: none; stroke: #000000; stroke-opacity: 0.6; stroke-width: 0.119928"/>
    <path d="M 637.849904 118.208158 
L 648.595041 236.67736 
" clip-path="url(#p17dfec1324)" style="fill: none; stroke: #000000; stroke-opacity: 0.6; stroke-width: 0.293157"/>
    <path d="M 637.849904 118.208158 
L 577.201943 167.49713 
" clip-path="url(#p17dfec1324)" style="fill: none; stroke: #000000; stroke-opacity: 0.6; stroke-width: 0.079952"/>
    <path d="M 637.849904 118.208158 
L 256.44128 554.151676 
" clip-path="url(#p17dfec1324)" style="fill: none; stroke: #000000; stroke-opacity: 0.6; stroke-width: 0.166567"/>
    <path d="M 637.849904 118.208158 
L 239.851233 569.915295 
" clip-path="url(#p17dfec1324)" style="fill: none; stroke: #000000; stroke-opacity: 0.6; stroke-width: 0.059964"/>
    <path d="M 637.849904 118.208158 
L 139.559241 94.543197 
" clip-path="url(#p17dfec1324)" style="fill: none; stroke: #000000; stroke-opacity: 0.6; stroke-width: 0.039976"/>
    <path d="M 637.849904 118.208158 
L 73.197907 322.40614 
" clip-path="url(#p17dfec1324)" style="fill: none; stroke: #000000; stroke-opacity: 0.6; stroke-width: 0.006663"/>
    <path d="M 637.849904 118.208158 
L 314.479299 559.245991 
" clip-path="url(#p17dfec1324)" style="fill: none; stroke: #000000; stroke-opacity: 0.6; stroke-width: 0.019988"/>
    <path d="M 619.624802 106.52604 
L 86.279696 152.807599 
" clip-path="url(#p17dfec1324)" style="fill: none; stroke: #000000; stroke-opacity: 0.6; stroke-width: 0.033313"/>
    <path d="M 619.624802 106.52604 
L 278.5043 596.228785 
" clip-path="url(#p17dfec1324)" style="fill: none; stroke: #000000; stroke-opacity: 0.6; stroke-width: 0.719568"/>
    <path d="M 619.624802 106.52604 
L 95.19867 197.602067 
" clip-path="url(#p17dfec1324)" style="fill: none; stroke: #000000; stroke-opacity: 0.6; stroke-width: 0.19988"/>
    <path d="M 619.624802 106.52604 
L 109.677158 153.087818 
" clip-path="url(#p17dfec1324)" style="fill: none; stroke: #000000; stroke-opacity: 0.6; stroke-width: 0.173229"/>
    <path d="M 619.624802 106.52604 
L 71.404959 71.404959 
" clip-path="url(#p17dfec1324)" style="fill: none; stroke: #000000; stroke-opacity: 0.6; stroke-width: 0.006663"/>
    <path d="M 619.624802 106.52604 
L 111.953007 297.708911 
" clip-path="url(#p17dfec1324)" style="fill: none; stroke: #000000; stroke-opacity: 0.6; stroke-width: 0.239856"/>
    <path d="M 619.624802 106.52604 
L 648.595041 236.67736 
" clip-path="url(#p17dfec1324)" style="fill: none; stroke: #000000; stroke-opacity: 0.6; stroke-width: 0.619628"/>
    <path d="M 619.624802 106.52604 
L 577.201943 167.49713 
" clip-path="url(#p17dfec1324)" style="fill: none; stroke: #000000; stroke-opacity: 0.6; stroke-width: 0.133253"/>
    <path d="M 619.624802 106.52604 
L 239.851233 569.915295 
" clip-path="url(#p17dfec1324)" style="fill: none; stroke: #000000; stroke-opacity: 0.6; stroke-width: 0.079952"/>
    <path d="M 619.624802 106.52604 
L 139.559241 94.543197 
" clip-path="url(#p17dfec1324)" style="fill: none; stroke: #000000; stroke-opacity: 0.6; stroke-width: 0.046639"/>
    <path d="M 619.624802 106.52604 
L 73.197907 322.40614 
" clip-path="url(#p17dfec1324)" style="fill: none; stroke: #000000; stroke-opacity: 0.6; stroke-width: 0.006663"/>
    <path d="M 619.624802 106.52604 
L 286.17532 537.386734 
" clip-path="url(#p17dfec1324)" style="fill: none; stroke: #000000; stroke-opacity: 0.6; stroke-width: 1.445799"/>
    <path d="M 619.624802 106.52604 
L 299.235716 505.090035 
" clip-path="url(#p17dfec1324)" style="fill: none; stroke: #000000; stroke-opacity: 0.6; stroke-width: 0.219868"/>
    <path d="M 619.624802 106.52604 
L 289.485384 392.060307 
" clip-path="url(#p17dfec1324)" style="fill: none; stroke: #000000; stroke-opacity: 0.6; stroke-width: 0.166567"/>
    <path d="M 619.624802 106.52604 
L 270.802529 466.847221 
" clip-path="url(#p17dfec1324)" style="fill: none; stroke: #000000; stroke-opacity: 0.6; stroke-width: 0.026651"/>
    <path d="M 619.624802 106.52604 
L 256.44128 554.151676 
" clip-path="url(#p17dfec1324)" style="fill: none; stroke: #000000; stroke-opacity: 0.6; stroke-width: 0.179892"/>
    <path d="M 619.624802 106.52604 
L 296.085523 648.595041 
" clip-path="url(#p17dfec1324)" style="fill: none; stroke: #000000; stroke-opacity: 0.6; stroke-width: 0.226531"/>
    <path d="M 619.624802 106.52604 
L 314.479299 559.245991 
" clip-path="url(#p17dfec1324)" style="fill: none; stroke: #000000; stroke-opacity: 0.6; stroke-width: 0.206543"/>
    <path d="M 86.279696 152.807599 
L 278.5043 596.228785 
" clip-path="url(#p17dfec1324)" style="fill: none; stroke: #000000; stroke-opacity: 0.6; stroke-width: 0.019988"/>
    <path d="M 86.279696 152.807599 
L 299.235716 505.090035 
" clip-path="url(#p17dfec1324)" style="fill: none; stroke: #000000; stroke-opacity: 0.6; stroke-width: 0.006663"/>
    <path d="M 86.279696 152.807599 
L 95.19867 197.602067 
" clip-path="url(#p17dfec1324)" style="fill: none; stroke: #000000; stroke-opacity: 0.6; stroke-width: 1.106003"/>
    <path d="M 86.279696 152.807599 
L 289.485384 392.060307 
" clip-path="url(#p17dfec1324)" style="fill: none; stroke: #000000; stroke-opacity: 0.6; stroke-width: 0.079952"/>
    <path d="M 86.279696 152.807599 
L 109.677158 153.087818 
" clip-path="url(#p17dfec1324)" style="fill: none; stroke: #000000; stroke-opacity: 0.6; stroke-width: 0.639616"/>
    <path d="M 86.279696 152.807599 
L 71.404959 71.404959 
" clip-path="url(#p17dfec1324)" style="fill: none; stroke: #000000; stroke-opacity: 0.6; stroke-width: 0.57299"/>
    <path d="M 86.279696 152.807599 
L 111.953007 297.708911 
" clip-path="url(#p17dfec1324)" style="fill: none; stroke: #000000; stroke-opacity: 0.6; stroke-width: 0.053301"/>
    <path d="M 86.279696 152.807599 
L 139.559241 94.543197 
" clip-path="url(#p17dfec1324)" style="fill: none; stroke: #000000; stroke-opacity: 0.6; stroke-width: 0.013325"/>
    <path d="M 86.279696 152.807599 
L 73.197907 322.40614 
" clip-path="url(#p17dfec1324)" style="fill: none; stroke: #000000; stroke-opacity: 0.6; stroke-width: 0.146579"/>
    <path d="M 86.279696 152.807599 
L 270.802529 466.847221 
" clip-path="url(#p17dfec1324)" style="fill: none; stroke: #000000; stroke-opacity: 0.6; stroke-width: 0.006663"/>
    <path d="M 86.279696 152.807599 
L 648.595041 236.67736 
" clip-path="url(#p17dfec1324)" style="fill: none; stroke: #000000; stroke-opacity: 0.6; stroke-width: 0.013325"/>
    <path d="M 86.279696 152.807599 
L 577.201943 167.49713 
" clip-path="url(#p17dfec1324)" style="fill: none; stroke: #000000; stroke-opacity: 0.6; stroke-width: 0.006663"/>
    <path d="M 86.279696 152.807599 
L 239.851233 569.915295 
" clip-path="url(#p17dfec1324)" style="fill: none; stroke: #000000; stroke-opacity: 0.6; stroke-width: 0.006663"/>
    <path d="M 286.17532 537.386734 
L 289.485384 392.060307 
" clip-path="url(#p17dfec1324)" style="fill: none; stroke: #000000; stroke-opacity: 0.6; stroke-width: 0.186555"/>
    <path d="M 286.17532 537.386734 
L 270.802529 466.847221 
" clip-path="url(#p17dfec1324)" style="fill: none; stroke: #000000; stroke-opacity: 0.6; stroke-width: 0.173229"/>
    <path d="M 286.17532 537.386734 
L 139.559241 94.543197 
" clip-path="url(#p17dfec1324)" style="fill: none; stroke: #000000; stroke-opacity: 0.6; stroke-width: 0.026651"/>
    <path d="M 286.17532 537.386734 
L 278.5043 596.228785 
" clip-path="url(#p17dfec1324)" style="fill: none; stroke: #000000; stroke-opacity: 0.6; stroke-width: 1.259244"/>
    <path d="M 286.17532 537.386734 
L 299.235716 505.090035 
" clip-path="url(#p17dfec1324)" style="fill: none; stroke: #000000; stroke-opacity: 0.6; stroke-width: 0.453061"/>
    <path d="M 286.17532 537.386734 
L 109.677158 153.087818 
" clip-path="url(#p17dfec1324)" style="fill: none; stroke: #000000; stroke-opacity: 0.6; stroke-width: 0.033313"/>
    <path d="M 286.17532 537.386734 
L 296.085523 648.595041 
" clip-path="url(#p17dfec1324)" style="fill: none; stroke: #000000; stroke-opacity: 0.6; stroke-width: 0.106603"/>
    <path d="M 286.17532 537.386734 
L 314.479299 559.245991 
" clip-path="url(#p17dfec1324)" style="fill: none; stroke: #000000; stroke-opacity: 0.6; stroke-width: 0.053301"/>
    <path d="M 278.5043 596.228785 
L 109.677158 153.087818 
" clip-path="url(#p17dfec1324)" style="fill: none; stroke: #000000; stroke-opacity: 0.6; stroke-width: 0.046639"/>
    <path d="M 278.5043 596.228785 
L 270.802529 466.847221 
" clip-path="url(#p17dfec1324)" style="fill: none; stroke: #000000; stroke-opacity: 0.6; stroke-width: 0.106603"/>
    <path d="M 278.5043 596.228785 
L 648.595041 236.67736 
" clip-path="url(#p17dfec1324)" style="fill: none; stroke: #000000; stroke-opacity: 0.6; stroke-width: 0.039976"/>
    <path d="M 278.5043 596.228785 
L 577.201943 167.49713 
" clip-path="url(#p17dfec1324)" style="fill: none; stroke: #000000; stroke-opacity: 0.6; stroke-width: 0.013325"/>
    <path d="M 278.5043 596.228785 
L 256.44128 554.151676 
" clip-path="url(#p17dfec1324)" style="fill: none; stroke: #000000; stroke-opacity: 0.6; stroke-width: 0.273169"/>
    <path d="M 278.5043 596.228785 
L 296.085523 648.595041 
" clip-path="url(#p17dfec1324)" style="fill: none; stroke: #000000; stroke-opacity: 0.6; stroke-width: 0.479712"/>
    <path d="M 278.5043 596.228785 
L 314.479299 559.245991 
" clip-path="url(#p17dfec1324)" style="fill: none; stroke: #000000; stroke-opacity: 0.6; stroke-width: 0.193217"/>
    <path d="M 278.5043 596.228785 
L 111.953007 297.708911 
" clip-path="url(#p17dfec1324)" style="fill: none; stroke: #000000; stroke-opacity: 0.6; stroke-width: 0.013325"/>
    <path d="M 278.5043 596.228785 
L 239.851233 569.915295 
" clip-path="url(#p17dfec1324)" style="fill: none; stroke: #000000; stroke-opacity: 0.6; stroke-width: 0.166567"/>
    <path d="M 278.5043 596.228785 
L 139.559241 94.543197 
" clip-path="url(#p17dfec1324)" style="fill: none; stroke: #000000; stroke-opacity: 0.6; stroke-width: 0.013325"/>
    <path d="M 299.235716 505.090035 
L 95.19867 197.602067 
" clip-path="url(#p17dfec1324)" style="fill: none; stroke: #000000; stroke-opacity: 0.6; stroke-width: 0.006663"/>
    <path d="M 299.235716 505.090035 
L 289.485384 392.060307 
" clip-path="url(#p17dfec1324)" style="fill: none; stroke: #000000; stroke-opacity: 0.6; stroke-width: 0.226531"/>
    <path d="M 299.235716 505.090035 
L 109.677158 153.087818 
" clip-path="url(#p17dfec1324)" style="fill: none; stroke: #000000; stroke-opacity: 0.6; stroke-width: 0.006663"/>
    <path d="M 299.235716 505.090035 
L 270.802529 466.847221 
" clip-path="url(#p17dfec1324)" style="fill: none; stroke: #000000; stroke-opacity: 0.6; stroke-width: 0.139916"/>
    <path d="M 299.235716 505.090035 
L 71.404959 71.404959 
" clip-path="url(#p17dfec1324)" style="fill: none; stroke: #000000; stroke-opacity: 0.6; stroke-width: 0.006663"/>
    <path d="M 299.235716 505.090035 
L 111.953007 297.708911 
" clip-path="url(#p17dfec1324)" style="fill: none; stroke: #000000; stroke-opacity: 0.6; stroke-width: 0.033313"/>
    <path d="M 299.235716 505.090035 
L 256.44128 554.151676 
" clip-path="url(#p17dfec1324)" style="fill: none; stroke: #000000; stroke-opacity: 0.6; stroke-width: 0.079952"/>
    <path d="M 299.235716 505.090035 
L 239.851233 569.915295 
" clip-path="url(#p17dfec1324)" style="fill: none; stroke: #000000; stroke-opacity: 0.6; stroke-width: 0.006663"/>
    <path d="M 299.235716 505.090035 
L 139.559241 94.543197 
" clip-path="url(#p17dfec1324)" style="fill: none; stroke: #000000; stroke-opacity: 0.6; stroke-width: 0.019988"/>
    <path d="M 299.235716 505.090035 
L 296.085523 648.595041 
" clip-path="url(#p17dfec1324)" style="fill: none; stroke: #000000; stroke-opacity: 0.6; stroke-width: 0.259844"/>
    <path d="M 299.235716 505.090035 
L 314.479299 559.245991 
" clip-path="url(#p17dfec1324)" style="fill: none; stroke: #000000; stroke-opacity: 0.6; stroke-width: 0.293157"/>
    <path d="M 299.235716 505.090035 
L 577.201943 167.49713 
" clip-path="url(#p17dfec1324)" style="fill: none; stroke: #000000; stroke-opacity: 0.6; stroke-width: 0.006663"/>
    <path d="M 95.19867 197.602067 
L 289.485384 392.060307 
" clip-path="url(#p17dfec1324)" style="fill: none; stroke: #000000; stroke-opacity: 0.6; stroke-width: 0.006663"/>
    <path d="M 95.19867 197.602067 
L 109.677158 153.087818 
" clip-path="url(#p17dfec1324)" style="fill: none; stroke: #000000; stroke-opacity: 0.6; stroke-width: 0.139916"/>
    <path d="M 95.19867 197.602067 
L 71.404959 71.404959 
" clip-path="url(#p17dfec1324)" style="fill: none; stroke: #000000; stroke-opacity: 0.6; stroke-width: 0.006663"/>
    <path d="M 95.19867 197.602067 
L 111.953007 297.708911 
" clip-path="url(#p17dfec1324)" style="fill: none; stroke: #000000; stroke-opacity: 0.6; stroke-width: 0.026651"/>
    <path d="M 95.19867 197.602067 
L 139.559241 94.543197 
" clip-path="url(#p17dfec1324)" style="fill: none; stroke: #000000; stroke-opacity: 0.6; stroke-width: 0.046639"/>
    <path d="M 95.19867 197.602067 
L 270.802529 466.847221 
" clip-path="url(#p17dfec1324)" style="fill: none; stroke: #000000; stroke-opacity: 0.6; stroke-width: 0.013325"/>
    <path d="M 289.485384 392.060307 
L 270.802529 466.847221 
" clip-path="url(#p17dfec1324)" style="fill: none; stroke: #000000; stroke-opacity: 0.6; stroke-width: 0.159904"/>
    <path d="M 289.485384 392.060307 
L 648.595041 236.67736 
" clip-path="url(#p17dfec1324)" style="fill: none; stroke: #000000; stroke-opacity: 0.6; stroke-width: 0.013325"/>
    <path d="M 289.485384 392.060307 
L 239.851233 569.915295 
" clip-path="url(#p17dfec1324)" style="fill: none; stroke: #000000; stroke-opacity: 0.6; stroke-width: 0.019988"/>
    <path d="M 289.485384 392.060307 
L 139.559241 94.543197 
" clip-path="url(#p17dfec1324)" style="fill: none; stroke: #000000; stroke-opacity: 0.6; stroke-width: 0.053301"/>
    <path d="M 289.485384 392.060307 
L 73.197907 322.40614 
" clip-path="url(#p17dfec1324)" style="fill: none; stroke: #000000; stroke-opacity: 0.6; stroke-width: 0.006663"/>
    <path d="M 289.485384 392.060307 
L 111.953007 297.708911 
" clip-path="url(#p17dfec1324)" style="fill: none; stroke: #000000; stroke-opacity: 0.6; stroke-width: 0.059964"/>
    <path d="M 289.485384 392.060307 
L 256.44128 554.151676 
" clip-path="url(#p17dfec1324)" style="fill: none; stroke: #000000; stroke-opacity: 0.6; stroke-width: 0.006663"/>
    <path d="M 109.677158 153.087818 
L 270.802529 466.847221 
" clip-path="url(#p17dfec1324)" style="fill: none; stroke: #000000; stroke-opacity: 0.6; stroke-width: 0.053301"/>
    <path d="M 109.677158 153.087818 
L 71.404959 71.404959 
" clip-path="url(#p17dfec1324)" style="fill: none; stroke: #000000; stroke-opacity: 0.6; stroke-width: 0.006663"/>
    <path d="M 109.677158 153.087818 
L 111.953007 297.708911 
" clip-path="url(#p17dfec1324)" style="fill: none; stroke: #000000; stroke-opacity: 0.6; stroke-width: 0.166567"/>
    <path d="M 109.677158 153.087818 
L 577.201943 167.49713 
" clip-path="url(#p17dfec1324)" style="fill: none; stroke: #000000; stroke-opacity: 0.6; stroke-width: 0.066627"/>
    <path d="M 109.677158 153.087818 
L 256.44128 554.151676 
" clip-path="url(#p17dfec1324)" style="fill: none; stroke: #000000; stroke-opacity: 0.6; stroke-width: 0.006663"/>
    <path d="M 109.677158 153.087818 
L 139.559241 94.543197 
" clip-path="url(#p17dfec1324)" style="fill: none; stroke: #000000; stroke-opacity: 0.6; stroke-width: 0.086615"/>
    <path d="M 109.677158 153.087818 
L 73.197907 322.40614 
" clip-path="url(#p17dfec1324)" style="fill: none; stroke: #000000; stroke-opacity: 0.6; stroke-width: 0.006663"/>
    <path d="M 109.677158 153.087818 
L 239.851233 569.915295 
" clip-path="url(#p17dfec1324)" style="fill: none; stroke: #000000; stroke-opacity: 0.6; stroke-width: 0.013325"/>
    <path d="M 270.802529 466.847221 
L 71.404959 71.404959 
" clip-path="url(#p17dfec1324)" style="fill: none; stroke: #000000; stroke-opacity: 0.6; stroke-width: 0.019988"/>
    <path d="M 270.802529 466.847221 
L 111.953007 297.708911 
" clip-path="url(#p17dfec1324)" style="fill: none; stroke: #000000; stroke-opacity: 0.6; stroke-width: 0.086615"/>
    <path d="M 270.802529 466.847221 
L 239.851233 569.915295 
" clip-path="url(#p17dfec1324)" style="fill: none; stroke: #000000; stroke-opacity: 0.6; stroke-width: 0.146579"/>
    <path d="M 270.802529 466.847221 
L 648.595041 236.67736 
" clip-path="url(#p17dfec1324)" style="fill: none; stroke: #000000; stroke-opacity: 0.6; stroke-width: 0.173229"/>
    <path d="M 270.802529 466.847221 
L 256.44128 554.151676 
" clip-path="url(#p17dfec1324)" style="fill: none; stroke: #000000; stroke-opacity: 0.6; stroke-width: 0.046639"/>
    <path d="M 270.802529 466.847221 
L 314.479299 559.245991 
" clip-path="url(#p17dfec1324)" style="fill: none; stroke: #000000; stroke-opacity: 0.6; stroke-width: 0.079952"/>
    <path d="M 71.404959 71.404959 
L 111.953007 297.708911 
" clip-path="url(#p17dfec1324)" style="fill: none; stroke: #000000; stroke-opacity: 0.6; stroke-width: 0.006663"/>
    <path d="M 71.404959 71.404959 
L 139.559241 94.543197 
" clip-path="url(#p17dfec1324)" style="fill: none; stroke: #000000; stroke-opacity: 0.6; stroke-width: 0.013325"/>
    <path d="M 71.404959 71.404959 
L 73.197907 322.40614 
" clip-path="url(#p17dfec1324)" style="fill: none; stroke: #000000; stroke-opacity: 0.6; stroke-width: 0.006663"/>
    <path d="M 111.953007 297.708911 
L 577.201943 167.49713 
" clip-path="url(#p17dfec1324)" style="fill: none; stroke: #000000; stroke-opacity: 0.6; stroke-width: 0.053301"/>
    <path d="M 111.953007 297.708911 
L 256.44128 554.151676 
" clip-path="url(#p17dfec1324)" style="fill: none; stroke: #000000; stroke-opacity: 0.6; stroke-width: 0.006663"/>
    <path d="M 111.953007 297.708911 
L 139.559241 94.543197 
" clip-path="url(#p17dfec1324)" style="fill: none; stroke: #000000; stroke-opacity: 0.6; stroke-width: 0.026651"/>
    <path d="M 111.953007 297.708911 
L 296.085523 648.595041 
" clip-path="url(#p17dfec1324)" style="fill: none; stroke: #000000; stroke-opacity: 0.6; stroke-width: 0.006663"/>
    <path d="M 111.953007 297.708911 
L 73.197907 322.40614 
" clip-path="url(#p17dfec1324)" style="fill: none; stroke: #000000; stroke-opacity: 0.6; stroke-width: 0.09994"/>
    <path d="M 648.595041 236.67736 
L 577.201943 167.49713 
" clip-path="url(#p17dfec1324)" style="fill: none; stroke: #000000; stroke-opacity: 0.6; stroke-width: 0.006663"/>
    <path d="M 648.595041 236.67736 
L 239.851233 569.915295 
" clip-path="url(#p17dfec1324)" style="fill: none; stroke: #000000; stroke-opacity: 0.6; stroke-width: 0.039976"/>
    <path d="M 577.201943 167.49713 
L 314.479299 559.245991 
" clip-path="url(#p17dfec1324)" style="fill: none; stroke: #000000; stroke-opacity: 0.6; stroke-width: 0.013325"/>
    <path d="M 256.44128 554.151676 
L 239.851233 569.915295 
" clip-path="url(#p17dfec1324)" style="fill: none; stroke: #000000; stroke-opacity: 0.6; stroke-width: 0.059964"/>
    <path d="M 256.44128 554.151676 
L 139.559241 94.543197 
" clip-path="url(#p17dfec1324)" style="fill: none; stroke: #000000; stroke-opacity: 0.6; stroke-width: 0.006663"/>
    <path d="M 256.44128 554.151676 
L 296.085523 648.595041 
" clip-path="url(#p17dfec1324)" style="fill: none; stroke: #000000; stroke-opacity: 0.6; stroke-width: 0.019988"/>
   </g>
   <g id="matplotlib.axis_1">
    <g id="xtick_1"/>
    <g id="xtick_2"/>
    <g id="xtick_3"/>
    <g id="xtick_4"/>
    <g id="xtick_5"/>
    <g id="xtick_6"/>
    <g id="xtick_7"/>
    <g id="xtick_8"/>
    <g id="xtick_9"/>
   </g>
   <g id="matplotlib.axis_2">
    <g id="ytick_1"/>
    <g id="ytick_2"/>
    <g id="ytick_3"/>
    <g id="ytick_4"/>
    <g id="ytick_5"/>
    <g id="ytick_6"/>
    <g id="ytick_7"/>
   </g>
   <g id="PathCollection_1">
    <defs>
     <path id="m362b46aca0" d="M 0 10 
C 2.652031 10 5.195799 8.946337 7.071068 7.071068 
C 8.946337 5.195799 10 2.652031 10 0 
C 10 -2.652031 8.946337 -5.195799 7.071068 -7.071068 
C 5.195799 -8.946337 2.652031 -10 0 -10 
C -2.652031 -10 -5.195799 -8.946337 -7.071068 -7.071068 
C -8.946337 -5.195799 -10 -2.652031 -10 0 
C -10 2.652031 -8.946337 5.195799 -7.071068 7.071068 
C -5.195799 8.946337 -2.652031 10 0 10 
z
" style="stroke: #1f77b4"/>
    </defs>
    <g clip-path="url(#p17dfec1324)">
     <use xlink:href="#m362b46aca0" x="286.17532" y="537.386734" style="fill: #1f77b4; stroke: #1f77b4"/>
     <use xlink:href="#m362b46aca0" x="278.5043" y="596.228785" style="fill: #1f77b4; stroke: #1f77b4"/>
     <use xlink:href="#m362b46aca0" x="299.235716" y="505.090035" style="fill: #1f77b4; stroke: #1f77b4"/>
     <use xlink:href="#m362b46aca0" x="289.485384" y="392.060307" style="fill: #1f77b4; stroke: #1f77b4"/>
     <use xlink:href="#m362b46aca0" x="270.802529" y="466.847221" style="fill: #1f77b4; stroke: #1f77b4"/>
     <use xlink:href="#m362b46aca0" x="256.44128" y="554.151676" style="fill: #1f77b4; stroke: #1f77b4"/>
     <use xlink:href="#m362b46aca0" x="239.851233" y="569.915295" style="fill: #1f77b4; stroke: #1f77b4"/>
     <use xlink:href="#m362b46aca0" x="296.085523" y="648.595041" style="fill: #1f77b4; stroke: #1f77b4"/>
     <use xlink:href="#m362b46aca0" x="314.479299" y="559.245991" style="fill: #1f77b4; stroke: #1f77b4"/>
    </g>
   </g>
   <g id="PathCollection_2">
    <defs>
     <path id="m5a3042b013" d="M 0 10 
C 2.652031 10 5.195799 8.946337 7.071068 7.071068 
C 8.946337 5.195799 10 2.652031 10 0 
C 10 -2.652031 8.946337 -5.195799 7.071068 -7.071068 
C 5.195799 -8.946337 2.652031 -10 0 -10 
C -2.652031 -10 -5.195799 -8.946337 -7.071068 -7.071068 
C -8.946337 -5.195799 -10 -2.652031 -10 0 
C -10 2.652031 -8.946337 5.195799 -7.071068 7.071068 
C -5.195799 8.946337 -2.652031 10 0 10 
z
" style="stroke: #ff7f0e"/>
    </defs>
    <g clip-path="url(#p17dfec1324)">
     <use xlink:href="#m5a3042b013" x="139.559241" y="94.543197" style="fill: #ff7f0e; stroke: #ff7f0e"/>
     <use xlink:href="#m5a3042b013" x="73.197907" y="322.40614" style="fill: #ff7f0e; stroke: #ff7f0e"/>
     <use xlink:href="#m5a3042b013" x="86.279696" y="152.807599" style="fill: #ff7f0e; stroke: #ff7f0e"/>
     <use xlink:href="#m5a3042b013" x="95.19867" y="197.602067" style="fill: #ff7f0e; stroke: #ff7f0e"/>
     <use xlink:href="#m5a3042b013" x="109.677158" y="153.087818" style="fill: #ff7f0e; stroke: #ff7f0e"/>
     <use xlink:href="#m5a3042b013" x="71.404959" y="71.404959" style="fill: #ff7f0e; stroke: #ff7f0e"/>
     <use xlink:href="#m5a3042b013" x="111.953007" y="297.708911" style="fill: #ff7f0e; stroke: #ff7f0e"/>
    </g>
   </g>
   <g id="PathCollection_3">
    <defs>
     <path id="m2d37ab026f" d="M 0 10 
C 2.652031 10 5.195799 8.946337 7.071068 7.071068 
C 8.946337 5.195799 10 2.652031 10 0 
C 10 -2.652031 8.946337 -5.195799 7.071068 -7.071068 
C 5.195799 -8.946337 2.652031 -10 0 -10 
C -2.652031 -10 -5.195799 -8.946337 -7.071068 -7.071068 
C -8.946337 -5.195799 -10 -2.652031 -10 0 
C -10 2.652031 -8.946337 5.195799 -7.071068 7.071068 
C -5.195799 8.946337 -2.652031 10 0 10 
z
" style="stroke: #2ca02c"/>
    </defs>
    <g clip-path="url(#p17dfec1324)">
     <use xlink:href="#m2d37ab026f" x="621.109738" y="170.002018" style="fill: #2ca02c; stroke: #2ca02c"/>
     <use xlink:href="#m2d37ab026f" x="607.096558" y="164.465361" style="fill: #2ca02c; stroke: #2ca02c"/>
     <use xlink:href="#m2d37ab026f" x="637.849904" y="118.208158" style="fill: #2ca02c; stroke: #2ca02c"/>
     <use xlink:href="#m2d37ab026f" x="619.624802" y="106.52604" style="fill: #2ca02c; stroke: #2ca02c"/>
     <use xlink:href="#m2d37ab026f" x="648.595041" y="236.67736" style="fill: #2ca02c; stroke: #2ca02c"/>
     <use xlink:href="#m2d37ab026f" x="577.201943" y="167.49713" style="fill: #2ca02c; stroke: #2ca02c"/>
    </g>
   </g>
   <g id="patch_3">
    <path d="M 10.8 709.2 
L 10.8 10.8 
" style="fill: none; stroke: #000000; stroke-width: 0.8; stroke-linejoin: miter; stroke-linecap: square"/>
   </g>
   <g id="patch_4">
    <path d="M 709.2 709.2 
L 709.2 10.8 
" style="fill: none; stroke: #000000; stroke-width: 0.8; stroke-linejoin: miter; stroke-linecap: square"/>
   </g>
   <g id="patch_5">
    <path d="M 10.8 709.2 
L 709.2 709.2 
" style="fill: none; stroke: #000000; stroke-width: 0.8; stroke-linejoin: miter; stroke-linecap: square"/>
   </g>
   <g id="patch_6">
    <path d="M 10.8 10.8 
L 709.2 10.8 
" style="fill: none; stroke: #000000; stroke-width: 0.8; stroke-linejoin: miter; stroke-linecap: square"/>
   </g>
   <g id="text_1">
    <g clip-path="url(#p17dfec1324)">
     <!-- 0 -->
     <g transform="translate(618.564738 172.209518) scale(0.08 -0.08)">
      <defs>
       <path id="DejaVuSans-30" d="M 2034 4250 
Q 1547 4250 1301 3770 
Q 1056 3291 1056 2328 
Q 1056 1369 1301 889 
Q 1547 409 2034 409 
Q 2525 409 2770 889 
Q 3016 1369 3016 2328 
Q 3016 3291 2770 3770 
Q 2525 4250 2034 4250 
z
M 2034 4750 
Q 2819 4750 3233 4129 
Q 3647 3509 3647 2328 
Q 3647 1150 3233 529 
Q 2819 -91 2034 -91 
Q 1250 -91 836 529 
Q 422 1150 422 2328 
Q 422 3509 836 4129 
Q 1250 4750 2034 4750 
z
" transform="scale(0.015625)"/>
      </defs>
      <use xlink:href="#DejaVuSans-30"/>
     </g>
    </g>
   </g>
   <g id="text_2">
    <g clip-path="url(#p17dfec1324)">
     <!-- 1 -->
     <g transform="translate(604.551558 166.672861) scale(0.08 -0.08)">
      <defs>
       <path id="DejaVuSans-31" d="M 794 531 
L 1825 531 
L 1825 4091 
L 703 3866 
L 703 4441 
L 1819 4666 
L 2450 4666 
L 2450 531 
L 3481 531 
L 3481 0 
L 794 0 
L 794 531 
z
" transform="scale(0.015625)"/>
      </defs>
      <use xlink:href="#DejaVuSans-31"/>
     </g>
    </g>
   </g>
   <g id="text_3">
    <g clip-path="url(#p17dfec1324)">
     <!-- 2 -->
     <g transform="translate(635.304904 120.415658) scale(0.08 -0.08)">
      <defs>
       <path id="DejaVuSans-32" d="M 1228 531 
L 3431 531 
L 3431 0 
L 469 0 
L 469 531 
Q 828 903 1448 1529 
Q 2069 2156 2228 2338 
Q 2531 2678 2651 2914 
Q 2772 3150 2772 3378 
Q 2772 3750 2511 3984 
Q 2250 4219 1831 4219 
Q 1534 4219 1204 4116 
Q 875 4013 500 3803 
L 500 4441 
Q 881 4594 1212 4672 
Q 1544 4750 1819 4750 
Q 2544 4750 2975 4387 
Q 3406 4025 3406 3419 
Q 3406 3131 3298 2873 
Q 3191 2616 2906 2266 
Q 2828 2175 2409 1742 
Q 1991 1309 1228 531 
z
" transform="scale(0.015625)"/>
      </defs>
      <use xlink:href="#DejaVuSans-32"/>
     </g>
    </g>
   </g>
   <g id="text_4">
    <g clip-path="url(#p17dfec1324)">
     <!-- 3 -->
     <g transform="translate(617.079802 108.73354) scale(0.08 -0.08)">
      <defs>
       <path id="DejaVuSans-33" d="M 2597 2516 
Q 3050 2419 3304 2112 
Q 3559 1806 3559 1356 
Q 3559 666 3084 287 
Q 2609 -91 1734 -91 
Q 1441 -91 1130 -33 
Q 819 25 488 141 
L 488 750 
Q 750 597 1062 519 
Q 1375 441 1716 441 
Q 2309 441 2620 675 
Q 2931 909 2931 1356 
Q 2931 1769 2642 2001 
Q 2353 2234 1838 2234 
L 1294 2234 
L 1294 2753 
L 1863 2753 
Q 2328 2753 2575 2939 
Q 2822 3125 2822 3475 
Q 2822 3834 2567 4026 
Q 2313 4219 1838 4219 
Q 1578 4219 1281 4162 
Q 984 4106 628 3988 
L 628 4550 
Q 988 4650 1302 4700 
Q 1616 4750 1894 4750 
Q 2613 4750 3031 4423 
Q 3450 4097 3450 3541 
Q 3450 3153 3228 2886 
Q 3006 2619 2597 2516 
z
" transform="scale(0.015625)"/>
      </defs>
      <use xlink:href="#DejaVuSans-33"/>
     </g>
    </g>
   </g>
   <g id="text_5">
    <g clip-path="url(#p17dfec1324)">
     <!-- 4 -->
     <g transform="translate(83.734696 155.015099) scale(0.08 -0.08)">
      <defs>
       <path id="DejaVuSans-34" d="M 2419 4116 
L 825 1625 
L 2419 1625 
L 2419 4116 
z
M 2253 4666 
L 3047 4666 
L 3047 1625 
L 3713 1625 
L 3713 1100 
L 3047 1100 
L 3047 0 
L 2419 0 
L 2419 1100 
L 313 1100 
L 313 1709 
L 2253 4666 
z
" transform="scale(0.015625)"/>
      </defs>
      <use xlink:href="#DejaVuSans-34"/>
     </g>
    </g>
   </g>
   <g id="text_6">
    <g clip-path="url(#p17dfec1324)">
     <!-- 5 -->
     <g transform="translate(283.63032 539.594234) scale(0.08 -0.08)">
      <defs>
       <path id="DejaVuSans-35" d="M 691 4666 
L 3169 4666 
L 3169 4134 
L 1269 4134 
L 1269 2991 
Q 1406 3038 1543 3061 
Q 1681 3084 1819 3084 
Q 2600 3084 3056 2656 
Q 3513 2228 3513 1497 
Q 3513 744 3044 326 
Q 2575 -91 1722 -91 
Q 1428 -91 1123 -41 
Q 819 9 494 109 
L 494 744 
Q 775 591 1075 516 
Q 1375 441 1709 441 
Q 2250 441 2565 725 
Q 2881 1009 2881 1497 
Q 2881 1984 2565 2268 
Q 2250 2553 1709 2553 
Q 1456 2553 1204 2497 
Q 953 2441 691 2322 
L 691 4666 
z
" transform="scale(0.015625)"/>
      </defs>
      <use xlink:href="#DejaVuSans-35"/>
     </g>
    </g>
   </g>
   <g id="text_7">
    <g clip-path="url(#p17dfec1324)">
     <!-- 6 -->
     <g transform="translate(275.9593 598.436285) scale(0.08 -0.08)">
      <defs>
       <path id="DejaVuSans-36" d="M 2113 2584 
Q 1688 2584 1439 2293 
Q 1191 2003 1191 1497 
Q 1191 994 1439 701 
Q 1688 409 2113 409 
Q 2538 409 2786 701 
Q 3034 994 3034 1497 
Q 3034 2003 2786 2293 
Q 2538 2584 2113 2584 
z
M 3366 4563 
L 3366 3988 
Q 3128 4100 2886 4159 
Q 2644 4219 2406 4219 
Q 1781 4219 1451 3797 
Q 1122 3375 1075 2522 
Q 1259 2794 1537 2939 
Q 1816 3084 2150 3084 
Q 2853 3084 3261 2657 
Q 3669 2231 3669 1497 
Q 3669 778 3244 343 
Q 2819 -91 2113 -91 
Q 1303 -91 875 529 
Q 447 1150 447 2328 
Q 447 3434 972 4092 
Q 1497 4750 2381 4750 
Q 2619 4750 2861 4703 
Q 3103 4656 3366 4563 
z
" transform="scale(0.015625)"/>
      </defs>
      <use xlink:href="#DejaVuSans-36"/>
     </g>
    </g>
   </g>
   <g id="text_8">
    <g clip-path="url(#p17dfec1324)">
     <!-- 7 -->
     <g transform="translate(296.690716 507.297535) scale(0.08 -0.08)">
      <defs>
       <path id="DejaVuSans-37" d="M 525 4666 
L 3525 4666 
L 3525 4397 
L 1831 0 
L 1172 0 
L 2766 4134 
L 525 4134 
L 525 4666 
z
" transform="scale(0.015625)"/>
      </defs>
      <use xlink:href="#DejaVuSans-37"/>
     </g>
    </g>
   </g>
   <g id="text_9">
    <g clip-path="url(#p17dfec1324)">
     <!-- 8 -->
     <g transform="translate(92.65367 199.809567) scale(0.08 -0.08)">
      <defs>
       <path id="DejaVuSans-38" d="M 2034 2216 
Q 1584 2216 1326 1975 
Q 1069 1734 1069 1313 
Q 1069 891 1326 650 
Q 1584 409 2034 409 
Q 2484 409 2743 651 
Q 3003 894 3003 1313 
Q 3003 1734 2745 1975 
Q 2488 2216 2034 2216 
z
M 1403 2484 
Q 997 2584 770 2862 
Q 544 3141 544 3541 
Q 544 4100 942 4425 
Q 1341 4750 2034 4750 
Q 2731 4750 3128 4425 
Q 3525 4100 3525 3541 
Q 3525 3141 3298 2862 
Q 3072 2584 2669 2484 
Q 3125 2378 3379 2068 
Q 3634 1759 3634 1313 
Q 3634 634 3220 271 
Q 2806 -91 2034 -91 
Q 1263 -91 848 271 
Q 434 634 434 1313 
Q 434 1759 690 2068 
Q 947 2378 1403 2484 
z
M 1172 3481 
Q 1172 3119 1398 2916 
Q 1625 2713 2034 2713 
Q 2441 2713 2670 2916 
Q 2900 3119 2900 3481 
Q 2900 3844 2670 4047 
Q 2441 4250 2034 4250 
Q 1625 4250 1398 4047 
Q 1172 3844 1172 3481 
z
" transform="scale(0.015625)"/>
      </defs>
      <use xlink:href="#DejaVuSans-38"/>
     </g>
    </g>
   </g>
   <g id="text_10">
    <g clip-path="url(#p17dfec1324)">
     <!-- 9 -->
     <g transform="translate(286.940384 394.267807) scale(0.08 -0.08)">
      <defs>
       <path id="DejaVuSans-39" d="M 703 97 
L 703 672 
Q 941 559 1184 500 
Q 1428 441 1663 441 
Q 2288 441 2617 861 
Q 2947 1281 2994 2138 
Q 2813 1869 2534 1725 
Q 2256 1581 1919 1581 
Q 1219 1581 811 2004 
Q 403 2428 403 3163 
Q 403 3881 828 4315 
Q 1253 4750 1959 4750 
Q 2769 4750 3195 4129 
Q 3622 3509 3622 2328 
Q 3622 1225 3098 567 
Q 2575 -91 1691 -91 
Q 1453 -91 1209 -44 
Q 966 3 703 97 
z
M 1959 2075 
Q 2384 2075 2632 2365 
Q 2881 2656 2881 3163 
Q 2881 3666 2632 3958 
Q 2384 4250 1959 4250 
Q 1534 4250 1286 3958 
Q 1038 3666 1038 3163 
Q 1038 2656 1286 2365 
Q 1534 2075 1959 2075 
z
" transform="scale(0.015625)"/>
      </defs>
      <use xlink:href="#DejaVuSans-39"/>
     </g>
    </g>
   </g>
   <g id="text_11">
    <g clip-path="url(#p17dfec1324)">
     <!-- 10 -->
     <g transform="translate(104.587158 155.295318) scale(0.08 -0.08)">
      <use xlink:href="#DejaVuSans-31"/>
      <use xlink:href="#DejaVuSans-30" x="63.623047"/>
     </g>
    </g>
   </g>
   <g id="text_12">
    <g clip-path="url(#p17dfec1324)">
     <!-- 11 -->
     <g transform="translate(265.712529 469.054721) scale(0.08 -0.08)">
      <use xlink:href="#DejaVuSans-31"/>
      <use xlink:href="#DejaVuSans-31" x="63.623047"/>
     </g>
    </g>
   </g>
   <g id="text_13">
    <g clip-path="url(#p17dfec1324)">
     <!-- 12 -->
     <g transform="translate(66.314959 73.612459) scale(0.08 -0.08)">
      <use xlink:href="#DejaVuSans-31"/>
      <use xlink:href="#DejaVuSans-32" x="63.623047"/>
     </g>
    </g>
   </g>
   <g id="text_14">
    <g clip-path="url(#p17dfec1324)">
     <!-- 13 -->
     <g transform="translate(106.863007 299.916411) scale(0.08 -0.08)">
      <use xlink:href="#DejaVuSans-31"/>
      <use xlink:href="#DejaVuSans-33" x="63.623047"/>
     </g>
    </g>
   </g>
   <g id="text_15">
    <g clip-path="url(#p17dfec1324)">
     <!-- 14 -->
     <g transform="translate(643.505041 238.88486) scale(0.08 -0.08)">
      <use xlink:href="#DejaVuSans-31"/>
      <use xlink:href="#DejaVuSans-34" x="63.623047"/>
     </g>
    </g>
   </g>
   <g id="text_16">
    <g clip-path="url(#p17dfec1324)">
     <!-- 15 -->
     <g transform="translate(572.111943 169.70463) scale(0.08 -0.08)">
      <use xlink:href="#DejaVuSans-31"/>
      <use xlink:href="#DejaVuSans-35" x="63.623047"/>
     </g>
    </g>
   </g>
   <g id="text_17">
    <g clip-path="url(#p17dfec1324)">
     <!-- 16 -->
     <g transform="translate(251.35128 556.359176) scale(0.08 -0.08)">
      <use xlink:href="#DejaVuSans-31"/>
      <use xlink:href="#DejaVuSans-36" x="63.623047"/>
     </g>
    </g>
   </g>
   <g id="text_18">
    <g clip-path="url(#p17dfec1324)">
     <!-- 17 -->
     <g transform="translate(234.761233 572.122795) scale(0.08 -0.08)">
      <use xlink:href="#DejaVuSans-31"/>
      <use xlink:href="#DejaVuSans-37" x="63.623047"/>
     </g>
    </g>
   </g>
   <g id="text_19">
    <g clip-path="url(#p17dfec1324)">
     <!-- 18 -->
     <g transform="translate(134.469241 96.750697) scale(0.08 -0.08)">
      <use xlink:href="#DejaVuSans-31"/>
      <use xlink:href="#DejaVuSans-38" x="63.623047"/>
     </g>
    </g>
   </g>
   <g id="text_20">
    <g clip-path="url(#p17dfec1324)">
     <!-- 19 -->
     <g transform="translate(68.107907 324.61364) scale(0.08 -0.08)">
      <use xlink:href="#DejaVuSans-31"/>
      <use xlink:href="#DejaVuSans-39" x="63.623047"/>
     </g>
    </g>
   </g>
   <g id="text_21">
    <g clip-path="url(#p17dfec1324)">
     <!-- 20 -->
     <g transform="translate(290.995523 650.802541) scale(0.08 -0.08)">
      <use xlink:href="#DejaVuSans-32"/>
      <use xlink:href="#DejaVuSans-30" x="63.623047"/>
     </g>
    </g>
   </g>
   <g id="text_22">
    <g clip-path="url(#p17dfec1324)">
     <!-- 21 -->
     <g transform="translate(309.389299 561.453491) scale(0.08 -0.08)">
      <use xlink:href="#DejaVuSans-32"/>
      <use xlink:href="#DejaVuSans-31" x="63.623047"/>
     </g>
    </g>
   </g>
  </g>
 </g>
 <defs>
  <clipPath id="p17dfec1324">
   <rect x="10.8" y="10.8" width="698.4" height="698.4"/>
  </clipPath>
 </defs>
</svg>
